{"glyphs":{"0":{"ha":1251,"x_min":65,"x_max":1186,"o":"m 1186 486 q 1154 296 1186 385 q 1063 142 1122 208 q 922 38 1004 76 q 739 0 840 0 l 513 0 q 329 38 412 0 q 188 142 246 76 q 97 296 129 208 q 65 486 65 385 q 97 675 65 587 q 188 830 129 764 q 329 934 246 896 q 513 972 412 972 l 739 972 q 922 934 840 972 q 1063 830 1004 896 q 1154 675 1122 764 q 1186 486 1186 587 m 1047 486 q 1026 621 1047 558 q 965 731 1004 684 q 868 806 925 779 q 739 833 811 833 l 513 833 q 384 806 441 833 q 287 731 326 779 q 225 621 247 684 q 204 486 204 558 q 225 351 204 414 q 287 240 247 288 q 384 166 326 193 q 513 139 441 139 l 739 139 q 868 166 811 139 q 965 240 925 193 q 1026 351 1004 288 q 1047 486 1047 414 z "},"1":{"ha":435,"x_min":40,"x_max":318,"o":"m 318 0 l 179 0 l 179 833 l 40 833 l 40 972 l 318 972 l 318 0 z "},"2":{"ha":1038,"x_min":62,"x_max":965,"o":"m 965 0 l 62 0 l 62 278 q 84 386 62 335 q 144 474 106 436 q 232 533 182 511 q 340 555 283 555 l 688 555 q 742 566 716 555 q 786 596 767 577 q 815 641 804 615 q 827 694 827 666 q 815 748 827 723 q 786 793 804 774 q 742 823 767 812 q 688 833 716 833 l 132 833 l 132 972 l 688 972 q 795 950 745 972 q 883 891 846 928 q 943 802 921 853 q 965 694 965 751 q 943 587 965 637 q 883 498 921 536 q 795 438 846 460 q 688 416 745 416 l 340 416 q 286 406 312 416 q 241 376 260 395 q 211 332 222 357 q 200 278 200 307 l 200 139 l 965 139 l 965 0 z "},"3":{"ha":1050,"x_min":68,"x_max":971,"o":"m 971 694 q 945 578 971 631 q 875 486 919 524 q 945 394 919 448 q 971 278 971 340 q 949 170 971 220 q 889 82 927 119 q 801 22 852 44 q 693 0 750 0 l 68 0 l 68 139 l 693 139 q 747 150 722 139 q 791 180 772 161 q 821 224 810 199 q 832 278 832 250 q 821 332 832 307 q 791 376 810 357 q 747 406 772 395 q 693 416 722 416 l 243 416 l 243 555 l 693 555 q 747 566 722 555 q 791 596 772 577 q 821 641 810 615 q 832 694 832 666 q 821 748 832 723 q 791 793 810 774 q 747 823 772 812 q 693 833 722 833 l 68 833 l 68 972 l 693 972 q 801 950 750 972 q 889 891 852 928 q 949 802 927 853 q 971 694 971 751 z "},"4":{"ha":1145,"x_min":56,"x_max":1028,"o":"m 56 972 l 195 972 l 195 625 q 205 571 195 597 q 235 527 216 546 q 280 497 254 508 q 334 486 305 486 l 889 486 l 889 972 l 1028 972 l 1028 0 l 889 0 l 889 347 l 334 347 q 225 369 276 347 q 137 429 175 391 q 78 517 100 467 q 56 625 56 568 l 56 972 z "},"5":{"ha":1046,"x_min":89,"x_max":994,"o":"m 994 313 q 970 191 994 248 q 903 92 945 134 q 804 25 861 50 q 682 0 747 0 l 89 0 l 89 139 l 682 139 q 750 153 718 139 q 805 190 781 166 q 842 245 829 213 q 856 313 856 277 q 842 380 856 349 q 805 435 829 412 q 750 473 781 459 q 682 486 718 486 l 90 486 l 90 972 l 925 972 l 925 833 l 229 833 l 229 625 l 682 625 q 804 601 747 625 q 903 533 861 576 q 970 434 945 491 q 994 313 994 377 z "},"6":{"ha":1112,"x_min":89,"x_max":1061,"o":"m 1061 313 q 1037 191 1061 248 q 969 92 1012 134 q 870 25 927 50 q 749 0 813 0 l 401 0 q 280 25 337 0 q 181 92 223 50 q 114 191 138 134 q 89 313 89 248 l 89 660 q 114 781 89 724 q 181 881 138 838 q 280 948 223 923 q 401 972 337 972 l 991 972 l 991 833 l 401 833 q 334 820 366 833 q 279 783 302 806 q 241 727 255 759 q 228 660 228 696 l 228 313 q 241 245 228 277 q 279 190 255 213 q 334 153 302 166 q 401 139 366 139 l 749 139 q 816 153 785 139 q 871 190 848 166 q 909 245 895 213 q 922 313 922 277 q 909 380 922 349 q 871 435 895 412 q 816 473 848 459 q 749 486 785 486 l 297 486 l 297 625 l 749 625 q 870 601 813 625 q 969 533 927 576 q 1037 434 1012 491 q 1061 313 1061 377 z "},"7":{"ha":1029,"x_min":39,"x_max":1011,"o":"m 1011 833 l 290 0 l 100 0 l 821 833 l 39 833 l 39 972 l 1011 972 l 1011 833 z "},"8":{"ha":1164,"x_min":61,"x_max":1103,"o":"m 1034 694 q 1016 598 1034 644 q 966 515 998 552 q 1022 472 997 497 q 1065 416 1047 446 q 1093 350 1083 385 q 1103 278 1103 315 q 1081 170 1103 220 q 1021 82 1059 119 q 933 22 983 44 q 825 0 882 0 l 339 0 q 230 22 281 0 q 142 82 180 44 q 83 170 104 119 q 61 278 61 220 q 71 350 61 315 q 98 416 81 385 q 141 472 116 446 q 196 515 165 497 q 148 598 164 552 q 131 694 131 644 q 153 802 131 751 q 212 891 174 853 q 300 950 250 928 q 408 972 351 972 l 755 972 q 863 950 812 972 q 952 891 914 928 q 1011 802 989 853 q 1034 694 1034 751 m 339 416 q 284 406 310 416 q 240 376 259 395 q 211 332 222 357 q 200 278 200 307 q 211 224 200 250 q 240 180 222 199 q 284 150 259 161 q 339 139 310 139 l 825 139 q 879 150 854 139 q 923 180 904 161 q 953 224 942 199 q 964 278 964 250 q 953 332 964 307 q 923 376 942 357 q 879 406 904 395 q 825 416 854 416 l 339 416 m 755 555 q 809 566 784 555 q 854 596 835 577 q 884 641 873 615 q 895 694 895 666 q 884 748 895 723 q 854 793 873 774 q 809 823 835 812 q 755 833 784 833 l 408 833 q 354 823 379 833 q 310 793 328 812 q 280 748 291 774 q 269 694 269 723 q 280 641 269 666 q 310 596 291 615 q 354 566 328 577 q 408 555 379 555 l 755 555 z "},"9":{"ha":1112,"x_min":52,"x_max":1023,"o":"m 1023 313 q 999 191 1023 248 q 932 92 975 134 q 833 25 890 50 q 711 0 776 0 l 121 0 l 121 139 l 711 139 q 779 153 747 139 q 834 190 810 166 q 871 245 858 213 q 885 313 885 277 l 885 660 q 871 727 885 696 q 834 783 858 759 q 779 820 810 806 q 711 833 747 833 l 364 833 q 296 820 328 833 q 241 783 264 806 q 204 727 218 759 q 191 660 191 696 q 204 592 191 624 q 241 537 218 560 q 296 500 264 513 q 364 486 328 486 l 815 486 l 815 347 l 364 347 q 242 372 299 347 q 143 439 185 397 q 76 538 100 481 q 52 660 52 595 q 76 781 52 724 q 143 881 100 838 q 242 948 185 923 q 364 972 299 972 l 711 972 q 833 948 776 972 q 932 881 890 923 q 999 781 975 838 q 1023 660 1023 724 l 1023 313 z "}," ":{"ha":521,"x_min":0,"x_max":0,"o":""},"²":{"ha":615,"x_min":89,"x_max":521,"o":"m 521 460 l 89 460 l 89 624 q 96 665 89 642 q 118 706 102 687 q 157 739 133 726 q 216 751 182 751 l 392 751 q 406 764 406 751 l 406 799 q 397 810 401 807 q 393 811 395 811 l 123 811 l 123 928 l 393 928 q 452 915 428 928 q 492 882 477 901 q 514 841 507 863 q 521 800 521 819 l 521 764 q 508 705 521 729 q 476 665 495 680 q 434 643 456 650 q 393 636 412 636 l 216 636 q 207 632 209 636 q 204 623 204 628 l 204 576 l 521 576 l 521 460 z "},"¦":{"ha":355,"x_min":109,"x_max":248,"o":"m 248 608 l 109 608 l 109 1181 l 248 1181 l 248 608 m 248 -174 l 109 -174 l 109 400 l 248 400 l 248 -174 z "},"−":{"ha":947,"x_min":92,"x_max":856,"o":"m 856 416 l 92 416 l 92 555 l 856 555 l 856 416 z "},"×":{"ha":961,"x_min":75,"x_max":886,"o":"m 886 208 l 688 208 l 481 396 l 273 208 l 75 208 l 380 486 l 75 764 l 273 764 l 481 576 l 688 764 l 886 764 l 579 486 l 886 208 z "},"!":{"ha":364,"x_min":78,"x_max":286,"o":"m 261 972 l 232 261 l 132 261 l 103 972 l 261 972 m 286 104 q 278 64 286 83 q 255 31 269 45 q 222 8 241 16 q 182 0 203 0 q 141 8 160 0 q 109 31 123 16 q 86 64 94 45 q 78 104 78 83 q 86 144 78 125 q 109 178 94 163 q 141 200 123 192 q 182 208 160 208 q 222 200 203 208 q 255 178 241 192 q 278 144 269 163 q 286 104 286 125 z "},"$":{"ha":743,"x_min":69,"x_max":692,"o":"m 692 399 q 677 325 692 359 q 636 265 662 291 q 575 224 610 239 q 501 210 541 210 l 444 210 l 444 0 l 315 0 l 315 210 l 69 210 l 69 346 l 501 346 q 540 361 524 346 q 555 399 555 377 q 540 437 555 422 q 501 453 524 453 l 235 453 q 170 466 200 453 q 117 501 140 479 q 82 553 95 524 q 69 618 69 583 q 82 683 69 652 q 117 735 95 713 q 170 770 140 758 q 235 783 200 783 l 315 783 l 315 972 l 444 972 l 444 783 l 643 783 l 643 647 l 235 647 q 213 638 221 647 q 205 618 205 629 q 214 597 205 606 q 235 589 222 589 l 501 589 q 575 574 541 589 q 636 533 610 559 q 677 473 662 507 q 692 399 692 438 z "},"%":{"ha":1143,"x_min":49,"x_max":1095,"o":"m 1095 261 q 1077 171 1095 213 q 1027 97 1059 129 q 954 47 996 66 q 864 29 911 29 q 774 47 816 29 q 700 97 732 66 q 650 171 669 129 q 632 261 632 213 q 650 350 632 309 q 700 424 669 392 q 774 473 732 455 q 864 492 816 492 q 954 473 911 492 q 1027 424 996 455 q 1077 350 1059 392 q 1095 261 1095 309 m 905 914 l 374 41 l 240 41 l 772 914 l 905 914 m 511 694 q 493 604 511 646 q 444 531 475 562 q 370 481 412 499 q 281 463 328 463 q 191 481 233 463 q 117 531 149 499 q 67 604 85 562 q 49 694 49 646 q 67 784 49 742 q 117 858 85 827 q 191 908 149 890 q 281 926 233 926 q 370 908 328 926 q 444 858 412 890 q 493 784 475 827 q 511 694 511 742 m 979 261 q 970 305 979 284 q 945 342 961 326 q 909 367 930 358 q 864 376 888 376 q 819 367 840 376 q 782 342 798 358 q 756 305 766 326 q 747 261 747 284 q 756 216 747 237 q 782 179 766 195 q 819 154 798 163 q 864 144 840 144 q 909 154 888 144 q 945 179 930 163 q 970 216 961 195 q 979 261 979 237 m 396 694 q 387 739 396 718 q 362 776 378 760 q 326 801 347 791 q 281 810 304 810 q 235 801 256 810 q 198 776 214 791 q 173 739 182 760 q 164 694 164 718 q 173 650 164 671 q 198 613 182 629 q 235 588 214 597 q 281 579 256 579 q 326 588 304 579 q 362 613 347 597 q 387 650 378 629 q 396 694 396 671 z "},"&":{"ha":1164,"x_min":79,"x_max":1121,"o":"m 982 0 l 357 0 q 249 22 300 0 q 161 82 199 44 q 101 170 123 119 q 79 278 79 220 q 104 394 79 340 q 174 486 130 448 q 104 578 130 524 q 79 694 79 631 q 101 802 79 751 q 161 891 123 853 q 249 950 199 928 q 357 972 300 972 l 982 972 l 982 833 l 357 833 q 303 823 328 833 q 259 793 278 812 q 229 748 240 774 q 218 694 218 723 q 229 641 218 666 q 257 598 239 616 q 299 568 275 579 q 351 555 323 556 l 357 555 l 566 555 l 566 416 l 357 416 q 303 406 328 416 q 259 376 278 395 q 229 332 240 357 q 218 278 218 307 q 229 224 218 250 q 259 180 240 199 q 303 150 278 161 q 357 139 328 139 l 843 139 l 843 416 l 704 416 l 704 555 l 1121 555 l 1121 416 l 982 416 l 982 0 z "},"(":{"ha":453,"x_min":53,"x_max":453,"o":"m 453 -174 l 269 -174 q 202 -69 239 -133 q 132 81 165 -5 q 76 273 98 167 q 53 504 53 379 q 64 655 53 583 q 93 794 75 728 q 135 918 111 860 q 182 1026 158 977 q 231 1114 207 1075 q 273 1181 254 1153 l 449 1181 l 427 1153 q 408 1129 425 1152 q 364 1064 390 1106 q 308 964 338 1023 q 252 834 277 906 q 209 679 226 762 q 192 504 192 595 q 209 317 192 404 q 251 159 226 231 q 307 32 277 87 q 363 -63 337 -24 q 406 -122 389 -102 q 424 -143 423 -142 l 453 -174 z "},"*":{"ha":758,"x_min":77,"x_max":682,"o":"m 682 825 l 473 693 l 682 561 l 602 449 l 435 583 l 449 359 l 310 359 l 322 583 l 157 449 l 77 561 l 283 693 l 77 825 l 157 937 l 322 802 l 310 1026 l 449 1026 l 435 802 l 602 937 l 682 825 z "},"+":{"ha":867,"x_min":52,"x_max":815,"o":"m 815 416 l 503 416 l 503 139 l 364 139 l 364 416 l 52 416 l 52 555 l 364 555 l 364 833 l 503 833 l 503 555 l 815 555 l 815 416 z "},"-":{"ha":942,"x_min":89,"x_max":852,"o":"m 852 416 l 89 416 l 89 555 l 852 555 l 852 416 z "},"/":{"ha":745,"x_min":39,"x_max":708,"o":"m 708 972 l 197 0 l 39 0 l 550 972 l 708 972 z "},"<":{"ha":713,"x_min":50,"x_max":639,"o":"m 639 861 l 197 467 l 637 81 l 456 81 l 74 414 q 56 437 62 423 q 50 465 50 450 q 74 518 50 496 l 458 861 l 639 861 z "},"=":{"ha":947,"x_min":92,"x_max":856,"o":"m 856 625 l 92 625 l 92 764 l 856 764 l 856 625 m 856 208 l 92 208 l 92 347 l 856 347 l 856 208 z "},"?":{"ha":1108,"x_min":47,"x_max":1054,"o":"m 1054 660 q 1029 538 1054 595 q 963 439 1005 481 q 863 372 920 397 q 742 347 806 347 l 568 347 q 543 337 553 347 q 533 313 533 327 l 533 261 l 395 261 l 395 313 q 408 380 395 349 q 445 435 422 412 q 500 473 469 459 q 568 486 532 486 l 742 486 q 809 500 778 486 q 865 537 841 513 q 902 592 888 560 q 916 660 916 624 q 902 727 916 696 q 865 783 888 759 q 809 820 841 806 q 742 833 778 833 l 47 833 l 47 972 l 742 972 q 863 948 806 972 q 963 881 920 923 q 1029 781 1005 838 q 1054 660 1054 724 m 568 104 q 560 64 568 83 q 537 31 551 45 q 504 8 523 16 q 464 0 485 0 q 423 8 442 0 q 390 31 404 16 q 368 64 376 45 q 359 104 359 83 q 368 144 359 125 q 390 178 376 163 q 423 200 404 192 q 464 208 442 208 q 504 200 485 208 q 537 178 523 192 q 560 144 551 163 q 568 104 568 125 z "},"@":{"ha":968,"x_min":92,"x_max":901,"o":"m 578 286 l 410 286 q 402 286 407 286 q 393 283 397 286 q 384 274 388 280 q 380 257 380 268 q 381 250 380 254 q 384 240 381 245 q 393 232 387 235 q 410 228 399 228 l 612 228 l 612 431 q 612 438 612 433 q 609 448 612 443 q 600 456 606 452 q 583 460 594 460 l 342 460 l 342 575 l 583 575 q 630 567 605 575 q 677 543 656 559 q 713 498 699 526 q 728 431 728 470 l 728 228 l 757 228 q 765 228 760 228 q 775 231 770 229 q 783 240 779 234 q 786 257 786 246 l 786 517 q 772 579 786 556 q 738 615 758 603 q 699 630 719 627 q 669 633 680 633 l 323 633 q 261 619 284 633 q 226 586 238 605 q 210 547 214 566 q 207 517 207 527 l 207 170 q 221 107 207 130 q 255 72 235 84 q 294 57 274 60 q 323 54 313 54 l 410 54 l 410 -61 l 323 -61 q 248 -49 289 -61 q 173 -9 208 -37 q 115 62 138 18 q 92 170 92 106 l 92 517 q 104 592 92 551 q 143 668 116 633 q 215 726 171 703 q 323 749 259 749 l 671 749 q 720 743 694 749 q 772 726 746 738 q 821 697 798 715 q 862 653 844 679 q 891 593 880 627 q 901 517 901 559 l 901 257 q 894 210 901 235 q 869 163 886 184 q 825 127 852 141 q 757 113 797 113 l 410 113 q 362 120 388 113 q 315 144 337 127 q 279 189 294 161 q 265 257 265 217 q 273 304 265 279 q 298 351 281 330 q 343 387 315 373 q 410 401 370 401 l 578 401 l 578 286 z "},"A":{"ha":1339,"x_min":100,"x_max":1222,"o":"m 1222 0 l 1083 0 l 1083 278 l 307 278 l 307 416 l 1083 416 l 1083 833 l 585 833 q 450 806 513 833 q 340 731 387 779 q 266 621 294 684 q 239 486 239 558 l 239 0 l 100 0 l 100 486 q 117 615 100 553 q 166 731 134 677 q 242 830 197 785 q 340 906 286 874 q 456 955 394 938 q 585 972 517 972 l 1222 972 l 1222 0 z "},"B":{"ha":1307,"x_min":117,"x_max":1261,"o":"m 1261 278 q 1239 169 1261 220 q 1180 81 1217 119 q 1091 22 1142 43 q 983 0 1040 0 l 325 0 l 325 139 l 983 139 q 1037 150 1012 139 q 1082 180 1063 161 q 1112 224 1101 199 q 1122 278 1122 250 q 1112 332 1122 307 q 1082 376 1101 357 q 1037 406 1063 395 q 983 416 1012 416 l 325 416 l 325 555 l 844 555 q 898 566 873 555 q 943 596 924 577 q 972 641 962 615 q 983 694 983 666 q 972 748 983 723 q 943 793 962 774 q 898 823 924 812 q 844 833 873 833 l 256 833 l 256 0 l 117 0 l 117 972 l 844 972 q 952 950 901 972 q 1041 891 1003 928 q 1100 802 1078 853 q 1122 694 1122 751 q 1109 611 1122 650 q 1075 539 1097 572 q 1150 499 1116 525 q 1209 439 1184 473 q 1247 365 1234 406 q 1261 278 1261 323 z "},"C":{"ha":1186,"x_min":61,"x_max":1135,"o":"m 1135 0 l 509 0 q 325 38 408 0 q 183 142 242 76 q 93 296 125 208 q 61 486 61 385 q 93 675 61 587 q 183 830 125 764 q 325 934 242 896 q 509 972 408 972 l 1135 972 l 1135 833 l 509 833 q 379 806 437 833 q 282 731 322 779 q 221 621 243 684 q 200 486 200 558 q 221 351 200 414 q 282 240 243 288 q 379 166 322 193 q 509 139 437 139 l 1135 139 l 1135 0 z "},"D":{"ha":1324,"x_min":117,"x_max":1263,"o":"m 1263 486 q 1231 296 1263 385 q 1139 142 1198 208 q 998 38 1080 76 q 815 0 916 0 l 325 0 l 325 139 l 815 139 q 944 166 887 139 q 1041 240 1002 193 q 1102 351 1081 288 q 1124 486 1124 414 q 1102 621 1124 558 q 1041 731 1081 684 q 944 806 1002 779 q 815 833 887 833 l 256 833 l 256 0 l 117 0 l 117 972 l 815 972 q 998 934 916 972 q 1139 830 1080 896 q 1231 675 1198 764 q 1263 486 1263 587 z "},"E":{"ha":1178,"x_min":117,"x_max":1122,"o":"m 1122 0 l 117 0 l 117 972 l 1122 972 l 1122 833 l 256 833 l 256 139 l 1122 139 l 1122 0 m 1004 416 l 325 416 l 325 555 l 1004 555 l 1004 416 z "},"F":{"ha":1147,"x_min":117,"x_max":1124,"o":"m 1124 833 l 256 833 l 256 0 l 117 0 l 117 972 l 1124 972 l 1124 833 m 1004 416 l 325 416 l 325 555 l 1004 555 l 1004 416 z "},"G":{"ha":1225,"x_min":61,"x_max":1135,"o":"m 1135 0 l 509 0 q 325 38 408 0 q 183 142 242 76 q 93 296 125 208 q 61 486 61 385 q 93 675 61 587 q 183 830 125 764 q 325 934 242 896 q 509 972 408 972 l 1135 972 l 1135 833 l 509 833 q 379 806 437 833 q 282 731 322 779 q 221 621 243 684 q 200 486 200 558 q 221 351 200 414 q 282 240 243 288 q 379 166 322 193 q 509 139 437 139 l 996 139 l 996 416 l 407 416 l 407 555 l 1135 555 l 1135 0 z "},"H":{"ha":1260,"x_min":117,"x_max":1143,"o":"m 1143 0 l 1004 0 l 1004 416 l 325 416 l 325 555 l 1004 555 l 1004 972 l 1143 972 l 1143 0 m 256 0 l 117 0 l 117 972 l 256 972 l 256 0 z "},"I":{"ha":372,"x_min":117,"x_max":256,"o":"m 256 0 l 117 0 l 117 972 l 256 972 l 256 0 z "},"J":{"ha":1214,"x_min":52,"x_max":1114,"o":"m 1114 486 q 1096 356 1114 418 q 1047 240 1079 294 q 972 142 1016 186 q 874 66 928 98 q 758 17 820 35 q 628 0 695 0 l 52 0 l 52 139 l 628 139 q 763 166 700 139 q 873 240 826 193 q 948 351 920 288 q 975 486 975 414 l 975 833 l 52 833 l 52 972 l 1114 972 l 1114 486 z "},"K":{"ha":1240,"x_min":117,"x_max":1247,"o":"m 1247 0 l 1060 0 l 564 500 l 256 278 l 256 0 l 117 0 l 117 972 l 256 972 l 256 431 l 1018 972 l 1221 972 l 669 576 l 1247 0 z "},"L":{"ha":1060,"x_min":117,"x_max":1046,"o":"m 1046 0 l 117 0 l 117 972 l 256 972 l 256 139 l 1046 139 l 1046 0 z "},"M":{"ha":1495,"x_min":117,"x_max":1378,"o":"m 817 0 l 677 0 l 677 486 q 650 621 677 558 q 576 731 623 684 q 466 806 529 779 q 330 833 402 833 l 256 833 l 256 0 l 117 0 l 117 972 l 330 972 q 458 955 397 972 q 573 907 519 938 q 671 832 627 876 q 747 736 715 789 q 823 832 779 789 q 921 907 867 876 q 1036 955 975 938 q 1164 972 1097 972 l 1378 972 l 1378 0 l 1239 0 l 1239 833 l 1164 833 q 1029 806 1092 833 q 919 731 966 779 q 844 621 871 684 q 817 486 817 558 l 817 0 z "},"N":{"ha":1308,"x_min":117,"x_max":1192,"o":"m 256 0 l 117 0 l 117 972 l 186 972 q 330 955 254 972 q 486 904 406 937 q 644 824 565 871 q 797 717 723 777 q 936 587 871 657 q 1053 437 1001 517 l 1053 972 l 1192 972 l 1192 0 l 1053 0 q 1015 207 1053 107 q 916 394 978 306 q 772 556 853 482 q 602 687 690 631 q 424 780 513 743 q 256 828 334 816 l 256 0 z "},"O":{"ha":1339,"x_min":61,"x_max":1278,"o":"m 1278 486 q 1246 296 1278 385 q 1155 142 1214 208 q 1015 38 1097 76 q 832 0 932 0 l 509 0 q 325 38 408 0 q 183 142 242 76 q 93 296 125 208 q 61 486 61 385 q 93 675 61 587 q 183 830 125 764 q 325 934 242 896 q 509 972 408 972 l 832 972 q 1015 934 932 972 q 1155 830 1097 896 q 1246 675 1214 764 q 1278 486 1278 587 m 1139 486 q 1118 621 1139 558 q 1057 731 1097 684 q 961 806 1017 779 q 832 833 904 833 l 509 833 q 379 806 437 833 q 282 731 322 779 q 221 621 243 684 q 200 486 200 558 q 221 351 200 414 q 282 240 243 288 q 379 166 322 193 q 509 139 437 139 l 832 139 q 961 166 904 139 q 1057 240 1017 193 q 1118 351 1097 288 q 1139 486 1139 414 z "},"P":{"ha":1274,"x_min":117,"x_max":1239,"o":"m 1239 625 q 1212 490 1239 553 q 1137 379 1184 427 q 1027 305 1090 332 q 892 278 964 278 l 334 278 l 334 415 l 892 415 q 973 432 935 415 q 1039 477 1011 448 q 1084 544 1067 505 q 1100 625 1100 582 q 1084 707 1100 669 q 1039 773 1067 745 q 973 817 1011 801 q 892 833 935 833 l 256 833 l 256 0 l 117 0 l 117 972 l 892 972 q 1027 945 964 972 q 1137 870 1090 918 q 1212 760 1184 823 q 1239 625 1239 697 z "},"Q":{"ha":1339,"x_min":61,"x_max":1278,"o":"m 991 -117 l 867 1 q 849 0 859 0 q 832 0 840 0 l 509 0 q 325 38 408 0 q 183 142 242 76 q 93 296 125 208 q 61 486 61 385 q 93 675 61 587 q 183 830 125 764 q 325 934 242 896 q 509 972 408 972 l 832 972 q 1015 934 932 972 q 1155 830 1097 896 q 1246 675 1214 764 q 1278 486 1278 587 q 1260 342 1278 411 q 1208 215 1242 273 q 1125 112 1174 157 q 1017 39 1077 67 l 1179 -117 l 991 -117 m 1139 486 q 1118 621 1139 558 q 1057 731 1097 684 q 961 806 1017 779 q 832 833 904 833 l 509 833 q 379 806 437 833 q 282 731 322 779 q 221 621 243 684 q 200 486 200 558 q 221 351 200 414 q 282 240 243 288 q 379 166 322 193 q 509 139 437 139 l 722 139 l 590 265 l 785 265 l 905 147 q 1004 192 960 160 q 1077 268 1047 223 q 1123 368 1107 313 q 1139 486 1139 424 z "},"R":{"ha":1300,"x_min":117,"x_max":1239,"o":"m 1239 0 l 1051 0 l 760 278 l 334 278 l 334 415 l 892 415 q 973 432 935 415 q 1039 477 1011 448 q 1084 544 1067 505 q 1100 625 1100 582 q 1084 707 1100 669 q 1039 773 1067 745 q 973 817 1011 801 q 892 833 935 833 l 256 833 l 256 0 l 117 0 l 117 972 l 892 972 q 1027 945 964 972 q 1137 870 1090 918 q 1212 760 1184 823 q 1239 625 1239 697 q 1217 502 1239 560 q 1155 398 1194 444 q 1062 322 1116 353 q 947 282 1009 292 l 1239 0 z "},"S":{"ha":1236,"x_min":68,"x_max":1190,"o":"m 1190 278 q 1168 169 1190 220 q 1109 81 1147 119 q 1021 22 1072 43 q 913 0 970 0 l 68 0 l 68 139 l 913 139 q 967 150 942 139 q 1011 180 992 161 q 1040 224 1029 199 q 1051 278 1051 250 q 1040 332 1051 307 q 1011 376 1029 357 q 967 406 992 395 q 913 416 942 416 l 346 416 q 238 438 289 416 q 150 497 187 460 q 90 586 112 535 q 68 694 68 637 q 90 802 68 751 q 150 891 112 853 q 238 950 187 928 q 346 972 289 972 l 1121 972 l 1121 833 l 346 833 q 292 823 317 833 q 248 793 267 812 q 218 748 229 774 q 207 694 207 723 q 218 641 207 666 q 248 596 229 615 q 292 566 267 577 q 346 555 317 555 l 913 555 q 1021 533 970 555 q 1109 474 1072 511 q 1168 386 1147 436 q 1190 278 1190 335 z "},"T":{"ha":1150,"x_min":14,"x_max":1136,"o":"m 644 0 l 505 0 l 505 833 l 14 833 l 14 972 l 1136 972 l 1136 833 l 644 833 l 644 0 z "},"U":{"ha":1242,"x_min":85,"x_max":1158,"o":"m 1158 972 l 1157 486 q 1140 356 1157 418 q 1091 240 1122 294 q 1015 142 1059 186 q 917 66 970 98 q 801 17 863 35 q 672 0 739 0 l 570 0 q 440 17 503 0 q 325 66 378 35 q 227 143 271 98 q 151 241 182 187 q 102 357 119 295 q 85 486 85 419 l 85 972 l 224 972 l 224 486 q 251 351 224 414 q 325 240 278 288 q 435 166 372 193 q 570 139 498 139 l 672 139 q 807 166 744 139 q 917 240 870 193 q 991 351 964 288 q 1018 486 1018 414 l 1018 972 l 1157 972 l 1158 972 z "},"V":{"ha":1222,"x_min":21,"x_max":1202,"o":"m 1202 972 l 690 0 l 532 0 l 21 972 l 179 972 l 611 150 l 1043 972 l 1202 972 z "},"W":{"ha":1476,"x_min":107,"x_max":1369,"o":"m 1369 350 q 1342 214 1369 277 q 1267 102 1314 150 q 1156 27 1219 55 q 1019 0 1092 0 q 936 10 976 0 q 859 38 895 20 q 792 81 823 56 q 737 139 762 107 q 616 38 689 75 q 457 0 544 0 q 321 27 385 0 q 210 102 257 55 q 135 214 162 150 q 107 350 107 277 l 107 972 l 245 972 l 245 350 q 262 268 245 306 q 308 201 279 229 q 375 156 336 172 q 457 139 413 139 q 537 155 500 139 q 603 197 575 170 q 649 261 631 224 q 668 340 666 298 l 668 350 l 668 972 l 808 972 l 808 350 q 825 268 808 306 q 870 201 842 229 q 937 156 899 172 q 1019 139 975 139 q 1101 156 1063 139 q 1169 201 1140 172 q 1214 268 1198 229 q 1231 350 1231 306 l 1231 972 l 1369 972 l 1369 350 z "},"X":{"ha":1137,"x_min":7,"x_max":1131,"o":"m 1131 0 l 949 0 l 568 392 l 189 0 l 7 0 l 478 486 l 7 972 l 189 972 l 1131 0 m 1131 972 l 707 536 l 616 629 l 949 972 l 1131 972 z "},"Y":{"ha":1311,"x_min":79,"x_max":1203,"o":"m 1203 278 q 1176 169 1203 220 q 1101 81 1148 119 q 991 22 1054 43 q 856 0 928 0 l 79 0 l 79 139 l 856 139 q 937 150 899 139 q 1003 180 975 161 q 1047 224 1031 199 q 1064 278 1064 250 l 1064 347 l 427 347 q 291 374 355 347 q 181 449 228 401 q 106 559 134 496 q 79 694 79 623 l 79 972 l 218 972 l 218 694 q 235 613 218 651 q 279 547 251 575 q 345 503 307 519 q 427 486 383 486 l 1064 486 l 1064 972 l 1203 972 l 1203 278 z "},"Z":{"ha":1239,"x_min":58,"x_max":1182,"o":"m 1182 833 l 289 139 l 1182 139 l 1182 0 l 58 0 l 58 139 l 957 833 l 58 833 l 58 972 l 1182 972 l 1182 833 z "},"[":{"ha":493,"x_min":106,"x_max":453,"o":"m 453 1039 l 244 1039 l 244 -35 l 453 -35 l 453 -174 l 175 -174 q 126 -154 146 -174 q 106 -104 106 -134 l 106 1108 q 126 1158 106 1138 q 175 1178 146 1178 l 453 1178 l 453 1039 z "},"\\":{"ha":745,"x_min":36,"x_max":705,"o":"m 705 0 l 547 0 l 36 972 l 195 972 l 705 0 z "},"a":{"ha":1064,"x_min":32,"x_max":970,"o":"m 970 0 l 275 0 q 180 19 224 0 q 103 71 136 38 q 51 148 70 104 q 32 243 32 193 q 51 338 32 294 q 103 415 70 382 q 180 467 136 448 q 275 486 224 486 l 761 486 l 761 347 l 275 347 q 235 339 254 347 q 201 316 216 330 q 179 283 187 302 q 171 243 171 264 q 179 202 171 221 q 201 170 187 184 q 235 147 216 155 q 275 139 254 139 l 831 139 l 831 521 q 822 561 831 542 q 800 594 814 580 q 766 617 785 608 q 726 625 747 625 l 171 625 l 171 764 l 726 764 q 821 745 777 764 q 899 693 865 726 q 951 616 932 660 q 970 521 970 572 l 970 0 z "},"b":{"ha":1051,"x_min":100,"x_max":1000,"o":"m 1000 382 q 970 234 1000 303 q 889 113 941 165 q 768 31 838 61 q 621 0 699 1 l 100 0 l 100 1042 l 239 1042 l 239 139 l 621 139 q 714 158 671 139 q 791 211 758 178 q 842 288 823 243 q 861 382 861 332 q 842 476 861 432 q 791 553 823 520 q 714 605 758 586 q 621 625 671 625 l 309 625 l 309 764 l 621 764 q 768 733 699 764 q 889 651 838 703 q 970 530 941 600 q 1000 382 1000 460 z "},"c":{"ha":937,"x_min":52,"x_max":885,"o":"m 885 0 l 431 0 q 283 31 352 1 q 162 113 214 61 q 81 234 111 165 q 52 382 52 303 q 81 530 52 460 q 162 651 111 600 q 283 733 214 703 q 431 764 352 764 l 885 764 l 885 625 l 431 625 q 337 605 380 625 q 260 553 293 586 q 209 476 228 520 q 191 382 191 432 q 209 288 191 332 q 260 211 228 243 q 337 158 293 178 q 431 139 380 139 l 885 139 l 885 0 z "},"d":{"ha":1051,"x_min":52,"x_max":951,"o":"m 951 0 l 812 0 l 812 625 l 431 625 q 337 606 380 625 q 260 554 293 587 q 209 476 228 521 q 191 382 191 432 q 209 288 191 332 q 260 211 228 244 q 337 159 293 178 q 431 139 380 140 l 743 139 l 743 0 l 431 0 q 283 30 352 0 q 162 112 214 60 q 81 234 111 164 q 52 382 52 303 q 81 530 52 460 q 162 651 111 599 q 283 733 214 703 q 431 764 352 763 l 812 764 l 812 1042 l 951 1042 l 951 0 z "},"e":{"ha":1025,"x_min":52,"x_max":989,"o":"m 989 521 q 970 426 989 470 q 918 349 951 382 q 841 297 885 316 q 746 278 796 278 l 214 278 q 251 222 229 248 q 301 178 273 196 q 362 149 329 159 q 431 139 395 139 l 885 139 l 885 0 l 431 0 q 283 31 352 1 q 162 113 214 61 q 81 234 111 165 q 52 382 52 303 q 81 530 52 460 q 162 651 111 599 q 283 733 214 703 q 431 764 352 763 l 746 764 q 841 745 796 764 q 918 693 885 726 q 970 616 951 660 q 989 521 989 572 m 746 416 q 786 425 767 416 q 819 447 805 433 q 842 480 833 461 q 850 521 850 499 q 842 561 850 542 q 819 594 833 580 q 786 617 805 608 q 746 625 767 625 l 431 625 q 344 609 385 625 q 272 565 304 593 q 220 498 241 536 q 193 416 199 460 l 746 416 z "},"f":{"ha":886,"x_min":100,"x_max":864,"o":"m 864 903 l 479 903 q 386 883 429 902 q 309 830 342 863 q 258 753 277 798 q 239 660 239 709 l 239 0 l 100 0 l 100 694 q 131 831 100 768 q 215 941 163 895 q 336 1014 268 987 q 479 1042 405 1041 l 864 1042 l 864 903 m 864 555 l 309 555 l 309 694 l 864 694 l 864 555 z "},"g":{"ha":1051,"x_min":52,"x_max":951,"o":"m 951 -35 q 932 -130 951 -85 q 880 -207 913 -174 q 803 -259 847 -240 q 708 -278 758 -278 l 153 -278 l 153 -139 l 708 -139 q 748 -131 729 -139 q 781 -109 767 -123 q 804 -75 795 -94 q 812 -35 812 -56 l 812 625 l 431 625 q 337 605 380 625 q 260 553 293 586 q 209 476 228 520 q 191 382 191 432 q 209 288 191 332 q 260 211 228 244 q 337 159 293 178 q 431 139 380 140 l 743 139 l 743 0 l 431 0 q 283 31 352 1 q 162 113 214 61 q 81 234 111 165 q 52 382 52 303 q 81 530 52 460 q 162 651 111 599 q 283 733 214 703 q 431 764 352 763 l 951 764 l 951 -35 z "},"h":{"ha":1088,"x_min":100,"x_max":1000,"o":"m 1000 0 l 861 0 l 861 382 q 842 476 861 432 q 791 553 823 520 q 714 605 758 586 q 621 625 671 625 l 239 625 l 239 0 l 100 0 l 100 1042 l 239 1042 l 239 764 l 621 764 q 768 733 699 764 q 889 651 838 703 q 970 530 941 600 q 1000 382 1000 460 l 1000 0 z "},"i":{"ha":339,"x_min":65,"x_max":273,"o":"m 273 937 q 265 897 273 916 q 243 864 257 878 q 210 842 229 850 q 170 833 191 833 q 129 842 148 833 q 96 864 110 850 q 73 897 81 878 q 65 937 65 916 q 73 977 65 958 q 96 1010 81 996 q 129 1033 110 1025 q 170 1042 148 1042 q 210 1033 191 1042 q 243 1010 229 1025 q 265 977 257 996 q 273 937 273 958 m 239 0 l 100 0 l 100 764 l 239 764 l 239 0 z "},"j":{"ha":339,"x_min":-317,"x_max":273,"o":"m 239 -35 q 220 -130 239 -85 q 168 -207 201 -174 q 91 -259 135 -240 q -4 -278 47 -278 l -317 -278 l -317 -139 l -4 -139 q 36 -131 17 -139 q 69 -109 55 -123 q 92 -75 83 -94 q 100 -35 100 -56 l 100 764 l 239 764 l 239 -35 m 273 937 q 265 897 273 916 q 243 864 257 878 q 210 842 229 850 q 170 833 191 833 q 129 842 148 833 q 96 864 110 850 q 73 897 81 878 q 65 937 65 916 q 73 977 65 958 q 96 1010 81 996 q 129 1033 110 1025 q 170 1042 148 1042 q 210 1033 191 1042 q 243 1010 229 1025 q 265 977 257 996 q 273 937 273 958 z "},"k":{"ha":987,"x_min":100,"x_max":1004,"o":"m 1004 0 l 806 0 l 400 326 l 239 195 l 239 0 l 100 0 l 100 1042 l 239 1042 l 239 342 l 745 764 l 933 764 l 501 410 l 1004 0 z "},"l":{"ha":393,"x_min":94,"x_max":372,"o":"m 372 0 l 338 0 q 243 19 287 0 q 165 71 199 38 q 113 148 132 104 q 94 243 94 193 l 94 1042 l 233 1042 l 233 243 q 241 202 233 221 q 264 170 250 184 q 297 147 278 155 q 338 139 316 139 l 372 139 l 372 0 z "},"m":{"ha":1299,"x_min":100,"x_max":1211,"o":"m 239 0 l 100 0 l 100 764 l 832 764 q 980 733 911 764 q 1100 651 1049 703 q 1181 530 1152 600 q 1211 382 1211 460 l 1211 0 l 1072 0 l 1072 382 q 1053 476 1072 432 q 1002 553 1034 520 q 925 605 969 586 q 832 625 882 625 l 725 625 l 725 0 l 586 0 l 586 625 l 239 625 l 239 0 z "},"n":{"ha":1088,"x_min":100,"x_max":1000,"o":"m 239 0 l 100 0 l 100 764 l 621 764 q 768 733 699 764 q 889 651 838 703 q 970 530 941 600 q 1000 382 1000 460 l 1000 0 l 861 0 l 861 382 q 842 476 861 432 q 791 553 823 520 q 714 605 758 586 q 621 625 671 625 l 239 625 l 239 0 z "},"o":{"ha":1075,"x_min":52,"x_max":1023,"o":"m 1023 382 q 994 234 1023 303 q 912 113 964 165 q 792 31 861 61 q 644 0 723 1 l 431 0 q 283 31 352 1 q 162 113 214 61 q 81 234 111 165 q 52 382 52 303 q 81 530 52 460 q 162 651 111 600 q 283 733 214 703 q 431 764 352 764 l 644 764 q 745 750 696 764 q 836 711 794 736 q 913 651 878 686 q 972 574 947 616 q 1010 483 996 532 q 1023 382 1023 434 m 885 382 q 866 476 885 432 q 814 553 847 520 q 738 605 782 586 q 644 625 694 625 l 431 625 q 337 605 380 625 q 260 553 293 586 q 209 476 228 520 q 191 382 191 432 q 209 288 191 332 q 260 211 228 243 q 337 158 293 178 q 431 139 380 139 l 644 139 q 738 158 694 139 q 814 211 782 178 q 866 288 847 243 q 885 382 885 332 z "},"p":{"ha":1051,"x_min":100,"x_max":1000,"o":"m 1000 382 q 970 234 1000 303 q 889 112 941 164 q 768 30 838 60 q 621 0 699 0 l 309 0 l 309 139 l 621 139 q 714 159 671 140 q 791 211 758 178 q 842 288 823 244 q 861 382 861 332 q 842 476 861 432 q 791 554 823 521 q 714 606 758 587 q 621 625 671 625 l 239 625 l 239 -278 l 100 -278 l 100 764 l 621 764 q 768 733 699 763 q 889 651 838 703 q 970 530 941 599 q 1000 382 1000 460 z "},"q":{"ha":1051,"x_min":52,"x_max":951,"o":"m 951 -278 l 812 -278 l 812 625 l 431 625 q 337 606 380 625 q 260 554 293 587 q 209 476 228 521 q 191 382 191 432 q 209 288 191 332 q 260 211 228 244 q 337 159 293 178 q 431 139 380 140 l 743 139 l 743 0 l 431 0 q 283 30 352 0 q 162 112 214 60 q 81 234 111 164 q 52 382 52 303 q 81 530 52 460 q 162 651 111 599 q 283 733 214 703 q 431 764 352 763 l 951 764 l 951 -278 z "},"r":{"ha":871,"x_min":94,"x_max":859,"o":"m 859 625 l 338 625 q 297 617 316 625 q 264 594 278 608 q 241 561 250 580 q 233 521 233 542 l 233 0 l 94 0 l 94 521 q 113 616 94 572 q 165 693 132 660 q 243 745 199 726 q 338 764 287 764 l 859 764 l 859 625 z "},"s":{"ha":940,"x_min":64,"x_max":897,"o":"m 897 243 q 878 148 897 193 q 826 71 859 104 q 749 19 793 38 q 654 0 705 0 l 64 0 l 64 139 l 654 139 q 694 147 675 139 q 728 170 713 155 q 750 202 742 184 q 758 243 758 221 q 750 283 758 264 q 728 316 742 302 q 694 339 713 330 q 654 347 675 347 l 272 347 q 191 363 229 347 q 124 408 153 380 q 80 474 96 436 q 64 555 64 512 q 80 637 64 599 q 124 703 96 675 q 191 747 153 731 q 272 764 229 764 l 828 764 l 828 625 l 272 625 q 223 605 243 625 q 203 555 203 585 q 223 506 203 526 q 272 486 243 486 l 654 486 q 749 467 705 486 q 826 415 793 448 q 878 338 859 382 q 897 243 897 294 z "},"t":{"ha":864,"x_min":21,"x_max":854,"o":"m 368 0 l 229 0 l 229 625 l 21 625 l 21 764 l 229 764 l 229 1042 l 368 1042 l 368 764 l 854 764 l 854 625 l 368 625 l 368 0 z "},"u":{"ha":1088,"x_min":87,"x_max":987,"o":"m 987 0 l 467 0 q 319 30 388 0 q 198 112 250 60 q 117 234 147 164 q 87 382 87 303 l 87 764 l 227 764 l 227 382 q 245 288 227 332 q 296 211 264 244 q 373 159 329 178 q 467 139 416 140 l 848 139 l 848 764 l 987 764 l 987 0 z "},"v":{"ha":1038,"x_min":20,"x_max":1019,"o":"m 1019 764 l 597 0 l 439 0 l 20 764 l 182 764 l 518 144 l 857 764 l 1019 764 z "},"w":{"ha":1318,"x_min":87,"x_max":1231,"o":"m 1231 382 q 1201 234 1231 303 q 1120 112 1171 164 q 999 30 1068 60 q 851 0 930 0 l 467 0 q 319 30 388 0 q 198 112 250 60 q 117 234 147 164 q 87 382 87 303 l 87 764 l 227 764 l 227 382 q 245 288 227 332 q 296 211 264 244 q 373 159 329 178 q 467 139 416 140 l 590 139 l 590 764 l 728 764 l 728 139 l 851 139 q 945 159 901 140 q 1021 211 989 178 q 1073 288 1054 244 q 1092 382 1092 332 l 1092 764 l 1231 764 l 1231 382 z "},"x":{"ha":1006,"x_min":9,"x_max":996,"o":"m 996 0 l 798 0 l 500 288 l 208 0 l 9 0 l 404 380 l 9 764 l 208 764 l 996 0 m 996 764 l 665 441 l 566 530 l 798 764 l 996 764 z "},"y":{"ha":1088,"x_min":87,"x_max":987,"o":"m 987 -35 q 968 -130 987 -85 q 917 -207 949 -174 q 839 -259 884 -240 q 745 -278 795 -278 l 189 -278 l 189 -139 l 745 -139 q 785 -131 766 -139 q 818 -109 804 -123 q 840 -75 832 -94 q 848 -35 848 -56 l 848 0 l 467 0 q 319 30 388 0 q 198 112 250 60 q 117 234 147 164 q 87 382 87 303 l 87 764 l 227 764 l 227 382 q 245 288 227 332 q 296 211 264 244 q 373 159 329 178 q 467 139 416 140 l 848 139 l 848 764 l 987 764 l 987 -35 z "},"z":{"ha":1019,"x_min":58,"x_max":961,"o":"m 961 625 l 292 139 l 961 139 l 961 0 l 58 0 l 58 139 l 726 625 l 58 625 l 58 764 l 961 764 l 961 625 z "},"{":{"ha":558,"x_min":-1,"x_max":519,"o":"m 519 1039 l 450 1039 q 401 1034 426 1039 q 358 1016 377 1028 q 326 985 338 1004 q 314 939 314 966 l 314 937 q 313 871 314 936 q 313 677 313 806 q 294 575 313 618 q 243 503 275 532 q 274 463 261 484 q 296 418 288 441 q 309 373 304 395 q 313 330 313 351 l 311 69 q 324 22 311 41 q 356 -10 336 3 q 400 -29 376 -23 q 447 -35 424 -35 l 517 -35 l 517 -174 l 447 -174 q 389 -168 420 -174 q 327 -150 357 -162 q 269 -119 296 -138 q 219 -73 241 -100 q 185 -10 198 -45 q 172 69 172 25 l 174 329 q 165 372 174 353 q 143 405 157 391 q 110 427 129 419 q 68 435 90 435 q 19 455 39 435 q -1 504 -1 475 q 4 531 -1 518 q 19 553 9 543 q 41 568 28 563 q 68 574 54 574 q 105 579 86 574 q 139 596 123 584 q 164 628 154 608 q 174 677 174 648 q 174 867 174 802 q 175 937 175 932 q 199 1040 175 995 q 261 1116 222 1085 q 349 1162 300 1146 q 450 1178 399 1178 l 519 1178 l 519 1039 z "},"|":{"ha":350,"x_min":106,"x_max":244,"o":"m 244 -174 l 106 -174 l 106 1181 l 244 1181 l 244 -174 z "},"†":{"ha":589,"x_min":52,"x_max":538,"o":"m 364 -174 l 225 -174 l 225 782 l 52 782 l 52 921 l 225 921 l 225 1181 l 364 1181 l 364 921 l 538 921 l 538 782 l 364 782 l 364 -174 z "},"¢":{"ha":753,"x_min":50,"x_max":672,"o":"m 672 210 l 476 210 l 476 0 l 347 0 l 347 210 l 315 210 q 210 233 258 210 q 125 297 161 257 q 70 388 90 336 q 50 497 50 440 q 73 608 50 555 q 134 699 95 660 q 224 761 172 738 q 335 783 276 783 l 347 783 l 347 972 l 476 972 l 476 783 l 672 783 l 672 647 l 335 647 q 277 635 304 647 q 230 603 250 623 q 198 554 210 582 q 186 496 186 527 q 198 438 186 465 q 230 390 210 410 q 277 358 250 370 q 335 346 304 346 l 672 346 l 672 210 z "},"£":{"ha":1168,"x_min":54,"x_max":1122,"o":"m 1122 0 l 193 0 l 193 416 l 54 416 l 54 555 l 193 555 l 193 625 q 224 762 193 699 q 308 871 256 825 q 429 945 361 918 q 572 972 498 972 l 888 972 l 888 833 l 572 833 q 478 813 522 833 q 402 761 435 794 q 351 684 370 728 q 332 590 332 640 l 332 555 l 749 555 l 749 416 l 332 416 l 332 139 l 1122 139 l 1122 0 z "},"§":{"ha":1260,"x_min":77,"x_max":1200,"o":"m 1200 139 q 1178 31 1200 82 q 1118 -57 1156 -20 q 1030 -117 1080 -95 q 922 -139 979 -139 l 77 -139 l 77 0 l 922 0 q 976 11 951 0 q 1021 41 1002 22 q 1050 85 1040 60 q 1061 139 1061 111 q 1050 193 1061 168 q 1021 237 1040 218 q 976 267 1002 256 q 922 278 951 278 l 354 278 q 247 300 297 278 q 158 360 196 322 q 99 448 121 397 q 77 555 77 498 q 86 628 77 593 q 114 694 96 663 q 86 760 96 725 q 77 833 77 795 q 99 941 77 890 q 158 1029 121 991 q 247 1089 196 1067 q 354 1111 297 1111 l 1131 1111 l 1131 972 l 354 972 q 300 961 326 972 q 256 931 275 950 q 226 887 237 913 q 215 833 215 862 q 226 780 215 805 q 256 735 237 754 q 300 705 275 716 q 354 694 326 694 l 922 694 q 1030 672 979 694 q 1118 613 1080 650 q 1178 525 1156 575 q 1200 416 1200 474 q 1190 344 1200 379 q 1162 278 1180 309 q 1190 212 1180 248 q 1200 139 1200 177 m 1061 416 q 1050 470 1061 445 q 1021 515 1040 496 q 976 545 1002 534 q 922 555 951 555 l 354 555 q 284 565 317 555 q 220 590 250 574 q 216 573 217 582 q 215 555 215 564 q 226 502 215 527 q 256 457 237 476 q 300 428 275 439 q 354 416 326 416 l 922 416 q 992 408 959 416 q 1055 382 1026 399 q 1060 399 1058 391 q 1061 416 1061 407 z "},"ß":{"ha":1242,"x_min":100,"x_max":1211,"o":"m 1211 243 q 1192 148 1211 193 q 1140 71 1173 104 q 1063 19 1107 38 q 968 0 1019 0 l 378 0 l 378 139 l 968 139 q 1008 147 989 139 q 1041 170 1027 155 q 1064 202 1055 184 q 1072 243 1072 221 q 1064 283 1072 264 q 1041 316 1055 302 q 1008 339 1027 330 q 968 347 989 347 l 586 347 q 505 363 543 347 q 438 408 467 380 q 394 474 410 436 q 378 555 378 512 q 394 637 378 599 q 438 703 410 675 q 505 747 467 731 q 586 764 543 764 l 656 764 q 705 784 685 764 q 725 833 725 804 q 705 883 725 863 q 656 903 685 903 l 479 903 q 386 883 429 902 q 309 830 342 863 q 258 753 277 798 q 239 660 239 709 l 239 0 l 100 0 l 100 694 q 114 788 100 743 q 154 871 128 832 q 215 941 180 909 q 293 995 250 972 q 382 1029 335 1017 q 479 1042 430 1042 l 656 1042 q 737 1025 699 1042 q 803 981 775 1009 q 848 915 831 953 q 864 833 864 877 q 848 752 864 790 q 803 686 831 714 q 737 642 775 658 q 656 625 699 625 l 586 625 q 537 605 557 625 q 517 555 517 585 q 537 506 517 526 q 586 486 557 486 l 968 486 q 1063 467 1019 486 q 1140 415 1107 448 q 1192 338 1173 382 q 1211 243 1211 294 z "},"®":{"ha":718,"x_min":78,"x_max":640,"o":"m 640 671 q 630 596 640 628 q 604 540 621 564 q 567 500 588 516 q 525 475 547 484 q 482 461 503 465 q 444 457 461 457 l 273 457 q 214 467 248 457 q 150 500 180 476 q 99 566 120 524 q 78 671 78 607 l 78 760 q 99 865 78 823 q 150 931 120 907 q 214 965 180 956 q 273 975 248 975 l 444 975 q 482 971 461 975 q 525 957 503 967 q 567 931 547 947 q 604 891 588 915 q 630 834 621 867 q 640 760 640 802 l 640 671 m 510 762 q 503 720 510 738 q 483 690 495 702 q 456 670 471 677 q 427 660 441 663 l 538 574 q 558 613 550 589 q 567 671 567 636 l 567 760 q 558 813 567 788 q 534 859 550 839 q 496 890 519 878 q 444 901 473 901 l 273 901 q 260 900 270 901 q 236 895 250 899 q 208 882 222 890 q 180 857 193 873 q 159 817 168 841 q 151 760 151 793 l 151 671 q 160 617 151 643 q 185 573 169 592 q 223 542 201 553 q 273 530 245 530 l 444 530 q 453 531 446 530 q 468 533 460 531 l 313 659 l 313 733 l 406 733 q 428 741 420 733 q 436 762 436 749 l 436 791 l 288 791 l 288 585 l 214 585 l 214 867 l 437 867 q 469 860 455 867 q 491 844 482 854 q 505 820 500 833 q 510 794 510 807 l 510 762 z "},"©":{"ha":754,"x_min":96,"x_max":659,"o":"m 659 460 q 637 355 659 396 q 585 289 616 313 q 521 255 555 264 q 463 245 488 245 l 292 245 q 232 255 266 245 q 168 289 199 264 q 117 355 138 313 q 96 460 96 396 l 96 549 q 117 654 96 612 q 168 720 138 695 q 232 754 199 744 q 292 764 266 764 l 463 764 q 500 760 479 764 q 543 746 521 755 q 586 720 565 736 q 623 680 606 704 q 649 624 639 656 q 659 549 659 591 l 659 460 m 585 549 q 576 606 585 583 q 555 646 568 630 q 528 671 543 662 q 499 684 513 680 q 475 689 486 688 q 463 690 465 690 l 292 690 q 278 689 288 690 q 254 684 268 688 q 226 671 241 680 q 198 646 211 662 q 178 606 186 630 q 170 549 170 583 l 170 460 q 178 402 170 426 q 198 363 186 378 q 226 338 211 347 q 254 326 241 330 q 278 320 268 321 q 292 319 288 319 l 463 319 q 476 320 465 319 q 500 326 486 321 q 528 338 513 330 q 556 363 543 347 q 576 402 568 378 q 585 460 585 426 l 585 549 m 493 358 l 367 358 q 323 365 347 358 q 280 387 300 372 q 248 426 260 401 q 235 485 235 450 l 235 529 q 242 575 235 552 q 266 615 250 597 q 307 645 282 633 q 366 656 332 656 l 493 656 l 493 581 l 366 581 q 335 575 347 581 q 317 562 323 570 q 309 545 311 554 q 307 529 307 536 l 307 485 q 315 456 307 466 q 333 440 323 446 q 353 434 343 435 q 367 433 363 433 l 493 433 l 493 358 z "},"¥":{"ha":1215,"x_min":46,"x_max":1169,"o":"m 1169 694 q 1142 559 1169 623 q 1068 449 1115 496 q 957 374 1021 401 q 822 347 894 347 l 676 347 l 676 278 l 882 278 l 882 139 l 676 139 l 676 0 l 538 0 l 538 139 l 326 139 l 326 278 l 538 278 l 538 347 l 393 347 q 258 374 321 347 q 148 449 195 401 q 73 559 100 496 q 46 694 46 623 l 46 972 l 184 972 l 184 694 q 201 613 184 651 q 245 547 217 575 q 312 503 274 519 q 393 486 350 486 l 822 486 q 903 503 865 486 q 969 547 941 519 q 1014 613 998 575 q 1031 694 1031 651 l 1031 972 l 1169 972 l 1169 694 z "},"µ":{"ha":1078,"x_min":103,"x_max":1003,"o":"m 1003 0 l 482 0 q 352 23 412 0 q 241 86 291 45 l 241 -278 l 103 -278 l 103 764 l 241 764 l 241 382 q 260 288 241 332 q 312 211 279 244 q 388 159 345 178 q 482 139 432 140 l 864 139 l 864 764 l 1003 764 l 1003 0 z "},"∂":{"ha":1146,"x_min":52,"x_max":1093,"o":"m 1093 382 q 1063 234 1093 303 q 982 113 1034 165 q 862 31 931 61 q 714 0 793 1 l 431 0 q 283 31 352 1 q 162 113 214 61 q 81 234 111 165 q 52 382 52 303 q 81 530 52 460 q 162 651 111 600 q 283 733 214 703 q 431 764 352 764 l 714 764 q 793 755 753 764 l 607 1111 l 765 1111 l 1032 589 q 1077 492 1061 544 q 1093 382 1093 439 m 954 382 q 935 476 954 432 q 884 553 916 520 q 807 605 851 586 q 714 625 764 625 l 431 625 q 337 605 380 625 q 260 553 293 586 q 209 476 228 520 q 191 382 191 432 q 209 288 191 332 q 260 211 228 243 q 337 158 293 178 q 431 139 380 139 l 714 139 q 807 158 764 139 q 884 211 851 178 q 935 288 916 243 q 954 382 954 332 z "},"ƒ":{"ha":960,"x_min":-174,"x_max":937,"o":"m 937 903 l 553 903 q 459 883 503 902 q 382 830 415 863 q 331 753 350 798 q 313 660 313 709 l 313 69 l 311 69 q 280 -67 311 -4 q 197 -177 249 -130 q 76 -251 144 -224 q -66 -278 8 -277 l -174 -278 l -174 -139 l -66 -139 q 27 -119 -17 -138 q 103 -67 71 -100 q 155 10 136 -34 q 174 104 174 54 l 174 694 q 205 831 174 768 q 289 941 236 895 q 410 1014 341 987 q 553 1042 478 1041 l 937 1042 l 937 903 m 799 555 l 382 555 l 382 694 l 799 694 l 799 555 z "},"÷":{"ha":892,"x_min":64,"x_max":828,"o":"m 550 729 q 542 689 550 707 q 519 656 533 670 q 486 633 505 642 q 446 625 467 625 q 405 633 424 625 q 372 656 387 642 q 350 689 358 670 q 342 729 342 707 q 350 769 342 750 q 372 802 358 788 q 405 825 387 817 q 446 833 424 833 q 486 825 467 833 q 519 802 505 817 q 542 769 533 788 q 550 729 550 750 m 828 416 l 64 416 l 64 555 l 828 555 l 828 416 m 550 243 q 542 202 550 221 q 519 170 533 184 q 486 147 505 155 q 446 139 467 139 q 405 147 424 139 q 372 170 387 155 q 350 202 358 184 q 342 243 342 221 q 350 283 342 264 q 372 316 358 302 q 405 339 387 330 q 446 347 424 347 q 486 339 467 347 q 519 316 505 330 q 542 283 533 302 q 550 243 550 264 z "},"‹":{"ha":607,"x_min":56,"x_max":547,"o":"m 547 677 l 203 370 l 545 69 l 361 69 l 79 317 q 62 340 68 326 q 56 368 56 353 q 62 396 56 382 q 79 421 68 410 l 367 677 l 547 677 z "},"‡":{"ha":608,"x_min":61,"x_max":547,"o":"m 547 87 l 374 87 l 374 -174 l 235 -174 l 235 87 l 61 87 l 61 227 l 235 227 l 235 782 l 61 782 l 61 921 l 235 921 l 235 1181 l 374 1181 l 374 921 l 547 921 l 547 782 l 374 782 l 374 227 l 547 227 l 547 87 z "},"]":{"ha":493,"x_min":40,"x_max":387,"o":"m 40 1178 l 318 1178 q 367 1158 347 1178 q 387 1108 387 1138 l 387 -104 q 367 -154 387 -134 q 318 -174 347 -174 l 40 -174 l 40 -35 l 249 -35 l 249 1039 l 40 1039 l 40 1178 z "},"}":{"ha":558,"x_min":39,"x_max":559,"o":"m 39 1178 l 109 1178 q 209 1162 160 1178 q 297 1116 258 1146 q 359 1040 336 1085 q 383 937 383 995 q 384 867 383 932 q 385 677 385 802 q 394 628 385 648 q 419 596 404 608 q 453 579 434 584 q 490 574 472 574 q 517 568 505 574 q 539 553 530 563 q 554 531 549 543 q 559 504 559 518 q 539 455 559 475 q 490 435 519 435 q 449 427 468 435 q 415 405 429 419 q 393 372 401 391 q 385 329 385 353 l 386 69 q 358 -44 386 3 q 290 -119 331 -90 q 200 -161 248 -148 q 111 -174 153 -174 l 41 -174 l 41 -35 l 111 -35 q 158 -29 134 -35 q 202 -10 182 -23 q 235 22 222 3 q 248 69 248 41 l 245 330 q 250 373 245 351 q 262 418 254 395 q 284 463 271 441 q 315 503 297 484 q 264 575 283 532 q 245 677 245 618 q 245 871 245 806 q 244 937 244 936 l 244 939 q 232 985 244 966 q 200 1016 220 1004 q 157 1034 181 1028 q 109 1039 133 1039 l 39 1039 l 39 1178 z "},")":{"ha":453,"x_min":0,"x_max":400,"o":"m 29 -143 q 47 -122 30 -142 q 90 -63 64 -102 q 146 32 116 -24 q 202 159 176 87 q 244 317 227 231 q 261 504 261 404 q 244 679 261 595 q 201 834 227 762 q 145 964 176 906 q 89 1064 115 1023 q 45 1129 63 1106 q 26 1153 27 1152 l 4 1181 l 179 1181 q 222 1114 198 1153 q 271 1026 246 1075 q 318 918 295 977 q 360 794 342 860 q 389 655 378 728 q 400 504 400 583 q 377 273 400 379 q 321 81 355 167 q 251 -69 288 -5 q 183 -174 213 -133 l 0 -174 l 29 -143 z "},">":{"ha":713,"x_min":74,"x_max":663,"o":"m 254 861 l 639 518 q 663 465 663 496 q 656 437 663 450 q 639 414 650 423 l 257 81 l 75 81 l 515 467 l 74 861 l 254 861 z "},"›":{"ha":607,"x_min":60,"x_max":551,"o":"m 240 677 l 528 421 q 545 396 539 410 q 551 368 551 382 q 545 340 551 353 q 528 317 539 326 l 245 69 l 62 69 l 404 370 l 60 677 l 240 677 z "},".":{"ha":361,"x_min":77,"x_max":285,"o":"m 285 104 q 276 64 285 83 q 254 31 268 45 q 220 8 239 16 q 180 0 201 0 q 140 8 159 0 q 107 31 121 16 q 85 64 93 45 q 77 104 77 83 q 85 144 77 125 q 107 178 93 163 q 140 200 121 192 q 180 208 159 208 q 220 200 201 208 q 254 178 239 192 q 276 144 268 163 q 285 104 285 125 z "},",":{"ha":366,"x_min":78,"x_max":286,"o":"m 286 100 q 276 34 285 65 q 256 -21 267 3 q 228 -74 243 -49 l 139 -72 q 149 -53 144 -64 q 157 -30 153 -43 q 167 0 162 -17 q 132 12 148 3 q 103 35 115 21 q 85 67 92 49 q 78 104 78 85 q 86 144 78 125 q 109 178 94 163 q 141 200 123 192 q 182 208 160 208 q 222 200 203 208 q 255 177 241 192 q 278 143 269 163 q 286 100 286 123 z "},"‚":{"ha":366,"x_min":78,"x_max":286,"o":"m 286 100 q 276 34 285 65 q 256 -21 267 3 q 228 -74 243 -49 l 139 -72 q 149 -53 144 -64 q 157 -30 153 -43 q 167 0 162 -17 q 132 12 148 3 q 103 35 115 21 q 85 67 92 49 q 78 104 78 85 q 86 144 78 125 q 109 178 94 163 q 141 200 123 192 q 182 208 160 208 q 222 200 203 208 q 255 177 241 192 q 278 143 269 163 q 286 100 286 123 z "},"„":{"ha":629,"x_min":78,"x_max":550,"o":"m 286 100 q 276 34 285 65 q 256 -21 267 3 q 228 -74 243 -49 l 139 -72 q 149 -53 144 -64 q 157 -30 153 -43 q 167 0 162 -17 q 132 12 148 3 q 103 35 115 21 q 85 67 92 49 q 78 104 78 85 q 86 144 78 125 q 109 178 94 163 q 141 200 123 192 q 182 208 160 208 q 222 200 203 208 q 255 177 241 192 q 278 143 269 163 q 286 100 286 123 m 550 100 q 539 34 549 65 q 519 -21 530 3 q 492 -74 507 -49 l 403 -72 q 412 -53 408 -64 q 421 -30 416 -43 q 431 0 426 -17 q 395 12 412 3 q 367 35 379 21 q 349 67 355 49 q 342 104 342 85 q 350 144 342 125 q 372 178 358 163 q 405 200 387 192 q 446 208 424 208 q 486 200 467 208 q 519 177 505 192 q 542 143 533 163 q 550 100 550 123 z "},"’":{"ha":349,"x_min":68,"x_max":277,"o":"m 277 865 q 266 800 275 831 q 246 745 257 768 q 218 692 234 717 l 129 693 q 138 713 134 702 q 148 735 142 722 q 157 765 153 748 q 122 777 138 768 q 94 800 106 786 q 75 832 81 814 q 68 869 68 850 q 76 909 68 890 q 98 943 84 928 q 132 965 113 957 q 172 974 151 974 q 212 965 193 974 q 245 942 231 957 q 268 908 260 928 q 277 865 277 888 z "},"”":{"ha":612,"x_min":68,"x_max":541,"o":"m 277 865 q 266 800 275 831 q 246 745 257 768 q 218 692 234 717 l 129 693 q 138 713 134 702 q 148 735 142 722 q 157 765 153 748 q 122 777 138 768 q 94 800 106 786 q 75 832 81 814 q 68 869 68 850 q 76 909 68 890 q 98 943 84 928 q 132 965 113 957 q 172 974 151 974 q 212 965 193 974 q 245 942 231 957 q 268 908 260 928 q 277 865 277 888 m 541 865 q 530 800 539 831 q 510 745 521 768 q 482 692 498 717 l 393 693 q 403 713 398 702 q 412 735 407 722 q 421 765 416 748 q 386 777 402 768 q 357 800 370 786 q 338 832 345 814 q 332 869 332 850 q 340 909 332 890 q 362 943 348 928 q 395 965 376 957 q 436 974 414 974 q 476 965 457 974 q 509 942 495 957 q 532 908 524 928 q 541 865 541 888 z "},"“":{"ha":615,"x_min":74,"x_max":546,"o":"m 338 800 q 348 866 338 834 q 368 921 357 897 q 396 974 380 949 l 485 972 q 475 953 479 964 q 465 930 470 943 q 456 899 460 916 q 491 887 474 896 q 519 864 507 878 q 539 833 532 850 q 546 796 546 815 q 537 755 546 774 q 515 722 529 736 q 481 700 500 708 q 441 692 463 692 q 401 700 420 692 q 368 723 382 709 q 346 758 354 738 q 338 800 338 777 m 74 800 q 84 866 75 834 q 104 921 93 897 q 132 974 116 949 l 221 972 q 211 953 216 964 q 201 930 206 943 q 192 899 197 916 q 227 887 210 896 q 256 864 243 878 q 275 833 268 850 q 282 796 282 815 q 274 755 282 774 q 251 722 265 736 q 218 700 237 708 q 178 692 199 692 q 137 700 156 692 q 104 723 119 709 q 82 758 90 738 q 74 800 74 777 z "},"‘":{"ha":351,"x_min":74,"x_max":282,"o":"m 74 800 q 84 866 75 834 q 104 921 93 897 q 132 974 116 949 l 221 972 q 211 953 216 964 q 201 930 206 943 q 192 899 197 916 q 227 887 210 896 q 256 864 243 878 q 275 833 268 850 q 282 796 282 815 q 274 755 282 774 q 251 722 265 736 q 218 700 237 708 q 178 692 199 692 q 137 700 156 692 q 104 723 119 709 q 82 758 90 738 q 74 800 74 777 z "},"_":{"ha":930,"x_min":83,"x_max":847,"o":"m 847 -261 l 83 -261 l 83 -122 l 847 -122 l 847 -261 z "},"–":{"ha":733,"x_min":89,"x_max":644,"o":"m 644 416 l 89 416 l 89 555 l 644 555 l 644 416 z "},"—":{"ha":1289,"x_min":89,"x_max":1200,"o":"m 1200 416 l 89 416 l 89 555 l 1200 555 l 1200 416 z "},"~":{"ha":918,"x_min":94,"x_max":827,"o":"m 827 446 q 792 419 812 431 q 749 398 772 407 q 699 383 726 389 q 646 378 673 378 q 556 389 604 378 q 458 415 508 401 q 360 440 409 429 q 268 452 311 452 q 219 445 244 452 q 171 427 194 438 q 127 402 147 416 q 94 375 107 389 l 94 518 q 130 545 109 532 q 175 567 151 558 q 225 582 199 576 q 273 587 250 587 q 363 576 315 587 q 461 550 412 564 q 561 524 511 536 q 653 513 610 513 q 701 519 676 513 q 750 537 726 526 q 793 562 773 549 q 827 590 813 576 l 827 446 z "},"≈":{"ha":918,"x_min":94,"x_max":827,"o":"m 827 307 q 792 280 812 293 q 749 259 772 268 q 699 244 726 250 q 646 239 673 239 q 556 250 604 239 q 458 276 508 262 q 360 301 409 290 q 268 313 311 313 q 219 306 244 313 q 171 288 194 299 q 127 263 147 277 q 94 236 107 250 l 94 379 q 130 406 109 393 q 175 429 151 419 q 225 444 199 438 q 273 449 250 449 q 363 437 315 449 q 461 411 412 425 q 561 386 511 397 q 653 374 610 374 q 701 380 676 374 q 750 398 726 387 q 793 424 773 410 q 827 452 813 437 l 827 307 m 827 585 q 792 558 812 570 q 749 537 772 546 q 699 522 726 528 q 646 517 673 517 q 556 528 604 517 q 458 553 508 540 q 360 578 409 567 q 268 590 311 590 q 219 583 244 590 q 171 566 194 576 q 127 541 147 555 q 94 514 107 528 l 94 657 q 130 684 109 671 q 175 706 151 697 q 225 721 199 715 q 273 726 250 726 q 363 715 315 726 q 461 689 412 703 q 561 663 511 675 q 653 652 610 652 q 701 659 676 652 q 750 676 726 665 q 793 701 773 688 q 827 729 813 715 l 827 585 z "},"^":{"ha":717,"x_min":56,"x_max":664,"o":"m 576 517 l 355 764 l 139 518 l 56 606 l 302 888 q 326 905 312 899 q 354 911 340 911 q 383 905 369 911 q 407 888 397 899 l 664 600 l 576 517 z "},":":{"ha":386,"x_min":89,"x_max":297,"o":"m 297 104 q 289 64 297 83 q 267 31 281 45 q 233 8 252 16 q 193 0 214 0 q 153 8 172 0 q 119 31 134 16 q 97 64 105 45 q 89 104 89 83 q 97 144 89 125 q 119 178 105 163 q 153 200 134 192 q 193 208 172 208 q 233 200 214 208 q 267 178 252 192 q 289 144 281 163 q 297 104 297 125 m 297 661 q 289 621 297 640 q 267 587 281 602 q 233 565 252 573 q 193 557 214 557 q 153 565 172 557 q 119 587 134 573 q 97 621 105 602 q 89 661 89 640 q 97 701 89 682 q 119 734 105 720 q 153 757 134 749 q 193 765 172 765 q 233 757 214 765 q 267 734 252 749 q 289 701 281 720 q 297 661 297 682 z "},";":{"ha":387,"x_min":89,"x_max":297,"o":"m 297 100 q 287 34 296 65 q 267 -21 277 3 q 239 -74 254 -49 l 150 -72 q 159 -53 155 -64 q 169 -30 163 -43 q 178 0 174 -17 q 142 12 159 3 q 114 35 126 21 q 96 67 102 49 q 89 104 89 85 q 97 144 89 125 q 119 178 105 163 q 153 200 134 192 q 193 208 172 208 q 233 200 214 208 q 267 177 252 192 q 289 143 281 163 q 297 100 297 123 m 297 661 q 289 621 297 640 q 267 587 281 602 q 233 565 252 573 q 193 557 214 557 q 153 565 172 557 q 119 587 134 573 q 97 621 105 602 q 89 661 89 640 q 97 701 89 682 q 119 734 105 720 q 153 757 134 749 q 193 765 172 765 q 233 757 214 765 q 267 734 252 749 q 289 701 281 720 q 297 661 297 682 z "},"\"":{"ha":496,"x_min":82,"x_max":415,"o":"m 193 632 l 109 632 l 82 974 l 221 974 l 193 632 m 387 632 l 302 632 l 277 974 l 415 974 l 387 632 z "},"'":{"ha":301,"x_min":82,"x_max":221,"o":"m 193 632 l 109 632 l 82 974 l 221 974 l 193 632 z "},"∫":{"ha":840,"x_min":11,"x_max":832,"o":"m 832 903 l 737 903 q 643 883 687 902 q 567 830 600 863 q 516 753 534 798 q 497 660 497 709 l 497 69 l 496 69 q 481 -20 496 23 q 442 -102 467 -64 q 381 -173 416 -141 q 304 -229 347 -205 q 215 -265 262 -252 q 118 -278 168 -278 l 11 -278 l 11 -139 l 118 -139 q 212 -119 168 -138 q 288 -67 256 -100 q 339 10 321 -34 q 358 104 358 54 l 358 694 q 372 788 358 743 q 412 871 387 833 q 473 941 438 909 q 551 995 509 972 q 640 1029 593 1017 q 737 1042 688 1041 l 832 1042 l 832 903 z "},"•":{"ha":498,"x_min":114,"x_max":386,"o":"m 386 494 q 375 441 386 466 q 346 397 364 416 q 302 369 327 379 q 250 358 277 358 q 197 369 222 358 q 153 397 172 379 q 124 441 135 416 q 114 494 114 466 q 124 546 114 522 q 153 589 135 570 q 197 618 172 608 q 250 629 222 629 q 302 618 277 629 q 346 589 327 608 q 375 546 364 570 q 386 494 386 522 z "},"·":{"ha":383,"x_min":87,"x_max":296,"o":"m 296 494 q 288 454 296 473 q 265 420 279 435 q 232 398 251 406 q 192 390 213 390 q 151 398 170 390 q 118 420 132 406 q 96 454 104 435 q 87 494 87 473 q 96 534 87 515 q 118 568 104 553 q 151 590 132 582 q 192 599 170 599 q 232 590 213 599 q 265 568 251 582 q 288 534 279 553 q 296 494 296 515 z "},"«":{"ha":926,"x_min":56,"x_max":867,"o":"m 547 677 l 203 370 l 545 69 l 361 69 l 79 317 q 62 340 68 326 q 56 368 56 353 q 62 396 56 382 q 79 421 68 410 l 367 677 l 547 677 m 867 677 l 522 370 l 864 69 l 681 69 l 399 317 q 381 340 387 326 q 375 368 375 353 q 381 396 375 382 q 399 421 387 410 l 686 677 l 867 677 z "},"»":{"ha":926,"x_min":60,"x_max":871,"o":"m 559 677 l 847 421 q 865 396 859 410 q 871 368 871 382 q 865 340 871 353 q 847 317 859 326 l 566 69 l 382 69 l 724 370 l 379 677 l 559 677 m 240 677 l 528 421 q 545 396 539 410 q 551 368 551 382 q 545 340 551 353 q 528 317 539 326 l 245 69 l 62 69 l 404 370 l 60 677 l 240 677 z "},"¡":{"ha":364,"x_min":78,"x_max":286,"o":"m 103 0 l 132 711 l 232 711 l 261 0 l 103 0 m 78 868 q 86 908 78 889 q 109 941 94 927 q 141 964 123 956 q 182 972 160 972 q 222 964 203 972 q 255 941 241 956 q 278 908 269 927 q 286 868 286 889 q 278 827 286 846 q 255 794 269 808 q 222 772 241 780 q 182 764 203 764 q 141 772 160 764 q 109 794 123 780 q 86 827 94 808 q 78 868 78 846 z "},"¿":{"ha":1108,"x_min":54,"x_max":1061,"o":"m 54 313 q 79 434 54 377 q 146 533 104 491 q 245 601 189 576 q 367 625 302 625 l 541 625 q 565 635 555 625 q 575 660 575 645 l 575 711 l 714 711 l 714 660 q 701 592 714 624 q 663 537 687 560 q 608 500 640 513 q 541 486 576 486 l 367 486 q 299 473 331 486 q 244 435 267 459 q 207 380 220 412 q 193 313 193 349 q 207 245 193 277 q 244 190 220 213 q 299 153 267 166 q 367 139 331 139 l 1061 139 l 1061 0 l 367 0 q 245 25 302 0 q 146 92 189 50 q 79 191 104 134 q 54 313 54 248 m 541 868 q 549 908 541 889 q 571 941 557 927 q 604 964 585 956 q 644 972 623 972 q 685 964 666 972 q 718 941 704 956 q 741 908 732 927 q 749 868 749 889 q 741 827 749 846 q 718 794 732 808 q 685 772 704 780 q 644 764 666 764 q 604 772 623 764 q 571 794 585 780 q 549 827 557 808 q 541 868 541 846 z "},"‰":{"ha":1655,"x_min":49,"x_max":1607,"o":"m 1095 261 q 1077 171 1095 213 q 1027 97 1059 129 q 954 47 996 66 q 864 29 911 29 q 774 47 816 29 q 700 97 732 66 q 650 171 669 129 q 632 261 632 213 q 650 350 632 309 q 700 424 669 392 q 774 473 732 455 q 864 492 816 492 q 954 473 911 492 q 1027 424 996 455 q 1077 350 1059 392 q 1095 261 1095 309 m 905 914 l 374 41 l 240 41 l 772 914 l 905 914 m 511 694 q 493 604 511 646 q 444 531 475 562 q 370 481 412 499 q 281 463 328 463 q 191 481 233 463 q 117 531 149 499 q 67 604 85 562 q 49 694 49 646 q 67 784 49 742 q 117 858 85 827 q 191 908 149 890 q 281 926 233 926 q 370 908 328 926 q 444 858 412 890 q 493 784 475 827 q 511 694 511 742 m 979 261 q 970 305 979 284 q 945 342 961 326 q 909 367 930 358 q 864 376 888 376 q 819 367 840 376 q 782 342 798 358 q 756 305 766 326 q 747 261 747 284 q 756 216 747 237 q 782 179 766 195 q 819 154 798 163 q 864 144 840 144 q 909 154 888 144 q 945 179 930 163 q 970 216 961 195 q 979 261 979 237 m 396 694 q 387 739 396 718 q 362 776 378 760 q 326 801 347 791 q 281 810 304 810 q 235 801 256 810 q 198 776 214 791 q 173 739 182 760 q 164 694 164 718 q 173 650 164 671 q 198 613 182 629 q 235 588 214 597 q 281 579 256 579 q 326 588 304 579 q 362 613 347 597 q 387 650 378 629 q 396 694 396 671 m 1607 261 q 1589 171 1607 213 q 1540 97 1571 129 q 1466 47 1508 66 q 1377 29 1424 29 q 1286 47 1329 29 q 1213 97 1244 66 q 1163 171 1181 129 q 1145 261 1145 213 q 1163 350 1145 309 q 1213 424 1181 392 q 1286 473 1244 455 q 1377 492 1329 492 q 1466 473 1424 492 q 1540 424 1508 455 q 1589 350 1571 392 q 1607 261 1607 309 m 1492 261 q 1483 305 1492 284 q 1458 342 1474 326 q 1421 367 1442 358 q 1377 376 1400 376 q 1331 367 1352 376 q 1294 342 1310 358 q 1269 305 1278 326 q 1260 261 1260 284 q 1269 216 1260 237 q 1294 179 1278 195 q 1331 154 1310 163 q 1377 144 1352 144 q 1421 154 1400 144 q 1458 179 1442 163 q 1483 216 1474 195 q 1492 261 1492 237 z "},"⁄":{"ha":685,"x_min":8,"x_max":673,"o":"m 673 914 l 142 41 l 8 41 l 541 914 l 673 914 z "},"¬":{"ha":815,"x_min":79,"x_max":715,"o":"m 715 158 l 578 158 l 578 418 l 79 418 l 79 555 l 715 555 l 715 158 z "},"ı":{"ha":339,"x_min":100,"x_max":239,"o":"m 239 0 l 100 0 l 100 764 l 239 764 l 239 0 z "},"±":{"ha":917,"x_min":77,"x_max":840,"o":"m 840 416 l 528 416 l 528 139 l 389 139 l 389 416 l 77 416 l 77 555 l 389 555 l 389 833 l 528 833 l 528 555 l 840 555 l 840 416 m 840 -139 l 77 -139 l 77 0 l 840 0 l 840 -139 z "},"ˆ":{"ha":444,"x_min":0,"x_max":444,"o":"m 385 827 l 215 916 l 46 827 l 0 896 l 215 1039 l 444 896 l 385 827 z "},"ˇ":{"ha":431,"x_min":0,"x_max":431,"o":"m 46 1025 l 215 937 l 385 1025 l 431 957 l 215 812 l 0 957 l 46 1025 z "},"¸":{"ha":264,"x_min":0,"x_max":264,"o":"m 161 -33 q 194 -37 176 -33 q 227 -50 212 -41 q 253 -77 243 -60 q 264 -122 264 -95 q 250 -170 264 -151 q 214 -200 236 -189 q 164 -216 192 -212 q 110 -221 137 -221 q 68 -220 85 -221 q 39 -216 51 -218 q 18 -213 27 -214 q 0 -210 9 -211 l 0 -123 q 45 -139 19 -133 q 98 -146 71 -146 q 144 -140 126 -146 q 163 -121 163 -134 q 157 -108 163 -113 q 142 -100 151 -103 q 123 -97 133 -98 q 106 -96 113 -96 q 82 -97 94 -96 q 60 -102 71 -99 l 102 9 l 178 9 l 161 -33 z "},"˛":{"ha":264,"x_min":0,"x_max":264,"o":"m 170 11 q 122 -38 139 -11 q 104 -89 104 -65 q 116 -114 104 -106 q 157 -122 128 -122 q 183 -120 169 -122 q 213 -114 198 -117 q 241 -105 228 -110 q 264 -97 254 -101 l 264 -187 q 242 -194 254 -190 q 213 -201 230 -197 q 175 -207 197 -205 q 126 -210 154 -210 q 77 -205 100 -210 q 37 -189 54 -200 q 10 -161 20 -178 q 0 -118 0 -144 q 4 -86 0 -104 q 17 -51 8 -68 q 40 -16 26 -33 q 75 11 54 0 l 170 11 z "},"˚":{"ha":286,"x_min":0,"x_max":286,"o":"m 0 918 q 11 963 0 942 q 40 1001 21 985 q 85 1027 59 1017 q 143 1036 112 1036 q 204 1027 178 1036 q 250 1001 231 1017 q 277 963 268 985 q 286 918 286 942 q 276 873 286 895 q 247 836 266 852 q 202 810 229 819 q 143 800 176 800 q 83 810 110 800 q 38 836 57 819 q 10 873 20 852 q 0 918 0 895 m 96 918 q 107 885 96 899 q 143 871 119 871 q 178 885 166 871 q 191 918 191 899 q 178 951 191 938 q 143 965 166 965 q 107 951 119 965 q 96 918 96 938 z "},"˝":{"ha":422,"x_min":0,"x_max":422,"o":"m 212 913 l 28 821 l 0 867 l 157 1007 l 212 913 m 422 913 l 237 821 l 212 867 l 367 1007 l 422 913 z "},"˘":{"ha":397,"x_min":0,"x_max":397,"o":"m 397 1017 q 393 986 397 1004 q 382 947 390 967 q 360 905 374 926 q 325 868 347 884 q 272 841 302 852 q 199 831 241 831 q 126 841 157 831 q 73 868 95 852 q 37 905 51 884 q 16 947 24 926 q 4 986 7 967 q 0 1017 1 1004 l 92 1017 q 101 995 94 1008 q 119 971 107 983 q 150 952 131 960 q 199 945 170 945 q 247 952 228 945 q 279 971 267 960 q 297 995 291 983 q 306 1017 303 1008 l 397 1017 z "},"¯":{"ha":328,"x_min":0,"x_max":328,"o":"m 0 836 l 0 950 l 328 950 l 328 836 l 0 836 z "},"˜":{"ha":386,"x_min":0,"x_max":386,"o":"m 386 991 q 376 913 386 945 q 350 862 366 881 q 310 834 333 842 q 262 825 288 825 q 218 834 236 825 q 186 854 200 844 q 160 874 172 865 q 131 884 147 884 q 107 876 116 884 q 94 859 99 869 q 88 840 90 849 q 86 825 87 830 l 0 825 q 10 898 0 867 q 37 950 20 929 q 77 981 54 970 q 123 991 99 991 q 164 982 146 991 q 196 962 181 973 q 224 942 210 951 q 256 933 238 933 q 278 940 270 933 q 291 957 287 947 q 297 977 296 967 q 298 991 298 986 l 386 991 z "},"˙":{"ha":125,"x_min":0,"x_max":125,"o":"m 125 892 q 120 867 125 879 q 106 847 115 856 q 86 834 98 839 q 62 829 75 829 q 38 834 50 829 q 18 847 26 839 q 5 867 9 856 q 0 892 0 879 q 5 916 0 904 q 18 936 9 927 q 38 949 26 944 q 62 954 50 954 q 86 949 75 954 q 106 936 98 944 q 120 916 115 927 q 125 892 125 904 z "},"`":{"ha":288,"x_min":0,"x_max":288,"o":"m 53 1038 l 288 900 l 254 827 l 0 918 l 53 1038 z "},"´":{"ha":288,"x_min":0,"x_max":288,"o":"m 288 918 l 33 827 l 0 900 l 235 1038 l 288 918 z "},"¨":{"ha":353,"x_min":0,"x_max":353,"o":"m 126 892 q 121 867 126 879 q 107 847 116 856 q 87 834 99 839 q 64 829 76 829 q 39 834 51 829 q 19 847 28 839 q 5 867 10 856 q 0 892 0 879 q 5 916 0 904 q 19 936 10 927 q 39 949 28 944 q 64 954 51 954 q 87 949 76 954 q 107 936 99 944 q 121 916 116 927 q 126 892 126 904 m 353 892 q 348 867 353 879 q 334 847 342 856 q 313 834 325 839 q 289 829 302 829 q 264 834 276 829 q 244 847 253 839 q 231 867 236 856 q 227 892 227 879 q 231 916 227 904 q 244 936 236 927 q 264 949 253 944 q 289 954 276 954 q 313 949 302 954 q 334 936 325 944 q 348 916 342 927 q 353 892 353 904 z "},"½":{"ha":1022,"x_min":68,"x_max":965,"o":"m 745 914 l 212 41 l 79 41 l 611 914 l 745 914 m 254 460 l 139 460 l 139 811 l 68 811 l 68 928 l 254 928 l 254 460 m 965 26 l 533 26 l 533 191 q 540 231 533 209 q 563 273 547 254 q 602 305 578 292 q 661 318 627 318 l 836 318 q 850 330 850 318 l 850 366 q 841 376 846 374 q 838 378 839 378 l 568 378 l 568 494 l 838 494 q 897 481 872 494 q 936 449 921 468 q 958 407 951 429 q 965 367 965 385 l 965 330 q 952 271 965 296 q 920 232 939 247 q 879 210 901 216 q 838 203 857 203 l 661 203 q 651 199 654 203 q 648 189 648 195 l 648 143 l 965 143 l 965 26 z "},"¼":{"ha":1059,"x_min":68,"x_max":996,"o":"m 745 914 l 212 41 l 79 41 l 611 914 l 745 914 m 996 26 l 880 26 l 880 203 l 623 203 q 600 208 610 203 q 581 220 589 212 q 568 238 573 228 q 564 261 564 249 l 564 494 l 679 494 l 679 318 l 880 318 l 880 494 l 996 494 l 996 26 m 254 460 l 139 460 l 139 811 l 68 811 l 68 928 l 254 928 l 254 460 z "},"Þ":{"ha":1274,"x_min":117,"x_max":1239,"o":"m 1239 486 q 1212 351 1239 414 q 1137 240 1184 288 q 1027 166 1090 193 q 892 139 964 139 l 334 139 l 334 277 l 892 277 q 973 293 935 277 q 1039 338 1011 310 q 1084 405 1067 367 q 1100 486 1100 443 q 1084 568 1100 530 q 1039 634 1067 606 q 973 678 1011 662 q 892 694 935 694 l 256 694 l 256 0 l 117 0 l 117 974 l 256 974 l 256 833 l 892 833 q 1027 806 964 833 q 1137 731 1090 779 q 1212 621 1184 684 q 1239 486 1239 558 z "},"þ":{"ha":1051,"x_min":100,"x_max":1000,"o":"m 1000 382 q 970 234 1000 303 q 889 112 941 164 q 768 30 838 60 q 621 0 699 0 l 309 0 l 309 139 l 621 139 q 714 159 671 140 q 791 211 758 178 q 842 288 823 244 q 861 382 861 332 q 842 476 861 432 q 791 554 823 521 q 714 606 758 587 q 621 625 671 625 l 239 625 l 239 -278 l 100 -278 l 100 1040 l 239 1040 l 239 764 l 621 764 q 768 733 699 763 q 889 651 838 703 q 970 530 941 599 q 1000 382 1000 460 z "},"Ð":{"ha":1386,"x_min":-1,"x_max":1325,"o":"m 762 416 l 318 416 l 318 0 l 179 0 l 179 416 l -1 416 l -1 555 l 179 555 l 179 972 l 878 972 q 1061 934 978 972 q 1202 830 1143 896 q 1293 675 1261 764 q 1325 486 1325 587 q 1293 296 1325 385 q 1202 142 1261 208 q 1061 38 1143 76 q 878 0 978 0 l 387 0 l 387 139 l 878 139 q 1007 166 949 139 q 1104 240 1064 193 q 1165 351 1143 288 q 1186 486 1186 414 q 1165 621 1186 558 q 1104 731 1143 684 q 1007 806 1064 779 q 878 833 949 833 l 318 833 l 318 555 l 762 555 l 762 416 z "},"ð":{"ha":1146,"x_min":52,"x_max":1093,"o":"m 1092 876 l 885 876 l 1032 589 q 1077 492 1061 544 q 1093 382 1093 439 q 1063 234 1093 303 q 982 113 1034 165 q 862 31 931 61 q 714 0 793 1 l 431 0 q 283 31 352 1 q 162 113 214 61 q 81 234 111 165 q 52 382 52 303 q 81 530 52 460 q 162 651 111 600 q 283 733 214 703 q 431 764 352 764 l 714 764 q 793 755 753 764 l 729 876 l 328 876 l 328 1015 l 657 1015 l 607 1111 l 765 1111 l 814 1015 l 1092 1015 l 1092 876 m 954 382 q 935 476 954 432 q 884 553 916 520 q 807 605 851 586 q 714 625 764 625 l 431 625 q 337 605 380 625 q 260 553 293 586 q 209 476 228 520 q 191 382 191 432 q 209 288 191 332 q 260 211 228 243 q 337 158 293 178 q 431 139 380 139 l 714 139 q 807 158 764 139 q 884 211 851 178 q 935 288 916 243 q 954 382 954 332 z "},"Ł":{"ha":1128,"x_min":4,"x_max":1114,"o":"m 768 525 l 323 389 l 323 139 l 1114 139 l 1114 0 l 184 0 l 184 346 l 4 292 l 4 444 l 184 498 l 184 972 l 323 972 l 323 542 l 768 677 l 768 525 z "},"ł":{"ha":542,"x_min":24,"x_max":525,"o":"m 525 514 l 343 458 l 343 243 q 351 202 343 221 q 374 170 359 184 q 407 147 388 155 q 447 139 425 139 l 482 139 l 482 0 l 447 0 q 352 19 397 0 q 275 71 308 38 q 223 148 242 104 q 204 243 204 193 l 204 415 l 24 361 l 24 514 l 204 568 l 204 1042 l 343 1042 l 343 611 l 525 667 l 525 514 z "},"#":{"ha":1000,"x_min":49,"x_max":950,"o":"m 149 681 l 323 681 l 379 932 l 517 932 l 461 681 l 631 681 l 686 932 l 823 932 l 768 681 l 950 681 l 922 550 l 739 550 l 703 385 l 880 385 l 852 254 l 673 254 l 618 0 l 481 0 l 536 254 l 367 254 l 311 0 l 174 0 l 229 254 l 49 254 l 79 385 l 258 385 l 294 550 l 118 550 l 149 681 m 396 385 l 566 385 l 602 550 l 432 550 l 396 385 z "},"°":{"ha":416,"x_min":71,"x_max":346,"o":"m 71 842 q 79 892 71 868 q 105 934 87 916 q 148 962 122 951 q 208 972 174 972 q 273 962 247 972 q 316 934 300 951 q 339 892 332 916 q 346 842 346 868 q 338 792 346 816 q 313 751 330 769 q 270 723 296 734 q 208 713 244 713 q 146 723 172 713 q 103 751 120 734 q 78 792 86 769 q 71 842 71 816 m 164 842 q 176 808 164 822 q 211 794 187 794 q 246 808 234 794 q 258 842 258 822 q 246 875 258 861 q 211 889 234 889 q 176 875 187 889 q 164 842 164 861 z "},"ª":{"ha":714,"x_min":65,"x_max":632,"o":"m 632 509 l 218 509 q 159 520 187 509 q 111 553 132 532 q 77 601 90 574 q 65 660 65 629 q 77 719 65 691 q 111 767 90 747 q 159 800 132 788 q 218 812 187 812 l 484 812 l 484 710 l 218 710 q 182 695 197 710 q 168 660 168 681 q 182 624 168 639 q 218 610 197 610 l 530 610 l 530 821 q 516 857 530 842 q 481 871 502 871 l 146 871 l 146 974 l 481 974 q 539 962 512 974 q 588 928 567 949 q 620 880 608 907 q 632 821 632 852 l 632 509 m 632 334 l 65 334 l 65 431 l 632 431 l 632 334 z "},"º":{"ha":749,"x_min":60,"x_max":689,"o":"m 688 741 q 669 650 688 692 q 620 577 651 608 q 546 528 588 546 q 456 509 503 509 l 292 509 q 201 528 243 509 q 128 577 159 546 q 78 650 96 608 q 60 741 60 692 q 78 831 60 788 q 128 905 96 873 q 201 955 159 937 q 292 974 243 974 l 456 974 q 546 955 503 974 q 620 905 588 937 q 669 831 651 873 q 688 741 688 788 m 585 741 q 575 791 585 768 q 548 832 565 814 q 507 860 530 850 q 456 871 483 870 l 292 871 q 241 860 264 870 q 200 832 218 850 q 173 791 183 814 q 163 741 163 768 q 173 690 163 713 q 200 648 183 666 q 241 620 218 630 q 292 610 264 610 l 456 610 q 507 620 483 610 q 548 648 530 630 q 575 690 565 666 q 585 741 585 713 m 689 334 l 60 334 l 60 431 l 689 431 l 689 334 z "},"≠":{"ha":983,"x_min":110,"x_max":873,"o":"m 873 208 l 421 208 l 342 57 l 183 57 l 262 208 l 110 208 l 110 347 l 336 347 l 482 625 l 110 625 l 110 764 l 555 764 l 637 918 l 796 918 l 714 764 l 873 764 l 873 625 l 640 625 l 494 347 l 873 347 l 873 208 z "},"¶":{"ha":1293,"x_min":50,"x_max":1173,"o":"m 50 625 q 77 760 50 697 q 152 870 104 823 q 262 945 199 918 q 397 972 326 972 l 1173 972 l 1173 0 l 1034 0 l 1034 833 l 823 833 l 823 0 l 685 0 l 685 833 l 397 833 q 316 817 354 833 q 250 773 278 801 q 205 707 222 745 q 189 625 189 669 q 205 544 189 582 q 250 477 222 505 q 316 432 278 448 q 397 415 354 415 l 595 415 l 595 278 l 397 278 q 262 305 326 278 q 152 379 199 332 q 77 490 104 427 q 50 625 50 553 z "},"Æ":{"ha":2146,"x_min":100,"x_max":2090,"o":"m 2090 0 l 1083 0 l 1083 278 l 307 278 l 307 416 l 1083 416 l 1083 833 l 585 833 q 450 806 513 833 q 340 731 387 779 q 266 621 294 684 q 239 486 239 558 l 239 0 l 100 0 l 100 486 q 117 615 100 553 q 166 731 134 677 q 242 830 197 785 q 340 906 286 874 q 456 955 394 938 q 585 972 517 972 l 2090 972 l 2090 833 l 1223 833 l 1223 139 l 2090 139 l 2090 0 m 1972 416 l 1293 416 l 1293 555 l 1972 555 l 1972 416 z "},"Ø":{"ha":1339,"x_min":61,"x_max":1278,"o":"m 1145 972 l 1082 895 q 1164 818 1128 862 q 1226 722 1200 774 q 1264 610 1251 670 q 1278 486 1278 550 q 1246 296 1278 385 q 1155 142 1214 208 q 1015 38 1097 76 q 832 0 932 0 l 509 0 q 440 4 473 0 q 376 18 408 9 l 363 0 l 197 0 l 258 75 q 175 152 212 108 q 113 248 138 195 q 74 361 87 300 q 61 486 61 421 q 93 675 61 587 q 183 830 125 764 q 325 934 242 896 q 509 972 408 972 l 832 972 q 900 967 867 972 q 964 953 932 962 l 979 972 l 1145 972 m 509 833 q 379 806 437 833 q 282 731 322 779 q 221 621 243 684 q 200 486 200 558 q 210 393 200 437 q 238 309 220 348 q 284 239 257 271 q 346 184 311 207 l 865 831 q 849 833 857 832 q 832 833 840 833 l 509 833 m 1139 486 q 1129 578 1139 534 q 1101 661 1120 623 q 1056 732 1082 700 q 994 786 1029 764 l 475 140 q 492 140 484 140 q 509 139 500 139 l 832 139 q 961 166 904 139 q 1057 240 1017 193 q 1118 351 1097 288 q 1139 486 1139 414 z "},"ø":{"ha":1089,"x_min":52,"x_max":1038,"o":"m 1023 765 l 918 660 q 1005 535 973 606 q 1038 382 1038 464 q 1008 234 1038 303 q 927 113 978 165 q 806 31 876 61 q 659 0 737 1 l 431 0 q 355 8 392 0 q 285 29 318 16 l 256 0 l 77 0 l 176 98 q 84 224 117 152 q 52 382 52 297 q 81 530 52 460 q 162 651 111 600 q 283 733 214 703 q 431 764 352 764 l 659 764 q 811 732 739 764 l 844 765 l 1023 765 m 431 625 q 337 605 380 625 q 260 553 293 586 q 209 476 228 520 q 191 382 191 432 q 213 279 191 327 q 273 197 235 231 l 699 621 q 679 624 689 622 q 659 625 669 625 l 431 625 m 899 382 q 877 481 899 435 q 819 561 856 528 l 397 142 q 414 140 406 140 q 431 139 422 139 l 659 139 q 752 158 708 139 q 828 211 795 178 q 880 288 861 243 q 899 382 899 332 z "},"æ":{"ha":1804,"x_min":32,"x_max":1768,"o":"m 1768 521 q 1749 426 1768 470 q 1697 349 1730 382 q 1620 297 1664 316 q 1525 278 1575 278 l 993 278 q 1030 222 1008 248 q 1080 178 1052 196 q 1141 149 1108 159 q 1210 139 1174 139 l 1664 139 l 1664 0 l 1210 0 q 1080 23 1141 0 q 970 87 1019 47 l 970 0 l 275 0 q 180 19 224 0 q 103 71 136 38 q 51 148 70 104 q 32 243 32 193 q 51 338 32 294 q 103 415 70 382 q 180 467 136 448 q 275 486 224 486 l 761 486 l 761 347 l 275 347 q 235 339 254 347 q 201 316 216 330 q 179 283 187 302 q 171 243 171 264 q 179 202 171 221 q 201 170 187 184 q 235 147 216 155 q 275 139 254 139 l 831 139 l 831 521 q 822 561 831 542 q 800 594 814 580 q 766 617 785 608 q 726 625 747 625 l 171 625 l 171 764 l 726 764 q 848 731 793 764 q 936 644 903 699 q 1058 731 987 699 q 1210 764 1128 762 l 1525 764 q 1620 745 1575 764 q 1697 693 1664 726 q 1749 616 1730 660 q 1768 521 1768 572 m 1525 416 q 1565 425 1546 416 q 1598 447 1584 433 q 1621 480 1613 461 q 1629 521 1629 499 q 1621 561 1629 542 q 1598 594 1613 580 q 1565 617 1584 608 q 1525 625 1546 625 l 1210 625 q 1123 609 1164 625 q 1052 565 1083 593 q 999 498 1020 536 q 972 416 979 460 l 1525 416 z "},"œ":{"ha":1929,"x_min":52,"x_max":1893,"o":"m 1893 521 q 1874 426 1893 470 q 1822 349 1855 382 q 1745 297 1789 316 q 1650 278 1701 278 l 1118 278 q 1155 222 1133 248 q 1205 178 1177 196 q 1266 149 1233 159 q 1335 139 1299 139 l 1789 139 l 1789 0 l 1335 0 q 1241 12 1286 0 q 1157 45 1196 24 q 1083 97 1117 66 q 1023 164 1050 127 q 964 97 998 127 q 891 45 930 66 q 806 12 851 24 q 714 0 762 0 l 431 0 q 283 31 352 1 q 162 113 214 61 q 81 234 111 165 q 52 382 52 303 q 81 530 52 460 q 162 651 111 600 q 283 733 214 703 q 431 764 352 764 l 714 764 q 806 752 762 764 q 891 719 851 740 q 964 667 930 697 q 1023 600 998 637 q 1083 667 1050 637 q 1157 719 1117 697 q 1241 751 1196 740 q 1335 764 1286 763 l 1650 764 q 1745 745 1701 764 q 1822 693 1789 726 q 1874 616 1855 660 q 1893 521 1893 572 m 954 382 q 935 476 954 432 q 884 553 916 520 q 807 605 851 586 q 714 625 764 625 l 431 625 q 337 605 380 625 q 260 553 293 586 q 209 476 228 520 q 191 382 191 432 q 209 288 191 332 q 260 211 228 243 q 337 158 293 178 q 431 139 380 139 l 714 139 q 807 158 764 139 q 884 211 851 178 q 935 288 916 243 q 954 382 954 332 m 1650 416 q 1690 425 1671 416 q 1723 447 1709 433 q 1746 480 1737 461 q 1754 521 1754 499 q 1746 561 1754 542 q 1723 594 1737 580 q 1690 617 1709 608 q 1650 625 1671 625 l 1335 625 q 1248 609 1289 625 q 1176 565 1208 593 q 1124 498 1145 536 q 1097 416 1103 460 l 1650 416 z "},"Œ":{"ha":2199,"x_min":61,"x_max":2143,"o":"m 2143 0 l 1137 0 l 1137 122 q 1002 32 1080 64 q 832 0 925 0 l 509 0 q 325 38 408 0 q 183 142 242 76 q 93 296 125 208 q 61 486 61 385 q 93 675 61 587 q 183 830 125 764 q 325 934 242 896 q 509 972 408 972 l 832 972 q 1002 939 925 972 q 1137 848 1080 906 l 1137 972 l 2143 972 l 2143 833 l 1276 833 l 1276 139 l 2143 139 l 2143 0 m 509 833 q 379 806 437 833 q 282 731 322 779 q 221 621 243 684 q 200 486 200 558 q 221 351 200 414 q 282 240 243 288 q 379 166 322 193 q 509 139 437 139 l 832 139 q 955 164 899 139 q 1052 234 1011 189 q 1115 343 1093 279 q 1137 486 1137 407 q 1115 626 1137 562 q 1052 736 1093 690 q 955 808 1011 782 q 832 833 899 833 l 509 833 m 2025 416 l 1346 416 l 1346 555 l 2025 555 l 2025 416 z "},"€":{"ha":1451,"x_min":46,"x_max":1373,"o":"m 905 555 l 444 555 q 440 521 441 538 q 439 486 439 504 q 440 451 439 469 q 444 416 441 433 l 857 416 l 808 278 l 494 278 q 597 177 533 214 q 747 139 661 139 l 1373 139 l 1373 0 l 747 0 q 611 20 674 0 q 495 77 547 40 q 404 164 443 113 q 339 278 364 216 l 46 278 l 94 416 l 304 416 q 301 451 302 433 q 300 486 300 469 q 301 521 300 504 q 304 555 302 538 l 143 555 l 192 694 l 339 694 q 404 807 364 756 q 495 895 443 859 q 611 952 547 932 q 747 972 674 972 l 1373 972 l 1373 833 l 747 833 q 667 824 705 833 q 597 795 629 814 q 539 751 566 777 q 494 694 513 726 l 954 694 l 905 555 z "},"™":{"ha":1178,"x_min":81,"x_max":1075,"o":"m 857 574 l 782 574 l 782 774 q 772 822 782 799 q 746 861 762 844 q 706 887 729 878 q 659 897 684 897 l 640 897 l 640 574 l 566 574 l 566 972 l 659 972 q 751 949 709 972 q 821 886 793 925 q 890 949 848 925 q 981 972 932 972 l 1075 972 l 1075 574 l 1000 574 l 1000 897 l 981 897 q 933 887 956 897 q 895 859 911 877 q 868 818 878 842 q 857 768 858 795 l 857 574 m 347 574 l 271 574 l 271 897 l 81 897 l 81 972 l 536 972 l 536 897 l 347 897 l 347 574 z "},"Š":{"ha":1236,"x_min":68,"x_max":1190,"o":"m 1190 278 q 1168 169 1190 220 q 1109 81 1147 119 q 1021 22 1072 43 q 913 0 970 0 l 68 0 l 68 139 l 913 139 q 967 150 942 139 q 1011 180 992 161 q 1040 224 1029 199 q 1051 278 1051 250 q 1040 332 1051 307 q 1011 376 1029 357 q 967 406 992 395 q 913 416 942 416 l 346 416 q 238 438 289 416 q 150 497 187 460 q 90 586 112 535 q 68 694 68 637 q 90 802 68 751 q 150 891 112 853 q 238 950 187 928 q 346 972 289 972 l 1121 972 l 1121 833 l 346 833 q 292 823 317 833 q 248 793 267 812 q 218 748 229 774 q 207 694 207 723 q 218 641 207 666 q 248 596 229 615 q 292 566 267 577 q 346 555 317 555 l 913 555 q 1021 533 970 555 q 1109 474 1072 511 q 1168 386 1147 436 q 1190 278 1190 335 m 460 1247 l 629 1160 l 798 1247 l 844 1179 l 629 1035 l 414 1179 l 460 1247 z "},"š":{"ha":940,"x_min":64,"x_max":897,"o":"m 897 243 q 878 148 897 193 q 826 71 859 104 q 749 19 793 38 q 654 0 705 0 l 64 0 l 64 139 l 654 139 q 694 147 675 139 q 728 170 713 155 q 750 202 742 184 q 758 243 758 221 q 750 283 758 264 q 728 316 742 302 q 694 339 713 330 q 654 347 675 347 l 272 347 q 191 363 229 347 q 124 408 153 380 q 80 474 96 436 q 64 555 64 512 q 80 637 64 599 q 124 703 96 675 q 191 747 153 731 q 272 764 229 764 l 828 764 l 828 625 l 272 625 q 223 605 243 625 q 203 555 203 585 q 223 506 203 526 q 272 486 243 486 l 654 486 q 749 467 705 486 q 826 415 793 448 q 878 338 859 382 q 897 243 897 294 m 311 1038 l 480 951 l 650 1038 l 696 970 l 480 826 l 265 970 l 311 1038 z "},"Ý":{"ha":1311,"x_min":79,"x_max":1203,"o":"m 1203 278 q 1176 169 1203 220 q 1101 81 1148 119 q 991 22 1054 43 q 856 0 928 0 l 79 0 l 79 139 l 856 139 q 937 150 899 139 q 1003 180 975 161 q 1047 224 1031 199 q 1064 278 1064 250 l 1064 347 l 427 347 q 291 374 355 347 q 181 449 228 401 q 106 559 134 496 q 79 694 79 623 l 79 972 l 218 972 l 218 694 q 235 613 218 651 q 279 547 251 575 q 345 503 307 519 q 427 486 383 486 l 1064 486 l 1064 972 l 1203 972 l 1203 278 m 924 1141 l 669 1049 l 636 1122 l 871 1260 l 924 1141 z "},"ý":{"ha":1088,"x_min":87,"x_max":987,"o":"m 987 -35 q 968 -130 987 -85 q 917 -207 949 -174 q 839 -259 884 -240 q 745 -278 795 -278 l 189 -278 l 189 -139 l 745 -139 q 785 -131 766 -139 q 818 -109 804 -123 q 840 -75 832 -94 q 848 -35 848 -56 l 848 0 l 467 0 q 319 30 388 0 q 198 112 250 60 q 117 234 147 164 q 87 382 87 303 l 87 764 l 227 764 l 227 382 q 245 288 227 332 q 296 211 264 244 q 373 159 329 178 q 467 139 416 140 l 848 139 l 848 764 l 987 764 l 987 -35 m 819 946 l 565 854 l 532 928 l 766 1065 l 819 946 z "},"Ž":{"ha":1239,"x_min":58,"x_max":1182,"o":"m 1182 833 l 289 139 l 1182 139 l 1182 0 l 58 0 l 58 139 l 957 833 l 58 833 l 58 972 l 1182 972 l 1182 833 m 450 1247 l 619 1160 l 789 1247 l 835 1179 l 619 1035 l 404 1179 l 450 1247 z "},"ž":{"ha":1019,"x_min":58,"x_max":961,"o":"m 961 625 l 292 139 l 961 139 l 961 0 l 58 0 l 58 139 l 726 625 l 58 625 l 58 764 l 961 764 l 961 625 m 340 1053 l 509 965 l 679 1053 l 725 985 l 509 840 l 294 985 l 340 1053 z "},"Ä":{"ha":1339,"x_min":100,"x_max":1222,"o":"m 1222 0 l 1083 0 l 1083 278 l 307 278 l 307 416 l 1083 416 l 1083 833 l 585 833 q 450 806 513 833 q 340 731 387 779 q 266 621 294 684 q 239 486 239 558 l 239 0 l 100 0 l 100 486 q 117 615 100 553 q 166 731 134 677 q 242 830 197 785 q 340 906 286 874 q 456 955 394 938 q 585 972 517 972 l 1222 972 l 1222 0 m 611 1114 q 606 1090 611 1101 q 592 1070 601 1078 q 572 1057 584 1061 q 549 1052 561 1052 q 524 1057 536 1052 q 504 1070 513 1061 q 490 1090 495 1078 q 485 1114 485 1101 q 490 1138 485 1126 q 504 1158 495 1149 q 524 1172 513 1166 q 549 1177 536 1177 q 572 1172 561 1177 q 592 1158 584 1166 q 606 1138 601 1149 q 611 1114 611 1126 m 838 1114 q 832 1090 838 1101 q 819 1070 827 1078 q 798 1057 810 1061 q 774 1052 787 1052 q 749 1057 761 1052 q 729 1070 738 1061 q 716 1090 721 1078 q 711 1114 711 1101 q 716 1138 711 1126 q 729 1158 721 1149 q 749 1172 738 1166 q 774 1177 761 1177 q 798 1172 787 1177 q 819 1158 810 1166 q 832 1138 827 1149 q 838 1114 838 1126 z "},"Å":{"ha":1339,"x_min":100,"x_max":1222,"o":"m 1222 0 l 1083 0 l 1083 278 l 307 278 l 307 416 l 1083 416 l 1083 833 l 585 833 q 450 806 513 833 q 340 731 387 779 q 266 621 294 684 q 239 486 239 558 l 239 0 l 100 0 l 100 486 q 117 615 100 553 q 166 731 134 677 q 242 830 197 785 q 340 906 286 874 q 456 955 394 938 q 585 972 517 972 l 1222 972 l 1222 0 m 518 1141 q 529 1186 518 1164 q 558 1223 539 1207 q 604 1249 577 1240 q 661 1259 630 1259 q 723 1249 696 1259 q 768 1223 749 1240 q 795 1186 786 1207 q 804 1141 804 1164 q 794 1096 804 1117 q 765 1058 784 1074 q 720 1032 747 1042 q 661 1023 694 1023 q 602 1032 628 1023 q 556 1058 575 1042 q 528 1096 538 1074 q 518 1141 518 1117 m 614 1141 q 626 1107 614 1121 q 661 1093 637 1093 q 696 1107 684 1093 q 709 1141 709 1121 q 696 1174 709 1160 q 661 1187 684 1187 q 626 1174 637 1187 q 614 1141 614 1160 z "},"Ç":{"ha":1186,"x_min":61,"x_max":1135,"o":"m 1135 0 l 708 0 l 696 -33 q 728 -37 710 -33 q 762 -50 746 -41 q 788 -77 778 -60 q 799 -122 799 -95 q 785 -170 799 -151 q 749 -200 771 -189 q 699 -216 726 -212 q 644 -221 671 -221 q 603 -220 619 -221 q 574 -216 586 -218 q 553 -213 562 -214 q 534 -210 544 -211 l 534 -123 q 580 -139 553 -133 q 633 -146 606 -146 q 679 -140 661 -146 q 697 -121 697 -134 q 691 -108 697 -113 q 676 -100 685 -103 q 658 -97 668 -98 q 640 -96 648 -96 q 617 -97 629 -96 q 595 -102 605 -99 l 632 0 l 509 0 q 325 38 408 0 q 183 142 242 76 q 93 296 125 208 q 61 486 61 385 q 93 675 61 587 q 183 830 125 764 q 325 934 242 896 q 509 972 408 972 l 1135 972 l 1135 833 l 509 833 q 379 806 437 833 q 282 731 322 779 q 221 621 243 684 q 200 486 200 558 q 221 351 200 414 q 282 240 243 288 q 379 166 322 193 q 509 139 437 139 l 1135 139 l 1135 0 z "},"É":{"ha":1178,"x_min":117,"x_max":1122,"o":"m 1122 0 l 117 0 l 117 972 l 1122 972 l 1122 833 l 256 833 l 256 139 l 1122 139 l 1122 0 m 1004 416 l 325 416 l 325 555 l 1004 555 l 1004 416 m 901 1141 l 647 1049 l 614 1122 l 848 1260 l 901 1141 z "},"Ñ":{"ha":1308,"x_min":117,"x_max":1192,"o":"m 256 0 l 117 0 l 117 972 l 186 972 q 330 955 254 972 q 486 904 406 937 q 644 824 565 871 q 797 717 723 777 q 936 587 871 657 q 1053 437 1001 517 l 1053 972 l 1192 972 l 1192 0 l 1053 0 q 1015 207 1053 107 q 916 394 978 306 q 772 556 853 482 q 602 687 690 631 q 424 780 513 743 q 256 828 334 816 l 256 0 m 847 1214 q 837 1135 847 1167 q 811 1084 827 1103 q 771 1056 794 1065 q 724 1048 749 1048 q 679 1057 697 1048 q 647 1077 661 1066 q 621 1097 633 1088 q 592 1106 608 1106 q 569 1099 577 1106 q 555 1081 560 1091 q 549 1062 551 1072 q 547 1048 548 1053 l 461 1048 q 471 1120 461 1089 q 498 1172 481 1152 q 538 1203 515 1193 q 585 1214 560 1214 q 625 1205 608 1214 q 657 1185 642 1196 q 685 1165 671 1174 q 717 1156 699 1156 q 740 1163 731 1156 q 752 1180 748 1170 q 758 1199 757 1190 q 760 1214 760 1208 l 847 1214 z "},"Ö":{"ha":1339,"x_min":61,"x_max":1278,"o":"m 1278 486 q 1246 296 1278 385 q 1155 142 1214 208 q 1015 38 1097 76 q 832 0 932 0 l 509 0 q 325 38 408 0 q 183 142 242 76 q 93 296 125 208 q 61 486 61 385 q 93 675 61 587 q 183 830 125 764 q 325 934 242 896 q 509 972 408 972 l 832 972 q 1015 934 932 972 q 1155 830 1097 896 q 1246 675 1214 764 q 1278 486 1278 587 m 1139 486 q 1118 621 1139 558 q 1057 731 1097 684 q 961 806 1017 779 q 832 833 904 833 l 509 833 q 379 806 437 833 q 282 731 322 779 q 221 621 243 684 q 200 486 200 558 q 221 351 200 414 q 282 240 243 288 q 379 166 322 193 q 509 139 437 139 l 832 139 q 961 166 904 139 q 1057 240 1017 193 q 1118 351 1097 288 q 1139 486 1139 414 m 619 1114 q 614 1090 619 1101 q 601 1070 609 1078 q 581 1057 592 1061 q 557 1052 569 1052 q 532 1057 544 1052 q 512 1070 521 1061 q 498 1090 503 1078 q 493 1114 493 1101 q 498 1138 493 1126 q 512 1158 503 1149 q 532 1172 521 1166 q 557 1177 544 1177 q 581 1172 569 1177 q 601 1158 592 1166 q 614 1138 609 1149 q 619 1114 619 1126 m 846 1114 q 841 1090 846 1101 q 827 1070 836 1078 q 806 1057 818 1061 q 782 1052 795 1052 q 758 1057 769 1052 q 738 1070 746 1061 q 724 1090 729 1078 q 720 1114 720 1101 q 724 1138 720 1126 q 738 1158 729 1149 q 758 1172 746 1166 q 782 1177 769 1177 q 806 1172 795 1177 q 827 1158 818 1166 q 841 1138 836 1149 q 846 1114 846 1126 z "},"Ü":{"ha":1242,"x_min":85,"x_max":1158,"o":"m 1158 972 l 1157 486 q 1140 356 1157 418 q 1091 240 1122 294 q 1015 142 1059 186 q 917 66 970 98 q 801 17 863 35 q 672 0 739 0 l 570 0 q 440 17 503 0 q 325 66 378 35 q 227 143 271 98 q 151 241 182 187 q 102 357 119 295 q 85 486 85 419 l 85 972 l 224 972 l 224 486 q 251 351 224 414 q 325 240 278 288 q 435 166 372 193 q 570 139 498 139 l 672 139 q 807 166 744 139 q 917 240 870 193 q 991 351 964 288 q 1018 486 1018 414 l 1018 972 l 1157 972 l 1158 972 m 570 1114 q 565 1090 570 1101 q 552 1070 560 1078 q 532 1057 543 1061 q 508 1052 520 1052 q 484 1057 495 1052 q 463 1070 472 1061 q 449 1090 454 1078 q 444 1114 444 1101 q 449 1138 444 1126 q 463 1158 454 1149 q 484 1172 472 1166 q 508 1177 495 1177 q 532 1172 520 1177 q 552 1158 543 1166 q 565 1138 560 1149 q 570 1114 570 1126 m 797 1114 q 792 1090 797 1101 q 778 1070 787 1078 q 758 1057 769 1061 q 733 1052 746 1052 q 709 1057 720 1052 q 689 1070 697 1061 q 675 1090 680 1078 q 671 1114 671 1101 q 675 1138 671 1126 q 689 1158 680 1149 q 709 1172 697 1166 q 733 1177 720 1177 q 758 1172 746 1177 q 778 1158 769 1166 q 792 1138 787 1149 q 797 1114 797 1126 z "},"á":{"ha":1064,"x_min":32,"x_max":970,"o":"m 970 0 l 275 0 q 180 19 224 0 q 103 71 136 38 q 51 148 70 104 q 32 243 32 193 q 51 338 32 294 q 103 415 70 382 q 180 467 136 448 q 275 486 224 486 l 761 486 l 761 347 l 275 347 q 235 339 254 347 q 201 316 216 330 q 179 283 187 302 q 171 243 171 264 q 179 202 171 221 q 201 170 187 184 q 235 147 216 155 q 275 139 254 139 l 831 139 l 831 521 q 822 561 831 542 q 800 594 814 580 q 766 617 785 608 q 726 625 747 625 l 171 625 l 171 764 l 726 764 q 821 745 777 764 q 899 693 865 726 q 951 616 932 660 q 970 521 970 572 l 970 0 m 783 946 l 529 854 l 496 928 l 730 1065 l 783 946 z "},"à":{"ha":1064,"x_min":32,"x_max":970,"o":"m 970 0 l 275 0 q 180 19 224 0 q 103 71 136 38 q 51 148 70 104 q 32 243 32 193 q 51 338 32 294 q 103 415 70 382 q 180 467 136 448 q 275 486 224 486 l 761 486 l 761 347 l 275 347 q 235 339 254 347 q 201 316 216 330 q 179 283 187 302 q 171 243 171 264 q 179 202 171 221 q 201 170 187 184 q 235 147 216 155 q 275 139 254 139 l 831 139 l 831 521 q 822 561 831 542 q 800 594 814 580 q 766 617 785 608 q 726 625 747 625 l 171 625 l 171 764 l 726 764 q 821 745 777 764 q 899 693 865 726 q 951 616 932 660 q 970 521 970 572 l 970 0 m 271 1065 l 506 928 l 473 854 l 218 946 l 271 1065 z "},"â":{"ha":1064,"x_min":32,"x_max":970,"o":"m 970 0 l 275 0 q 180 19 224 0 q 103 71 136 38 q 51 148 70 104 q 32 243 32 193 q 51 338 32 294 q 103 415 70 382 q 180 467 136 448 q 275 486 224 486 l 761 486 l 761 347 l 275 347 q 235 339 254 347 q 201 316 216 330 q 179 283 187 302 q 171 243 171 264 q 179 202 171 221 q 201 170 187 184 q 235 147 216 155 q 275 139 254 139 l 831 139 l 831 521 q 822 561 831 542 q 800 594 814 580 q 766 617 785 608 q 726 625 747 625 l 171 625 l 171 764 l 726 764 q 821 745 777 764 q 899 693 865 726 q 951 616 932 660 q 970 521 970 572 l 970 0 m 663 854 l 493 943 l 324 854 l 278 924 l 493 1067 l 722 924 l 663 854 z "},"ä":{"ha":1064,"x_min":32,"x_max":970,"o":"m 970 0 l 275 0 q 180 19 224 0 q 103 71 136 38 q 51 148 70 104 q 32 243 32 193 q 51 338 32 294 q 103 415 70 382 q 180 467 136 448 q 275 486 224 486 l 761 486 l 761 347 l 275 347 q 235 339 254 347 q 201 316 216 330 q 179 283 187 302 q 171 243 171 264 q 179 202 171 221 q 201 170 187 184 q 235 147 216 155 q 275 139 254 139 l 831 139 l 831 521 q 822 561 831 542 q 800 594 814 580 q 766 617 785 608 q 726 625 747 625 l 171 625 l 171 764 l 726 764 q 821 745 777 764 q 899 693 865 726 q 951 616 932 660 q 970 521 970 572 l 970 0 m 450 920 q 445 895 450 907 q 431 875 439 884 q 411 862 422 867 q 387 857 399 857 q 363 862 374 857 q 342 875 351 867 q 329 895 334 884 q 323 920 323 907 q 329 943 323 932 q 342 963 334 955 q 363 977 351 972 q 387 982 374 982 q 411 977 399 982 q 431 963 422 972 q 445 943 439 955 q 450 920 450 932 m 676 920 q 671 895 676 907 q 657 875 666 884 q 637 862 648 867 q 612 857 625 857 q 588 862 600 857 q 568 875 576 867 q 555 895 559 884 q 550 920 550 907 q 555 943 550 932 q 568 963 559 955 q 588 977 576 972 q 612 982 600 982 q 637 977 625 982 q 657 963 648 972 q 671 943 666 955 q 676 920 676 932 z "},"ã":{"ha":1064,"x_min":32,"x_max":970,"o":"m 970 0 l 275 0 q 180 19 224 0 q 103 71 136 38 q 51 148 70 104 q 32 243 32 193 q 51 338 32 294 q 103 415 70 382 q 180 467 136 448 q 275 486 224 486 l 761 486 l 761 347 l 275 347 q 235 339 254 347 q 201 316 216 330 q 179 283 187 302 q 171 243 171 264 q 179 202 171 221 q 201 170 187 184 q 235 147 216 155 q 275 139 254 139 l 831 139 l 831 521 q 822 561 831 542 q 800 594 814 580 q 766 617 785 608 q 726 625 747 625 l 171 625 l 171 764 l 726 764 q 821 745 777 764 q 899 693 865 726 q 951 616 932 660 q 970 521 970 572 l 970 0 m 693 1019 q 683 941 693 972 q 657 889 673 909 q 617 862 640 870 q 570 853 595 853 q 525 862 543 853 q 493 882 507 871 q 467 902 479 893 q 438 911 454 911 q 415 904 423 911 q 401 887 406 897 q 395 867 397 877 q 393 853 394 858 l 307 853 q 317 926 307 895 q 345 978 328 957 q 384 1009 361 998 q 431 1019 406 1019 q 471 1010 454 1019 q 503 990 488 1001 q 531 970 517 979 q 563 961 545 961 q 586 968 577 961 q 598 985 594 975 q 604 1004 603 995 q 606 1019 606 1014 l 693 1019 z "},"å":{"ha":1064,"x_min":32,"x_max":970,"o":"m 970 0 l 275 0 q 180 19 224 0 q 103 71 136 38 q 51 148 70 104 q 32 243 32 193 q 51 338 32 294 q 103 415 70 382 q 180 467 136 448 q 275 486 224 486 l 761 486 l 761 347 l 275 347 q 235 339 254 347 q 201 316 216 330 q 179 283 187 302 q 171 243 171 264 q 179 202 171 221 q 201 170 187 184 q 235 147 216 155 q 275 139 254 139 l 831 139 l 831 521 q 822 561 831 542 q 800 594 814 580 q 766 617 785 608 q 726 625 747 625 l 171 625 l 171 764 l 726 764 q 821 745 777 764 q 899 693 865 726 q 951 616 932 660 q 970 521 970 572 l 970 0 m 357 946 q 367 991 357 970 q 397 1029 378 1013 q 442 1055 416 1045 q 500 1064 469 1064 q 561 1055 534 1064 q 606 1029 588 1045 q 634 991 625 1013 q 643 946 643 970 q 633 901 643 922 q 604 863 623 880 q 559 838 585 847 q 500 828 532 828 q 440 838 467 828 q 395 863 414 847 q 367 901 376 880 q 357 946 357 922 m 452 946 q 464 912 452 926 q 500 899 476 899 q 535 912 523 899 q 547 946 547 926 q 535 979 547 966 q 500 993 523 993 q 464 979 476 993 q 452 946 452 966 z "},"ç":{"ha":937,"x_min":52,"x_max":885,"o":"m 885 0 l 579 0 l 567 -33 q 599 -37 581 -33 q 633 -50 617 -41 q 659 -77 648 -60 q 669 -122 669 -95 q 655 -170 669 -151 q 620 -200 642 -189 q 570 -216 597 -212 q 515 -221 543 -221 q 474 -220 490 -221 q 445 -216 457 -218 q 424 -213 433 -214 q 406 -210 415 -211 l 406 -123 q 451 -139 425 -133 q 504 -146 477 -146 q 550 -140 532 -146 q 568 -121 568 -134 q 562 -108 568 -113 q 547 -100 556 -103 q 529 -97 538 -98 q 511 -96 519 -96 q 488 -97 500 -96 q 465 -102 476 -99 l 503 0 l 431 0 q 283 31 352 1 q 162 113 214 61 q 81 234 111 165 q 52 382 52 303 q 81 530 52 460 q 162 651 111 600 q 283 733 214 703 q 431 764 352 764 l 885 764 l 885 625 l 431 625 q 337 605 380 625 q 260 553 293 586 q 209 476 228 520 q 191 382 191 432 q 209 288 191 332 q 260 211 228 243 q 337 158 293 178 q 431 139 380 139 l 885 139 l 885 0 z "},"é":{"ha":1025,"x_min":52,"x_max":989,"o":"m 989 521 q 970 426 989 470 q 918 349 951 382 q 841 297 885 316 q 746 278 796 278 l 214 278 q 251 222 229 248 q 301 178 273 196 q 362 149 329 159 q 431 139 395 139 l 885 139 l 885 0 l 431 0 q 283 31 352 1 q 162 113 214 61 q 81 234 111 165 q 52 382 52 303 q 81 530 52 460 q 162 651 111 599 q 283 733 214 703 q 431 764 352 763 l 746 764 q 841 745 796 764 q 918 693 885 726 q 970 616 951 660 q 989 521 989 572 m 746 416 q 786 425 767 416 q 819 447 805 433 q 842 480 833 461 q 850 521 850 499 q 842 561 850 542 q 819 594 833 580 q 786 617 805 608 q 746 625 767 625 l 431 625 q 344 609 385 625 q 272 565 304 593 q 220 498 241 536 q 193 416 199 460 l 746 416 m 803 946 l 549 854 l 515 928 l 750 1065 l 803 946 z "},"è":{"ha":1025,"x_min":52,"x_max":989,"o":"m 989 521 q 970 426 989 470 q 918 349 951 382 q 841 297 885 316 q 746 278 796 278 l 214 278 q 251 222 229 248 q 301 178 273 196 q 362 149 329 159 q 431 139 395 139 l 885 139 l 885 0 l 431 0 q 283 31 352 1 q 162 113 214 61 q 81 234 111 165 q 52 382 52 303 q 81 530 52 460 q 162 651 111 599 q 283 733 214 703 q 431 764 352 763 l 746 764 q 841 745 796 764 q 918 693 885 726 q 970 616 951 660 q 989 521 989 572 m 746 416 q 786 425 767 416 q 819 447 805 433 q 842 480 833 461 q 850 521 850 499 q 842 561 850 542 q 819 594 833 580 q 786 617 805 608 q 746 625 767 625 l 431 625 q 344 609 385 625 q 272 565 304 593 q 220 498 241 536 q 193 416 199 460 l 746 416 m 290 1065 l 525 928 l 492 854 l 237 946 l 290 1065 z "},"ê":{"ha":1025,"x_min":52,"x_max":989,"o":"m 989 521 q 970 426 989 470 q 918 349 951 382 q 841 297 885 316 q 746 278 796 278 l 214 278 q 251 222 229 248 q 301 178 273 196 q 362 149 329 159 q 431 139 395 139 l 885 139 l 885 0 l 431 0 q 283 31 352 1 q 162 113 214 61 q 81 234 111 165 q 52 382 52 303 q 81 530 52 460 q 162 651 111 599 q 283 733 214 703 q 431 764 352 763 l 746 764 q 841 745 796 764 q 918 693 885 726 q 970 616 951 660 q 989 521 989 572 m 746 416 q 786 425 767 416 q 819 447 805 433 q 842 480 833 461 q 850 521 850 499 q 842 561 850 542 q 819 594 833 580 q 786 617 805 608 q 746 625 767 625 l 431 625 q 344 609 385 625 q 272 565 304 593 q 220 498 241 536 q 193 416 199 460 l 746 416 m 682 854 l 512 943 l 343 854 l 297 924 l 512 1067 l 741 924 l 682 854 z "},"ë":{"ha":1025,"x_min":52,"x_max":989,"o":"m 989 521 q 970 426 989 470 q 918 349 951 382 q 841 297 885 316 q 746 278 796 278 l 214 278 q 251 222 229 248 q 301 178 273 196 q 362 149 329 159 q 431 139 395 139 l 885 139 l 885 0 l 431 0 q 283 31 352 1 q 162 113 214 61 q 81 234 111 165 q 52 382 52 303 q 81 530 52 460 q 162 651 111 599 q 283 733 214 703 q 431 764 352 763 l 746 764 q 841 745 796 764 q 918 693 885 726 q 970 616 951 660 q 989 521 989 572 m 746 416 q 786 425 767 416 q 819 447 805 433 q 842 480 833 461 q 850 521 850 499 q 842 561 850 542 q 819 594 833 580 q 786 617 805 608 q 746 625 767 625 l 431 625 q 344 609 385 625 q 272 565 304 593 q 220 498 241 536 q 193 416 199 460 l 746 416 m 469 920 q 464 895 469 907 q 451 875 459 884 q 431 862 442 867 q 407 857 419 857 q 382 862 394 857 q 362 875 371 867 q 348 895 353 884 q 343 920 343 907 q 348 943 343 932 q 362 963 353 955 q 382 977 371 972 q 407 982 394 982 q 431 977 419 982 q 451 963 442 972 q 464 943 459 955 q 469 920 469 932 m 696 920 q 691 895 696 907 q 677 875 686 884 q 656 862 668 867 q 632 857 645 857 q 608 862 619 857 q 588 875 596 867 q 574 895 579 884 q 570 920 570 907 q 574 943 570 932 q 588 963 579 955 q 608 977 596 972 q 632 982 619 982 q 656 977 645 982 q 677 963 668 972 q 691 943 686 955 q 696 920 696 932 z "},"í":{"ha":339,"x_min":100,"x_max":453,"o":"m 239 0 l 100 0 l 100 764 l 239 764 l 239 0 m 453 946 l 199 854 l 165 928 l 400 1065 l 453 946 z "},"ì":{"ha":339,"x_min":-112,"x_max":239,"o":"m 239 0 l 100 0 l 100 764 l 239 764 l 239 0 m -59 1065 l 176 928 l 142 854 l -112 946 l -59 1065 z "},"î":{"ha":339,"x_min":-52,"x_max":392,"o":"m 239 0 l 100 0 l 100 764 l 239 764 l 239 0 m 332 854 l 163 943 l -6 854 l -52 924 l 163 1067 l 392 924 l 332 854 z "},"ï":{"ha":339,"x_min":-6,"x_max":347,"o":"m 239 0 l 100 0 l 100 764 l 239 764 l 239 0 m 120 920 q 115 895 120 907 q 101 875 110 884 q 81 862 93 867 q 58 857 70 857 q 33 862 45 857 q 13 875 22 867 q -1 895 4 884 q -6 920 -6 907 q -1 943 -6 932 q 13 963 4 955 q 33 977 22 972 q 58 982 45 982 q 81 977 70 982 q 101 963 93 972 q 115 943 110 955 q 120 920 120 932 m 347 920 q 341 895 347 907 q 328 875 336 884 q 307 862 319 867 q 283 857 296 857 q 258 862 270 857 q 238 875 247 867 q 225 895 230 884 q 220 920 220 907 q 225 943 220 932 q 238 963 230 955 q 258 977 247 972 q 283 982 270 982 q 307 977 296 982 q 328 963 319 972 q 341 943 336 955 q 347 920 347 932 z "},"ñ":{"ha":1088,"x_min":100,"x_max":1000,"o":"m 239 0 l 100 0 l 100 764 l 621 764 q 768 733 699 764 q 889 651 838 703 q 970 530 941 600 q 1000 382 1000 460 l 1000 0 l 861 0 l 861 382 q 842 476 861 432 q 791 553 823 520 q 714 605 758 586 q 621 625 671 625 l 239 625 l 239 0 m 743 1019 q 733 941 743 972 q 706 889 723 909 q 667 862 690 870 q 619 853 644 853 q 575 862 593 853 q 543 882 557 871 q 516 902 529 893 q 488 911 504 911 q 464 904 473 911 q 451 887 456 897 q 445 867 446 877 q 443 853 444 858 l 357 853 q 367 926 357 895 q 394 978 377 957 q 433 1009 411 998 q 480 1019 456 1019 q 520 1010 503 1019 q 552 990 538 1001 q 581 970 567 979 q 612 961 595 961 q 635 968 627 961 q 648 985 644 975 q 654 1004 652 995 q 655 1019 655 1014 l 743 1019 z "},"ó":{"ha":1075,"x_min":52,"x_max":1023,"o":"m 1023 382 q 994 234 1023 303 q 912 113 964 165 q 792 31 861 61 q 644 0 723 1 l 431 0 q 283 31 352 1 q 162 113 214 61 q 81 234 111 165 q 52 382 52 303 q 81 530 52 460 q 162 651 111 600 q 283 733 214 703 q 431 764 352 764 l 644 764 q 745 750 696 764 q 836 711 794 736 q 913 651 878 686 q 972 574 947 616 q 1010 483 996 532 q 1023 382 1023 434 m 885 382 q 866 476 885 432 q 814 553 847 520 q 738 605 782 586 q 644 625 694 625 l 431 625 q 337 605 380 625 q 260 553 293 586 q 209 476 228 520 q 191 382 191 432 q 209 288 191 332 q 260 211 228 243 q 337 158 293 178 q 431 139 380 139 l 644 139 q 738 158 694 139 q 814 211 782 178 q 866 288 847 243 q 885 382 885 332 m 854 946 l 600 854 l 567 928 l 802 1065 l 854 946 z "},"ò":{"ha":1075,"x_min":52,"x_max":1023,"o":"m 1023 382 q 994 234 1023 303 q 912 113 964 165 q 792 31 861 61 q 644 0 723 1 l 431 0 q 283 31 352 1 q 162 113 214 61 q 81 234 111 165 q 52 382 52 303 q 81 530 52 460 q 162 651 111 600 q 283 733 214 703 q 431 764 352 764 l 644 764 q 745 750 696 764 q 836 711 794 736 q 913 651 878 686 q 972 574 947 616 q 1010 483 996 532 q 1023 382 1023 434 m 885 382 q 866 476 885 432 q 814 553 847 520 q 738 605 782 586 q 644 625 694 625 l 431 625 q 337 605 380 625 q 260 553 293 586 q 209 476 228 520 q 191 382 191 432 q 209 288 191 332 q 260 211 228 243 q 337 158 293 178 q 431 139 380 139 l 644 139 q 738 158 694 139 q 814 211 782 178 q 866 288 847 243 q 885 382 885 332 m 286 1065 l 521 928 l 488 854 l 233 946 l 286 1065 z "},"ô":{"ha":1075,"x_min":52,"x_max":1023,"o":"m 1023 382 q 994 234 1023 303 q 912 113 964 165 q 792 31 861 61 q 644 0 723 1 l 431 0 q 283 31 352 1 q 162 113 214 61 q 81 234 111 165 q 52 382 52 303 q 81 530 52 460 q 162 651 111 600 q 283 733 214 703 q 431 764 352 764 l 644 764 q 745 750 696 764 q 836 711 794 736 q 913 651 878 686 q 972 574 947 616 q 1010 483 996 532 q 1023 382 1023 434 m 885 382 q 866 476 885 432 q 814 553 847 520 q 738 605 782 586 q 644 625 694 625 l 431 625 q 337 605 380 625 q 260 553 293 586 q 209 476 228 520 q 191 382 191 432 q 209 288 191 332 q 260 211 228 243 q 337 158 293 178 q 431 139 380 139 l 644 139 q 738 158 694 139 q 814 211 782 178 q 866 288 847 243 q 885 382 885 332 m 693 854 l 524 943 l 355 854 l 309 924 l 524 1067 l 753 924 l 693 854 z "},"ö":{"ha":1075,"x_min":52,"x_max":1023,"o":"m 1023 382 q 994 234 1023 303 q 912 113 964 165 q 792 31 861 61 q 644 0 723 1 l 431 0 q 283 31 352 1 q 162 113 214 61 q 81 234 111 165 q 52 382 52 303 q 81 530 52 460 q 162 651 111 600 q 283 733 214 703 q 431 764 352 764 l 644 764 q 745 750 696 764 q 836 711 794 736 q 913 651 878 686 q 972 574 947 616 q 1010 483 996 532 q 1023 382 1023 434 m 885 382 q 866 476 885 432 q 814 553 847 520 q 738 605 782 586 q 644 625 694 625 l 431 625 q 337 605 380 625 q 260 553 293 586 q 209 476 228 520 q 191 382 191 432 q 209 288 191 332 q 260 211 228 243 q 337 158 293 178 q 431 139 380 139 l 644 139 q 738 158 694 139 q 814 211 782 178 q 866 288 847 243 q 885 382 885 332 m 480 920 q 475 895 480 907 q 461 875 470 884 q 441 862 453 867 q 418 857 430 857 q 393 862 405 857 q 373 875 382 867 q 359 895 364 884 q 354 920 354 907 q 359 943 354 932 q 373 963 364 955 q 393 977 382 972 q 418 982 405 982 q 441 977 430 982 q 461 963 453 972 q 475 943 470 955 q 480 920 480 932 m 707 920 q 702 895 707 907 q 688 875 696 884 q 667 862 679 867 q 643 857 656 857 q 618 862 630 857 q 598 875 607 867 q 585 895 590 884 q 581 920 581 907 q 585 943 581 932 q 598 963 590 955 q 618 977 607 972 q 643 982 630 982 q 667 977 656 982 q 688 963 679 972 q 702 943 696 955 q 707 920 707 932 z "},"õ":{"ha":1075,"x_min":52,"x_max":1023,"o":"m 1023 382 q 994 234 1023 303 q 912 113 964 165 q 792 31 861 61 q 644 0 723 1 l 431 0 q 283 31 352 1 q 162 113 214 61 q 81 234 111 165 q 52 382 52 303 q 81 530 52 460 q 162 651 111 600 q 283 733 214 703 q 431 764 352 764 l 644 764 q 745 750 696 764 q 836 711 794 736 q 913 651 878 686 q 972 574 947 616 q 1010 483 996 532 q 1023 382 1023 434 m 885 382 q 866 476 885 432 q 814 553 847 520 q 738 605 782 586 q 644 625 694 625 l 431 625 q 337 605 380 625 q 260 553 293 586 q 209 476 228 520 q 191 382 191 432 q 209 288 191 332 q 260 211 228 243 q 337 158 293 178 q 431 139 380 139 l 644 139 q 738 158 694 139 q 814 211 782 178 q 866 288 847 243 q 885 382 885 332 m 724 1019 q 714 941 724 972 q 687 889 704 909 q 648 862 671 870 q 600 853 625 853 q 556 862 574 853 q 524 882 538 871 q 497 902 510 893 q 469 911 485 911 q 445 904 454 911 q 432 887 437 897 q 426 867 427 877 q 424 853 425 858 l 338 853 q 348 926 338 895 q 375 978 358 957 q 414 1009 392 998 q 461 1019 437 1019 q 502 1010 484 1019 q 533 990 519 1001 q 562 970 548 979 q 593 961 576 961 q 616 968 608 961 q 629 985 625 975 q 635 1004 633 995 q 636 1019 636 1014 l 724 1019 z "},"ú":{"ha":1088,"x_min":87,"x_max":987,"o":"m 987 0 l 467 0 q 319 30 388 0 q 198 112 250 60 q 117 234 147 164 q 87 382 87 303 l 87 764 l 227 764 l 227 382 q 245 288 227 332 q 296 211 264 244 q 373 159 329 178 q 467 139 416 140 l 848 139 l 848 764 l 987 764 l 987 0 m 819 946 l 565 854 l 532 928 l 766 1065 l 819 946 z "},"ù":{"ha":1088,"x_min":87,"x_max":987,"o":"m 987 0 l 467 0 q 319 30 388 0 q 198 112 250 60 q 117 234 147 164 q 87 382 87 303 l 87 764 l 227 764 l 227 382 q 245 288 227 332 q 296 211 264 244 q 373 159 329 178 q 467 139 416 140 l 848 139 l 848 764 l 987 764 l 987 0 m 307 1065 l 542 928 l 509 854 l 254 946 l 307 1065 z "},"û":{"ha":1088,"x_min":87,"x_max":987,"o":"m 987 0 l 467 0 q 319 30 388 0 q 198 112 250 60 q 117 234 147 164 q 87 382 87 303 l 87 764 l 227 764 l 227 382 q 245 288 227 332 q 296 211 264 244 q 373 159 329 178 q 467 139 416 140 l 848 139 l 848 764 l 987 764 l 987 0 m 700 854 l 530 943 l 361 854 l 315 924 l 530 1067 l 760 924 l 700 854 z "},"ü":{"ha":1088,"x_min":87,"x_max":987,"o":"m 987 0 l 467 0 q 319 30 388 0 q 198 112 250 60 q 117 234 147 164 q 87 382 87 303 l 87 764 l 227 764 l 227 382 q 245 288 227 332 q 296 211 264 244 q 373 159 329 178 q 467 139 416 140 l 848 139 l 848 764 l 987 764 l 987 0 m 487 920 q 482 895 487 907 q 468 875 477 884 q 448 862 460 867 q 425 857 437 857 q 400 862 412 857 q 380 875 389 867 q 366 895 371 884 q 361 920 361 907 q 366 943 361 932 q 380 963 371 955 q 400 977 389 972 q 425 982 412 982 q 448 977 437 982 q 468 963 460 972 q 482 943 477 955 q 487 920 487 932 m 713 920 q 708 895 713 907 q 694 875 703 884 q 674 862 686 867 q 650 857 663 857 q 625 862 637 857 q 605 875 614 867 q 592 895 597 884 q 587 920 587 907 q 592 943 587 932 q 605 963 597 955 q 625 977 614 972 q 650 982 637 982 q 674 977 663 982 q 694 963 686 972 q 708 943 703 955 q 713 920 713 932 z "},"À":{"ha":1339,"x_min":100,"x_max":1222,"o":"m 1222 0 l 1083 0 l 1083 278 l 307 278 l 307 416 l 1083 416 l 1083 833 l 585 833 q 450 806 513 833 q 340 731 387 779 q 266 621 294 684 q 239 486 239 558 l 239 0 l 100 0 l 100 486 q 117 615 100 553 q 166 731 134 677 q 242 830 197 785 q 340 906 286 874 q 456 955 394 938 q 585 972 517 972 l 1222 972 l 1222 0 m 431 1260 l 665 1122 l 632 1049 l 378 1141 l 431 1260 z "},"Ã":{"ha":1339,"x_min":100,"x_max":1222,"o":"m 1222 0 l 1083 0 l 1083 278 l 307 278 l 307 416 l 1083 416 l 1083 833 l 585 833 q 450 806 513 833 q 340 731 387 779 q 266 621 294 684 q 239 486 239 558 l 239 0 l 100 0 l 100 486 q 117 615 100 553 q 166 731 134 677 q 242 830 197 785 q 340 906 286 874 q 456 955 394 938 q 585 972 517 972 l 1222 972 l 1222 0 m 854 1214 q 844 1135 854 1167 q 818 1084 834 1103 q 778 1056 801 1065 q 730 1048 755 1048 q 686 1057 704 1048 q 654 1077 668 1066 q 628 1097 640 1088 q 599 1106 615 1106 q 575 1099 584 1106 q 562 1081 567 1091 q 556 1062 557 1072 q 554 1048 555 1053 l 468 1048 q 478 1120 468 1089 q 505 1172 488 1152 q 545 1203 522 1193 q 591 1214 567 1214 q 632 1205 614 1214 q 664 1185 649 1196 q 692 1165 678 1174 q 724 1156 706 1156 q 746 1163 738 1156 q 759 1180 755 1170 q 765 1199 764 1190 q 766 1214 766 1208 l 854 1214 z "},"Õ":{"ha":1339,"x_min":61,"x_max":1278,"o":"m 1278 486 q 1246 296 1278 385 q 1155 142 1214 208 q 1015 38 1097 76 q 832 0 932 0 l 509 0 q 325 38 408 0 q 183 142 242 76 q 93 296 125 208 q 61 486 61 385 q 93 675 61 587 q 183 830 125 764 q 325 934 242 896 q 509 972 408 972 l 832 972 q 1015 934 932 972 q 1155 830 1097 896 q 1246 675 1214 764 q 1278 486 1278 587 m 1139 486 q 1118 621 1139 558 q 1057 731 1097 684 q 961 806 1017 779 q 832 833 904 833 l 509 833 q 379 806 437 833 q 282 731 322 779 q 221 621 243 684 q 200 486 200 558 q 221 351 200 414 q 282 240 243 288 q 379 166 322 193 q 509 139 437 139 l 832 139 q 961 166 904 139 q 1057 240 1017 193 q 1118 351 1097 288 q 1139 486 1139 414 m 862 1214 q 852 1135 862 1167 q 826 1084 842 1103 q 786 1056 809 1065 q 739 1048 764 1048 q 694 1057 712 1048 q 662 1077 676 1066 q 636 1097 648 1088 q 607 1106 623 1106 q 584 1099 592 1106 q 570 1081 575 1091 q 564 1062 566 1072 q 562 1048 563 1053 l 476 1048 q 486 1120 476 1089 q 513 1172 496 1152 q 553 1203 530 1193 q 600 1214 575 1214 q 640 1205 623 1214 q 672 1185 657 1196 q 700 1165 686 1174 q 732 1156 714 1156 q 754 1163 746 1156 q 767 1180 763 1170 q 773 1199 772 1190 q 774 1214 774 1208 l 862 1214 z "},"ÿ":{"ha":1088,"x_min":87,"x_max":987,"o":"m 987 -35 q 968 -130 987 -85 q 917 -207 949 -174 q 839 -259 884 -240 q 745 -278 795 -278 l 189 -278 l 189 -139 l 745 -139 q 785 -131 766 -139 q 818 -109 804 -123 q 840 -75 832 -94 q 848 -35 848 -56 l 848 0 l 467 0 q 319 30 388 0 q 198 112 250 60 q 117 234 147 164 q 87 382 87 303 l 87 764 l 227 764 l 227 382 q 245 288 227 332 q 296 211 264 244 q 373 159 329 178 q 467 139 416 140 l 848 139 l 848 764 l 987 764 l 987 -35 m 487 920 q 482 895 487 907 q 468 875 477 884 q 448 862 460 867 q 425 857 437 857 q 400 862 412 857 q 380 875 389 867 q 366 895 371 884 q 361 920 361 907 q 366 943 361 932 q 380 963 371 955 q 400 977 389 972 q 425 982 412 982 q 448 977 437 982 q 468 963 460 972 q 482 943 477 955 q 487 920 487 932 m 713 920 q 708 895 713 907 q 694 875 703 884 q 674 862 686 867 q 650 857 663 857 q 625 862 637 857 q 605 875 614 867 q 592 895 597 884 q 587 920 587 907 q 592 943 587 932 q 605 963 597 955 q 625 977 614 972 q 650 982 637 982 q 674 977 663 982 q 694 963 686 972 q 708 943 703 955 q 713 920 713 932 z "},"Ÿ":{"ha":1311,"x_min":79,"x_max":1203,"o":"m 1203 278 q 1176 169 1203 220 q 1101 81 1148 119 q 991 22 1054 43 q 856 0 928 0 l 79 0 l 79 139 l 856 139 q 937 150 899 139 q 1003 180 975 161 q 1047 224 1031 199 q 1064 278 1064 250 l 1064 347 l 427 347 q 291 374 355 347 q 181 449 228 401 q 106 559 134 496 q 79 694 79 623 l 79 972 l 218 972 l 218 694 q 235 613 218 651 q 279 547 251 575 q 345 503 307 519 q 427 486 383 486 l 1064 486 l 1064 972 l 1203 972 l 1203 278 m 590 1114 q 585 1090 590 1101 q 571 1070 580 1078 q 551 1057 563 1061 q 528 1052 540 1052 q 503 1057 515 1052 q 483 1070 492 1061 q 469 1090 474 1078 q 464 1114 464 1101 q 469 1138 464 1126 q 483 1158 474 1149 q 503 1172 492 1166 q 528 1177 515 1177 q 551 1172 540 1177 q 571 1158 563 1166 q 585 1138 580 1149 q 590 1114 590 1126 m 817 1114 q 811 1090 817 1101 q 798 1070 806 1078 q 777 1057 789 1061 q 753 1052 766 1052 q 728 1057 740 1052 q 708 1070 717 1061 q 695 1090 700 1078 q 690 1114 690 1101 q 695 1138 690 1126 q 708 1158 700 1149 q 728 1172 717 1166 q 753 1177 740 1177 q 777 1172 766 1177 q 798 1158 789 1166 q 811 1138 806 1149 q 817 1114 817 1126 z "},"Â":{"ha":1339,"x_min":100,"x_max":1222,"o":"m 1222 0 l 1083 0 l 1083 278 l 307 278 l 307 416 l 1083 416 l 1083 833 l 585 833 q 450 806 513 833 q 340 731 387 779 q 266 621 294 684 q 239 486 239 558 l 239 0 l 100 0 l 100 486 q 117 615 100 553 q 166 731 134 677 q 242 830 197 785 q 340 906 286 874 q 456 955 394 938 q 585 972 517 972 l 1222 972 l 1222 0 m 823 1049 l 654 1138 l 485 1049 l 439 1118 l 654 1261 l 883 1118 l 823 1049 z "},"Ê":{"ha":1178,"x_min":117,"x_max":1122,"o":"m 1122 0 l 117 0 l 117 972 l 1122 972 l 1122 833 l 256 833 l 256 139 l 1122 139 l 1122 0 m 1004 416 l 325 416 l 325 555 l 1004 555 l 1004 416 m 782 1049 l 612 1138 l 444 1049 l 397 1118 l 612 1261 l 842 1118 l 782 1049 z "},"Á":{"ha":1339,"x_min":100,"x_max":1222,"o":"m 1222 0 l 1083 0 l 1083 278 l 307 278 l 307 416 l 1083 416 l 1083 833 l 585 833 q 450 806 513 833 q 340 731 387 779 q 266 621 294 684 q 239 486 239 558 l 239 0 l 100 0 l 100 486 q 117 615 100 553 q 166 731 134 677 q 242 830 197 785 q 340 906 286 874 q 456 955 394 938 q 585 972 517 972 l 1222 972 l 1222 0 m 943 1141 l 689 1049 l 656 1122 l 890 1260 l 943 1141 z "},"Ë":{"ha":1178,"x_min":117,"x_max":1122,"o":"m 1122 0 l 117 0 l 117 972 l 1122 972 l 1122 833 l 256 833 l 256 139 l 1122 139 l 1122 0 m 1004 416 l 325 416 l 325 555 l 1004 555 l 1004 416 m 569 1114 q 564 1090 569 1101 q 550 1070 559 1078 q 530 1057 542 1061 q 507 1052 519 1052 q 482 1057 494 1052 q 462 1070 471 1061 q 448 1090 453 1078 q 443 1114 443 1101 q 448 1138 443 1126 q 462 1158 453 1149 q 482 1172 471 1166 q 507 1177 494 1177 q 530 1172 519 1177 q 550 1158 542 1166 q 564 1138 559 1149 q 569 1114 569 1126 m 795 1114 q 790 1090 795 1101 q 777 1070 785 1078 q 756 1057 768 1061 q 732 1052 745 1052 q 707 1057 719 1052 q 687 1070 696 1061 q 674 1090 679 1078 q 669 1114 669 1101 q 674 1138 669 1126 q 687 1158 679 1149 q 707 1172 696 1166 q 732 1177 719 1177 q 756 1172 745 1177 q 777 1158 768 1166 q 790 1138 785 1149 q 795 1114 795 1126 z "},"È":{"ha":1178,"x_min":117,"x_max":1122,"o":"m 1122 0 l 117 0 l 117 972 l 1122 972 l 1122 833 l 256 833 l 256 139 l 1122 139 l 1122 0 m 1004 416 l 325 416 l 325 555 l 1004 555 l 1004 416 m 389 1260 l 624 1122 l 591 1049 l 336 1141 l 389 1260 z "},"Í":{"ha":372,"x_min":117,"x_max":469,"o":"m 256 0 l 117 0 l 117 972 l 256 972 l 256 0 m 469 1141 l 215 1049 l 182 1122 l 416 1260 l 469 1141 z "},"Î":{"ha":372,"x_min":-35,"x_max":409,"o":"m 256 0 l 117 0 l 117 972 l 256 972 l 256 0 m 349 1049 l 180 1138 l 11 1049 l -35 1118 l 180 1261 l 409 1118 l 349 1049 z "},"Ï":{"ha":372,"x_min":9,"x_max":362,"o":"m 256 0 l 117 0 l 117 972 l 256 972 l 256 0 m 136 1114 q 131 1090 136 1101 q 117 1070 125 1078 q 97 1057 109 1061 q 73 1052 85 1052 q 49 1057 60 1052 q 28 1070 37 1061 q 15 1090 20 1078 q 9 1114 9 1101 q 15 1138 9 1126 q 28 1158 20 1149 q 49 1172 37 1166 q 73 1177 60 1177 q 97 1172 85 1177 q 117 1158 109 1166 q 131 1138 125 1149 q 136 1114 136 1126 m 362 1114 q 357 1090 362 1101 q 343 1070 352 1078 q 323 1057 334 1061 q 298 1052 311 1052 q 274 1057 286 1052 q 254 1070 262 1061 q 241 1090 245 1078 q 236 1114 236 1101 q 241 1138 236 1126 q 254 1158 245 1149 q 274 1172 262 1166 q 298 1177 286 1177 q 323 1172 311 1177 q 343 1158 334 1166 q 357 1138 352 1149 q 362 1114 362 1126 z "},"Ì":{"ha":372,"x_min":-95,"x_max":256,"o":"m 256 0 l 117 0 l 117 972 l 256 972 l 256 0 m -42 1260 l 193 1122 l 159 1049 l -95 1141 l -42 1260 z "},"Ó":{"ha":1339,"x_min":61,"x_max":1278,"o":"m 1278 486 q 1246 296 1278 385 q 1155 142 1214 208 q 1015 38 1097 76 q 832 0 932 0 l 509 0 q 325 38 408 0 q 183 142 242 76 q 93 296 125 208 q 61 486 61 385 q 93 675 61 587 q 183 830 125 764 q 325 934 242 896 q 509 972 408 972 l 832 972 q 1015 934 932 972 q 1155 830 1097 896 q 1246 675 1214 764 q 1278 486 1278 587 m 1139 486 q 1118 621 1139 558 q 1057 731 1097 684 q 961 806 1017 779 q 832 833 904 833 l 509 833 q 379 806 437 833 q 282 731 322 779 q 221 621 243 684 q 200 486 200 558 q 221 351 200 414 q 282 240 243 288 q 379 166 322 193 q 509 139 437 139 l 832 139 q 961 166 904 139 q 1057 240 1017 193 q 1118 351 1097 288 q 1139 486 1139 414 m 951 1141 l 697 1049 l 664 1122 l 899 1260 l 951 1141 z "},"Ô":{"ha":1339,"x_min":61,"x_max":1278,"o":"m 1278 486 q 1246 296 1278 385 q 1155 142 1214 208 q 1015 38 1097 76 q 832 0 932 0 l 509 0 q 325 38 408 0 q 183 142 242 76 q 93 296 125 208 q 61 486 61 385 q 93 675 61 587 q 183 830 125 764 q 325 934 242 896 q 509 972 408 972 l 832 972 q 1015 934 932 972 q 1155 830 1097 896 q 1246 675 1214 764 q 1278 486 1278 587 m 1139 486 q 1118 621 1139 558 q 1057 731 1097 684 q 961 806 1017 779 q 832 833 904 833 l 509 833 q 379 806 437 833 q 282 731 322 779 q 221 621 243 684 q 200 486 200 558 q 221 351 200 414 q 282 240 243 288 q 379 166 322 193 q 509 139 437 139 l 832 139 q 961 166 904 139 q 1057 240 1017 193 q 1118 351 1097 288 q 1139 486 1139 414 m 831 1049 l 662 1138 l 493 1049 l 447 1118 l 662 1261 l 891 1118 l 831 1049 z "},"Ò":{"ha":1339,"x_min":61,"x_max":1278,"o":"m 1278 486 q 1246 296 1278 385 q 1155 142 1214 208 q 1015 38 1097 76 q 832 0 932 0 l 509 0 q 325 38 408 0 q 183 142 242 76 q 93 296 125 208 q 61 486 61 385 q 93 675 61 587 q 183 830 125 764 q 325 934 242 896 q 509 972 408 972 l 832 972 q 1015 934 932 972 q 1155 830 1097 896 q 1246 675 1214 764 q 1278 486 1278 587 m 1139 486 q 1118 621 1139 558 q 1057 731 1097 684 q 961 806 1017 779 q 832 833 904 833 l 509 833 q 379 806 437 833 q 282 731 322 779 q 221 621 243 684 q 200 486 200 558 q 221 351 200 414 q 282 240 243 288 q 379 166 322 193 q 509 139 437 139 l 832 139 q 961 166 904 139 q 1057 240 1017 193 q 1118 351 1097 288 q 1139 486 1139 414 m 439 1260 l 673 1122 l 640 1049 l 386 1141 l 439 1260 z "},"Ú":{"ha":1242,"x_min":85,"x_max":1158,"o":"m 1158 972 l 1157 486 q 1140 356 1157 418 q 1091 240 1122 294 q 1015 142 1059 186 q 917 66 970 98 q 801 17 863 35 q 672 0 739 0 l 570 0 q 440 17 503 0 q 325 66 378 35 q 227 143 271 98 q 151 241 182 187 q 102 357 119 295 q 85 486 85 419 l 85 972 l 224 972 l 224 486 q 251 351 224 414 q 325 240 278 288 q 435 166 372 193 q 570 139 498 139 l 672 139 q 807 166 744 139 q 917 240 870 193 q 991 351 964 288 q 1018 486 1018 414 l 1018 972 l 1157 972 l 1158 972 m 904 1141 l 650 1049 l 616 1122 l 851 1260 l 904 1141 z "},"Û":{"ha":1242,"x_min":85,"x_max":1158,"o":"m 1158 972 l 1157 486 q 1140 356 1157 418 q 1091 240 1122 294 q 1015 142 1059 186 q 917 66 970 98 q 801 17 863 35 q 672 0 739 0 l 570 0 q 440 17 503 0 q 325 66 378 35 q 227 143 271 98 q 151 241 182 187 q 102 357 119 295 q 85 486 85 419 l 85 972 l 224 972 l 224 486 q 251 351 224 414 q 325 240 278 288 q 435 166 372 193 q 570 139 498 139 l 672 139 q 807 166 744 139 q 917 240 870 193 q 991 351 964 288 q 1018 486 1018 414 l 1018 972 l 1157 972 l 1158 972 m 783 1049 l 614 1138 l 445 1049 l 399 1118 l 614 1261 l 843 1118 l 783 1049 z "},"Ù":{"ha":1242,"x_min":85,"x_max":1158,"o":"m 1158 972 l 1157 486 q 1140 356 1157 418 q 1091 240 1122 294 q 1015 142 1059 186 q 917 66 970 98 q 801 17 863 35 q 672 0 739 0 l 570 0 q 440 17 503 0 q 325 66 378 35 q 227 143 271 98 q 151 241 182 187 q 102 357 119 295 q 85 486 85 419 l 85 972 l 224 972 l 224 486 q 251 351 224 414 q 325 240 278 288 q 435 166 372 193 q 570 139 498 139 l 672 139 q 807 166 744 139 q 917 240 870 193 q 991 351 964 288 q 1018 486 1018 414 l 1018 972 l 1157 972 l 1158 972 m 392 1260 l 627 1122 l 593 1049 l 339 1141 l 392 1260 z "},"…":{"ha":1083,"x_min":77,"x_max":1007,"o":"m 285 104 q 276 64 285 83 q 254 31 268 45 q 220 8 239 16 q 180 0 201 0 q 140 8 159 0 q 107 31 121 16 q 85 64 93 45 q 77 104 77 83 q 85 144 77 125 q 107 178 93 163 q 140 200 121 192 q 180 208 159 208 q 220 200 201 208 q 254 178 239 192 q 276 144 268 163 q 285 104 285 125 m 646 104 q 637 64 646 83 q 615 31 629 45 q 582 8 601 16 q 542 0 563 0 q 501 8 520 0 q 468 31 482 16 q 446 64 454 45 q 437 104 437 83 q 446 144 437 125 q 468 178 454 163 q 501 200 482 192 q 542 208 520 208 q 582 200 563 208 q 615 178 601 192 q 637 144 629 163 q 646 104 646 125 m 1007 104 q 999 64 1007 83 q 976 31 990 45 q 943 8 962 16 q 903 0 924 0 q 862 8 881 0 q 829 31 844 16 q 807 64 815 45 q 799 104 799 83 q 807 144 799 125 q 829 178 815 163 q 862 200 844 192 q 903 208 881 208 q 943 200 924 208 q 976 178 962 192 q 999 144 990 163 q 1007 104 1007 125 z "},"ﬁ":{"ha":1225,"x_min":100,"x_max":1160,"o":"m 864 903 l 479 903 q 386 883 429 902 q 309 830 342 863 q 258 753 277 798 q 239 660 239 709 l 239 0 l 100 0 l 100 694 q 131 831 100 768 q 215 941 163 895 q 336 1014 268 987 q 479 1042 405 1041 l 864 1042 l 864 903 m 1125 0 l 986 0 l 986 555 l 309 555 l 309 694 l 1125 694 l 1125 0 m 1160 937 q 1151 897 1160 916 q 1128 864 1143 878 q 1095 842 1114 850 q 1055 833 1076 833 q 1015 842 1034 833 q 982 864 996 850 q 960 897 968 878 q 951 937 951 916 q 960 977 951 958 q 982 1010 968 996 q 1015 1033 996 1025 q 1055 1042 1034 1042 q 1095 1033 1076 1042 q 1128 1010 1114 1025 q 1151 977 1143 996 q 1160 937 1160 958 z "},"ﬂ":{"ha":1279,"x_min":100,"x_max":1258,"o":"m 1258 0 l 1223 0 q 1129 19 1173 0 q 1052 71 1084 38 q 1000 148 1019 104 q 981 243 981 193 l 981 903 l 479 903 q 386 883 429 902 q 309 830 342 863 q 258 753 277 798 q 239 660 239 709 l 239 0 l 100 0 l 100 694 q 131 831 100 768 q 215 941 163 895 q 336 1014 268 987 q 479 1042 405 1041 l 1120 1042 l 1120 243 q 1128 202 1120 221 q 1150 170 1136 184 q 1183 147 1164 155 q 1223 139 1202 139 l 1258 139 l 1258 0 m 864 555 l 309 555 l 309 694 l 864 694 l 864 555 z "}," ":{"ha":521,"x_min":0,"x_max":0,"o":""},"­":{"ha":942,"x_min":89,"x_max":852,"o":"m 852 416 l 89 416 l 89 555 l 852 555 l 852 416 z "},"̒":{"ha":351,"x_min":94,"x_max":261,"o":"m 94 987 q 102 1040 95 1015 q 119 1084 110 1065 q 142 1126 129 1107 l 212 1125 q 204 1109 208 1118 q 197 1090 201 1102 q 189 1065 193 1079 q 217 1056 204 1063 q 240 1038 231 1049 q 255 1013 250 1027 q 261 983 261 999 q 255 951 261 966 q 237 924 248 936 q 210 906 225 913 q 178 900 195 900 q 145 906 161 900 q 119 925 130 913 q 101 952 108 937 q 94 987 94 968 z "},"̕":{"ha":349,"x_min":89,"x_max":256,"o":"m 256 1039 q 247 986 254 1011 q 231 942 239 962 q 208 900 220 920 l 138 901 q 146 917 142 908 q 160 960 153 932 q 132 969 144 962 q 109 987 119 976 q 94 1013 100 998 q 89 1043 89 1027 q 95 1075 89 1060 q 113 1101 102 1090 q 140 1120 125 1113 q 172 1126 155 1126 q 204 1120 189 1126 q 231 1101 220 1113 q 249 1073 243 1089 q 256 1039 256 1057 z "},"̦":{"ha":366,"x_min":98,"x_max":265,"o":"m 265 -212 q 257 -265 264 -240 q 241 -309 250 -290 q 218 -351 231 -332 l 147 -350 q 155 -334 151 -343 q 162 -316 159 -327 q 170 -292 166 -305 q 119 -264 139 -288 q 98 -208 98 -241 q 105 -177 98 -192 q 123 -150 112 -161 q 150 -132 134 -138 q 182 -125 165 -125 q 214 -132 199 -125 q 241 -150 229 -138 q 259 -178 252 -162 q 265 -212 265 -194 z "},"ȷ":{"ha":339,"x_min":-317,"x_max":239,"o":"m 239 -35 q 220 -130 239 -85 q 168 -207 201 -174 q 91 -259 135 -240 q -4 -278 47 -278 l -317 -278 l -317 -139 l -4 -139 q 36 -131 17 -139 q 69 -109 55 -123 q 92 -75 83 -94 q 100 -35 100 -56 l 100 764 l 239 764 l 239 -35 z "},"¤":{"ha":743,"x_min":72,"x_max":671,"o":"m 488 500 q 478 545 488 524 q 454 581 469 566 q 417 606 438 597 q 372 615 396 615 q 327 606 349 615 q 290 581 306 597 q 265 545 274 566 q 256 500 256 524 q 265 455 256 476 q 290 418 274 434 q 327 394 306 403 q 372 385 349 385 q 417 394 396 385 q 454 418 438 403 q 478 455 469 434 q 488 500 488 476 m 671 321 l 578 224 l 492 301 q 435 276 466 285 q 372 268 405 268 q 308 277 338 268 q 250 301 277 286 l 164 224 l 72 321 l 161 401 q 140 500 140 446 q 146 551 140 526 q 163 599 151 577 l 72 682 l 164 779 l 253 699 q 309 723 279 714 q 372 732 338 732 q 434 723 405 732 q 489 699 463 714 l 578 779 l 671 682 l 579 600 q 603 500 603 554 q 597 448 603 473 q 581 401 591 423 l 671 321 z "},"Ā":{"ha":1339,"x_min":100,"x_max":1222,"o":"m 1222 0 l 1083 0 l 1083 278 l 307 278 l 307 416 l 1083 416 l 1083 833 l 585 833 q 450 806 513 833 q 340 731 387 779 q 266 621 294 684 q 239 486 239 558 l 239 0 l 100 0 l 100 486 q 117 615 100 553 q 166 731 134 677 q 242 830 197 785 q 340 906 286 874 q 456 955 394 938 q 585 972 517 972 l 1222 972 l 1222 0 m 505 1059 l 505 1173 l 833 1173 l 833 1059 l 505 1059 z "},"Ă":{"ha":1339,"x_min":100,"x_max":1222,"o":"m 1222 0 l 1083 0 l 1083 278 l 307 278 l 307 416 l 1083 416 l 1083 833 l 585 833 q 450 806 513 833 q 340 731 387 779 q 266 621 294 684 q 239 486 239 558 l 239 0 l 100 0 l 100 486 q 117 615 100 553 q 166 731 134 677 q 242 830 197 785 q 340 906 286 874 q 456 955 394 938 q 585 972 517 972 l 1222 972 l 1222 0 m 868 1239 q 864 1208 867 1227 q 852 1169 861 1190 q 831 1128 844 1149 q 795 1090 817 1107 q 742 1064 773 1074 q 669 1053 711 1053 q 596 1064 627 1053 q 544 1090 566 1074 q 508 1128 522 1107 q 486 1169 494 1149 q 475 1208 478 1190 q 471 1239 471 1227 l 562 1239 q 571 1218 565 1230 q 590 1194 578 1205 q 621 1175 602 1183 q 669 1167 640 1167 q 718 1175 699 1167 q 749 1194 737 1183 q 768 1218 762 1205 q 777 1239 774 1230 l 868 1239 z "},"Ą":{"ha":1339,"x_min":100,"x_max":1305,"o":"m 1222 0 l 1196 0 q 1159 -44 1172 -20 q 1146 -89 1146 -68 q 1158 -114 1146 -106 q 1198 -122 1170 -122 q 1225 -120 1211 -122 q 1255 -114 1240 -117 q 1283 -105 1270 -110 q 1305 -97 1296 -101 l 1305 -187 q 1284 -194 1296 -190 q 1255 -201 1272 -197 q 1217 -207 1238 -205 q 1168 -210 1196 -210 q 1119 -205 1142 -210 q 1079 -189 1096 -200 q 1052 -161 1061 -178 q 1042 -118 1042 -144 q 1045 -90 1042 -106 q 1055 -59 1048 -75 q 1072 -27 1061 -43 q 1099 0 1083 -12 l 1083 0 l 1083 278 l 307 278 l 307 416 l 1083 416 l 1083 833 l 585 833 q 450 806 513 833 q 340 731 387 779 q 266 621 294 684 q 239 486 239 558 l 239 0 l 100 0 l 100 486 q 117 615 100 553 q 166 731 134 677 q 242 830 197 785 q 340 906 286 874 q 456 955 394 938 q 585 972 517 972 l 1222 972 l 1222 0 z "},"Ć":{"ha":1186,"x_min":61,"x_max":1135,"o":"m 1135 0 l 509 0 q 325 38 408 0 q 183 142 242 76 q 93 296 125 208 q 61 486 61 385 q 93 675 61 587 q 183 830 125 764 q 325 934 242 896 q 509 972 408 972 l 1135 972 l 1135 833 l 509 833 q 379 806 437 833 q 282 731 322 779 q 221 621 243 684 q 200 486 200 558 q 221 351 200 414 q 282 240 243 288 q 379 166 322 193 q 509 139 437 139 l 1135 139 l 1135 0 m 945 1141 l 690 1049 l 657 1122 l 892 1260 l 945 1141 z "},"Ĉ":{"ha":1186,"x_min":61,"x_max":1135,"o":"m 1135 0 l 509 0 q 325 38 408 0 q 183 142 242 76 q 93 296 125 208 q 61 486 61 385 q 93 675 61 587 q 183 830 125 764 q 325 934 242 896 q 509 972 408 972 l 1135 972 l 1135 833 l 509 833 q 379 806 437 833 q 282 731 322 779 q 221 621 243 684 q 200 486 200 558 q 221 351 200 414 q 282 240 243 288 q 379 166 322 193 q 509 139 437 139 l 1135 139 l 1135 0 m 839 1049 l 669 1138 l 500 1049 l 454 1118 l 669 1261 l 899 1118 l 839 1049 z "},"Ċ":{"ha":1186,"x_min":61,"x_max":1135,"o":"m 1135 0 l 509 0 q 325 38 408 0 q 183 142 242 76 q 93 296 125 208 q 61 486 61 385 q 93 675 61 587 q 183 830 125 764 q 325 934 242 896 q 509 972 408 972 l 1135 972 l 1135 833 l 509 833 q 379 806 437 833 q 282 731 322 779 q 221 621 243 684 q 200 486 200 558 q 221 351 200 414 q 282 240 243 288 q 379 166 322 193 q 509 139 437 139 l 1135 139 l 1135 0 m 739 1114 q 733 1090 739 1101 q 720 1070 728 1078 q 700 1057 711 1061 q 676 1052 688 1052 q 652 1057 663 1052 q 632 1070 640 1061 q 618 1090 623 1078 q 614 1114 614 1101 q 618 1138 614 1126 q 632 1158 623 1149 q 652 1172 640 1166 q 676 1177 663 1177 q 700 1172 688 1177 q 720 1158 711 1166 q 733 1138 728 1149 q 739 1114 739 1126 z "},"Č":{"ha":1186,"x_min":61,"x_max":1135,"o":"m 1135 0 l 509 0 q 325 38 408 0 q 183 142 242 76 q 93 296 125 208 q 61 486 61 385 q 93 675 61 587 q 183 830 125 764 q 325 934 242 896 q 509 972 408 972 l 1135 972 l 1135 833 l 509 833 q 379 806 437 833 q 282 731 322 779 q 221 621 243 684 q 200 486 200 558 q 221 351 200 414 q 282 240 243 288 q 379 166 322 193 q 509 139 437 139 l 1135 139 l 1135 0 m 507 1247 l 676 1160 l 846 1247 l 892 1179 l 676 1035 l 461 1179 l 507 1247 z "},"Ď":{"ha":1324,"x_min":117,"x_max":1263,"o":"m 1263 486 q 1231 296 1263 385 q 1139 142 1198 208 q 998 38 1080 76 q 815 0 916 0 l 325 0 l 325 139 l 815 139 q 944 166 887 139 q 1041 240 1002 193 q 1102 351 1081 288 q 1124 486 1124 414 q 1102 621 1124 558 q 1041 731 1081 684 q 944 806 1002 779 q 815 833 887 833 l 256 833 l 256 0 l 117 0 l 117 972 l 815 972 q 998 934 916 972 q 1139 830 1080 896 q 1231 675 1198 764 q 1263 486 1263 587 m 492 1247 l 661 1160 l 830 1247 l 876 1179 l 661 1035 l 446 1179 l 492 1247 z "},"Đ":{"ha":1386,"x_min":-1,"x_max":1325,"o":"m 762 416 l 318 416 l 318 0 l 179 0 l 179 416 l -1 416 l -1 555 l 179 555 l 179 972 l 878 972 q 1061 934 978 972 q 1202 830 1143 896 q 1293 675 1261 764 q 1325 486 1325 587 q 1293 296 1325 385 q 1202 142 1261 208 q 1061 38 1143 76 q 878 0 978 0 l 387 0 l 387 139 l 878 139 q 1007 166 949 139 q 1104 240 1064 193 q 1165 351 1143 288 q 1186 486 1186 414 q 1165 621 1186 558 q 1104 731 1143 684 q 1007 806 1064 779 q 878 833 949 833 l 318 833 l 318 555 l 762 555 l 762 416 z "},"Ē":{"ha":1178,"x_min":117,"x_max":1122,"o":"m 1122 0 l 117 0 l 117 972 l 1122 972 l 1122 833 l 256 833 l 256 139 l 1122 139 l 1122 0 m 1004 416 l 325 416 l 325 555 l 1004 555 l 1004 416 m 467 1059 l 467 1173 l 794 1173 l 794 1059 l 467 1059 z "},"Ĕ":{"ha":1178,"x_min":117,"x_max":1122,"o":"m 1122 0 l 117 0 l 117 972 l 1122 972 l 1122 833 l 256 833 l 256 139 l 1122 139 l 1122 0 m 1004 416 l 325 416 l 325 555 l 1004 555 l 1004 416 m 829 1239 q 825 1208 829 1227 q 814 1169 822 1190 q 792 1128 806 1149 q 756 1090 779 1107 q 704 1064 734 1074 q 631 1053 673 1053 q 558 1064 589 1053 q 505 1090 527 1074 q 469 1128 483 1107 q 448 1169 456 1149 q 436 1208 439 1190 q 432 1239 433 1227 l 524 1239 q 533 1218 526 1230 q 551 1194 539 1205 q 582 1175 563 1183 q 631 1167 602 1167 q 679 1175 660 1167 q 711 1194 699 1183 q 729 1218 723 1205 q 738 1239 735 1230 l 829 1239 z "},"Ė":{"ha":1178,"x_min":117,"x_max":1122,"o":"m 1122 0 l 117 0 l 117 972 l 1122 972 l 1122 833 l 256 833 l 256 139 l 1122 139 l 1122 0 m 1004 416 l 325 416 l 325 555 l 1004 555 l 1004 416 m 693 1114 q 688 1090 693 1101 q 674 1070 683 1078 q 654 1057 666 1061 q 631 1052 643 1052 q 606 1057 618 1052 q 586 1070 595 1061 q 573 1090 578 1078 q 568 1114 568 1101 q 573 1138 568 1126 q 586 1158 578 1149 q 606 1172 595 1166 q 631 1177 618 1177 q 654 1172 643 1177 q 674 1158 666 1166 q 688 1138 683 1149 q 693 1114 693 1126 z "},"Ę":{"ha":1178,"x_min":117,"x_max":1122,"o":"m 1122 0 l 1013 0 q 976 -44 989 -20 q 962 -89 962 -68 q 975 -114 962 -106 q 1015 -122 987 -122 q 1042 -120 1027 -122 q 1071 -114 1057 -117 q 1099 -105 1086 -110 q 1122 -97 1113 -101 l 1122 -187 q 1101 -194 1113 -190 q 1072 -201 1088 -197 q 1034 -207 1055 -205 q 985 -210 1013 -210 q 936 -205 959 -210 q 896 -189 913 -200 q 868 -161 878 -178 q 859 -118 859 -144 q 862 -90 859 -106 q 871 -59 865 -75 q 889 -27 878 -43 q 916 0 900 -12 l 117 0 l 117 972 l 1122 972 l 1122 833 l 256 833 l 256 139 l 1122 139 l 1122 0 m 1004 416 l 325 416 l 325 555 l 1004 555 l 1004 416 z "},"Ě":{"ha":1178,"x_min":117,"x_max":1122,"o":"m 1122 0 l 117 0 l 117 972 l 1122 972 l 1122 833 l 256 833 l 256 139 l 1122 139 l 1122 0 m 1004 416 l 325 416 l 325 555 l 1004 555 l 1004 416 m 461 1247 l 630 1160 l 800 1247 l 846 1179 l 630 1035 l 415 1179 l 461 1247 z "},"Ĝ":{"ha":1225,"x_min":61,"x_max":1135,"o":"m 1135 0 l 509 0 q 325 38 408 0 q 183 142 242 76 q 93 296 125 208 q 61 486 61 385 q 93 675 61 587 q 183 830 125 764 q 325 934 242 896 q 509 972 408 972 l 1135 972 l 1135 833 l 509 833 q 379 806 437 833 q 282 731 322 779 q 221 621 243 684 q 200 486 200 558 q 221 351 200 414 q 282 240 243 288 q 379 166 322 193 q 509 139 437 139 l 996 139 l 996 416 l 407 416 l 407 555 l 1135 555 l 1135 0 m 817 1049 l 647 1138 l 478 1049 l 432 1118 l 647 1261 l 876 1118 l 817 1049 z "},"Ğ":{"ha":1225,"x_min":61,"x_max":1135,"o":"m 1135 0 l 509 0 q 325 38 408 0 q 183 142 242 76 q 93 296 125 208 q 61 486 61 385 q 93 675 61 587 q 183 830 125 764 q 325 934 242 896 q 509 972 408 972 l 1135 972 l 1135 833 l 509 833 q 379 806 437 833 q 282 731 322 779 q 221 621 243 684 q 200 486 200 558 q 221 351 200 414 q 282 240 243 288 q 379 166 322 193 q 509 139 437 139 l 996 139 l 996 416 l 407 416 l 407 555 l 1135 555 l 1135 0 m 853 1239 q 849 1208 852 1227 q 838 1169 846 1190 q 816 1128 829 1149 q 780 1090 802 1107 q 727 1064 758 1074 q 654 1053 696 1053 q 582 1064 612 1053 q 529 1090 551 1074 q 493 1128 507 1107 q 471 1169 479 1149 q 460 1208 463 1190 q 456 1239 456 1227 l 547 1239 q 556 1218 550 1230 q 575 1194 563 1205 q 606 1175 587 1183 q 654 1167 625 1167 q 703 1175 684 1167 q 734 1194 722 1183 q 753 1218 747 1205 q 762 1239 759 1230 l 853 1239 z "},"Ġ":{"ha":1225,"x_min":61,"x_max":1135,"o":"m 1135 0 l 509 0 q 325 38 408 0 q 183 142 242 76 q 93 296 125 208 q 61 486 61 385 q 93 675 61 587 q 183 830 125 764 q 325 934 242 896 q 509 972 408 972 l 1135 972 l 1135 833 l 509 833 q 379 806 437 833 q 282 731 322 779 q 221 621 243 684 q 200 486 200 558 q 221 351 200 414 q 282 240 243 288 q 379 166 322 193 q 509 139 437 139 l 996 139 l 996 416 l 407 416 l 407 555 l 1135 555 l 1135 0 m 716 1114 q 711 1090 716 1101 q 697 1070 706 1078 q 677 1057 689 1061 q 654 1052 666 1052 q 629 1057 641 1052 q 609 1070 618 1061 q 596 1090 601 1078 q 591 1114 591 1101 q 596 1138 591 1126 q 609 1158 601 1149 q 629 1172 618 1166 q 654 1177 641 1177 q 677 1172 666 1177 q 697 1158 689 1166 q 711 1138 706 1149 q 716 1114 716 1126 z "},"Ģ":{"ha":1225,"x_min":61,"x_max":1135,"o":"m 1135 0 l 509 0 q 325 38 408 0 q 183 142 242 76 q 93 296 125 208 q 61 486 61 385 q 93 675 61 587 q 183 830 125 764 q 325 934 242 896 q 509 972 408 972 l 1135 972 l 1135 833 l 509 833 q 379 806 437 833 q 282 731 322 779 q 221 621 243 684 q 200 486 200 558 q 221 351 200 414 q 282 240 243 288 q 379 166 322 193 q 509 139 437 139 l 996 139 l 996 416 l 407 416 l 407 555 l 1135 555 l 1135 0 m 737 -171 q 729 -223 736 -199 q 713 -268 722 -248 q 690 -310 703 -290 l 619 -309 q 627 -293 623 -302 q 634 -275 631 -286 q 642 -250 638 -264 q 591 -223 611 -246 q 570 -167 570 -199 q 577 -135 570 -151 q 595 -109 584 -120 q 622 -90 606 -97 q 654 -83 637 -83 q 686 -90 671 -83 q 713 -109 701 -97 q 731 -137 724 -121 q 737 -171 737 -153 z "},"Ĥ":{"ha":1260,"x_min":117,"x_max":1143,"o":"m 1143 0 l 1004 0 l 1004 416 l 325 416 l 325 555 l 1004 555 l 1004 972 l 1143 972 l 1143 0 m 256 0 l 117 0 l 117 972 l 256 972 l 256 0 m 806 1049 l 636 1138 l 467 1049 l 421 1118 l 636 1261 l 865 1118 l 806 1049 z "},"Ħ":{"ha":1260,"x_min":117,"x_max":1143,"o":"m 256 791 l 946 791 l 946 653 l 256 653 l 256 0 l 117 0 l 117 972 l 256 972 l 256 791 m 1143 0 l 1004 0 l 1004 416 l 325 416 l 325 555 l 1004 555 l 1004 972 l 1143 972 l 1143 0 z "},"Ĩ":{"ha":372,"x_min":-6,"x_max":380,"o":"m 256 0 l 117 0 l 117 972 l 256 972 l 256 0 m 380 1214 q 370 1135 380 1167 q 343 1084 360 1103 q 304 1056 327 1065 q 256 1048 281 1048 q 212 1057 230 1048 q 180 1077 194 1066 q 154 1097 166 1088 q 125 1106 141 1106 q 101 1099 110 1106 q 88 1081 93 1091 q 82 1062 83 1072 q 80 1048 81 1053 l -6 1048 q 4 1120 -6 1089 q 31 1172 14 1152 q 71 1203 48 1193 q 117 1214 93 1214 q 158 1205 140 1214 q 190 1185 175 1196 q 218 1165 204 1174 q 250 1156 232 1156 q 272 1163 264 1156 q 285 1180 281 1170 q 291 1199 290 1190 q 292 1214 292 1208 l 380 1214 z "},"Ī":{"ha":372,"x_min":22,"x_max":350,"o":"m 256 0 l 117 0 l 117 972 l 256 972 l 256 0 m 22 1059 l 22 1173 l 350 1173 l 350 1059 l 22 1059 z "},"Ĭ":{"ha":372,"x_min":-12,"x_max":386,"o":"m 256 0 l 117 0 l 117 972 l 256 972 l 256 0 m 386 1239 q 382 1208 385 1227 q 370 1169 378 1190 q 349 1128 362 1149 q 313 1090 335 1107 q 260 1064 291 1074 q 187 1053 229 1053 q 114 1064 145 1053 q 61 1090 83 1074 q 26 1128 39 1107 q 4 1169 12 1149 q -7 1208 -4 1190 q -12 1239 -11 1227 l 80 1239 q 89 1218 83 1230 q 107 1194 96 1205 q 139 1175 119 1183 q 187 1167 158 1167 q 236 1175 216 1167 q 267 1194 255 1183 q 286 1218 279 1205 q 294 1239 292 1230 l 386 1239 z "},"Į":{"ha":372,"x_min":75,"x_max":339,"o":"m 256 0 l 229 0 q 192 -44 205 -20 q 179 -89 179 -68 q 191 -114 179 -106 q 232 -122 203 -122 q 259 -120 244 -122 q 288 -114 273 -117 q 316 -105 302 -110 q 339 -97 330 -101 l 339 -187 q 317 -194 330 -190 q 289 -201 305 -197 q 251 -207 272 -205 q 201 -210 229 -210 q 153 -205 176 -210 q 112 -189 130 -200 q 85 -161 95 -178 q 75 -118 75 -144 q 78 -90 75 -106 q 88 -59 81 -75 q 106 -27 95 -43 q 132 0 117 -12 l 117 0 l 117 972 l 256 972 l 256 0 z "},"İ":{"ha":372,"x_min":117,"x_max":256,"o":"m 256 0 l 117 0 l 117 972 l 256 972 l 256 0 m 248 1122 q 243 1098 248 1109 q 230 1078 238 1086 q 210 1065 221 1069 q 186 1060 198 1060 q 161 1065 173 1060 q 141 1078 150 1069 q 128 1098 133 1086 q 123 1122 123 1109 q 128 1146 123 1135 q 141 1166 133 1158 q 161 1180 150 1175 q 186 1185 173 1185 q 210 1180 198 1185 q 230 1166 221 1175 q 243 1146 238 1158 q 248 1122 248 1135 z "},"Ĳ":{"ha":1586,"x_min":117,"x_max":1486,"o":"m 256 0 l 117 0 l 117 972 l 256 972 l 256 0 m 1486 486 q 1469 356 1486 418 q 1420 240 1451 294 q 1344 142 1388 186 q 1246 66 1300 98 q 1130 17 1192 35 q 1000 0 1067 0 l 424 0 l 424 139 l 1000 139 q 1135 166 1072 139 q 1245 240 1198 193 q 1320 351 1293 288 q 1348 486 1348 414 l 1348 833 l 424 833 l 424 972 l 1486 972 l 1486 486 z "},"Ĵ":{"ha":1214,"x_min":52,"x_max":1114,"o":"m 1114 486 q 1096 356 1114 418 q 1047 240 1079 294 q 972 142 1016 186 q 874 66 928 98 q 758 17 820 35 q 628 0 695 0 l 52 0 l 52 139 l 628 139 q 763 166 700 139 q 873 240 826 193 q 948 351 920 288 q 975 486 975 414 l 975 833 l 52 833 l 52 972 l 1114 972 l 1114 486 m 769 1049 l 600 1138 l 431 1049 l 385 1118 l 600 1261 l 829 1118 l 769 1049 z "},"Ķ":{"ha":1240,"x_min":117,"x_max":1247,"o":"m 1247 0 l 1060 0 l 564 500 l 256 278 l 256 0 l 117 0 l 117 972 l 256 972 l 256 431 l 1018 972 l 1221 972 l 669 576 l 1247 0 m 703 -129 q 694 -181 701 -157 q 678 -226 687 -206 q 656 -268 668 -248 l 585 -267 q 593 -251 589 -260 q 600 -233 596 -243 q 607 -208 604 -222 q 556 -181 576 -204 q 536 -125 536 -157 q 543 -93 536 -109 q 561 -66 549 -78 q 587 -48 572 -55 q 619 -41 602 -41 q 651 -48 636 -41 q 678 -67 667 -55 q 696 -95 690 -79 q 703 -129 703 -111 z "},"Ĺ":{"ha":1060,"x_min":117,"x_max":1046,"o":"m 1046 0 l 117 0 l 117 972 l 256 972 l 256 139 l 1046 139 l 1046 0 m 479 1142 l 225 1050 l 192 1124 l 427 1261 l 479 1142 z "},"Ļ":{"ha":1060,"x_min":117,"x_max":1046,"o":"m 1046 0 l 117 0 l 117 972 l 256 972 l 256 139 l 1046 139 l 1046 0 m 612 -157 q 604 -209 611 -184 q 588 -254 597 -234 q 566 -296 578 -276 l 494 -294 q 503 -279 498 -288 q 510 -260 506 -271 q 517 -236 513 -250 q 466 -209 486 -232 q 446 -153 446 -185 q 452 -121 446 -136 q 470 -94 459 -106 q 497 -76 481 -83 q 529 -69 512 -69 q 561 -76 546 -69 q 588 -95 576 -83 q 606 -122 600 -106 q 612 -157 612 -138 z "},"Ŀ":{"ha":1320,"x_min":117,"x_max":1232,"o":"m 1046 0 l 117 0 l 117 972 l 256 972 l 256 139 l 1046 139 l 1046 0 m 1232 494 q 1223 454 1232 473 q 1201 420 1215 435 q 1168 398 1187 406 q 1128 390 1149 390 q 1087 398 1106 390 q 1054 420 1068 406 q 1031 454 1040 435 q 1023 494 1023 473 q 1031 534 1023 515 q 1054 568 1040 553 q 1087 590 1068 582 q 1128 599 1106 599 q 1168 590 1149 599 q 1201 568 1187 582 q 1223 534 1215 553 q 1232 494 1232 515 z "},"Ľ":{"ha":1060,"x_min":117,"x_max":1046,"o":"m 1046 0 l 117 0 l 117 972 l 256 972 l 256 139 l 1046 139 l 1046 0 m 612 943 q 604 890 611 915 q 587 846 596 865 q 565 804 577 823 l 494 805 q 503 821 498 812 q 517 863 509 836 q 488 872 501 865 q 466 891 475 880 q 451 916 456 902 q 446 947 446 930 q 452 979 446 964 q 470 1005 458 994 q 496 1023 481 1017 q 529 1030 511 1030 q 561 1023 546 1030 q 588 1005 576 1017 q 606 977 600 993 q 612 943 612 961 z "},"Ń":{"ha":1308,"x_min":117,"x_max":1192,"o":"m 256 0 l 117 0 l 117 972 l 186 972 q 330 955 254 972 q 486 904 406 937 q 644 824 565 871 q 797 717 723 777 q 936 587 871 657 q 1053 437 1001 517 l 1053 972 l 1192 972 l 1192 0 l 1053 0 q 1015 207 1053 107 q 916 394 978 306 q 772 556 853 482 q 602 687 690 631 q 424 780 513 743 q 256 828 334 816 l 256 0 m 978 1141 l 724 1049 l 690 1122 l 925 1260 l 978 1141 z "},"Ņ":{"ha":1308,"x_min":117,"x_max":1192,"o":"m 256 0 l 117 0 l 117 972 l 186 972 q 330 955 254 972 q 486 904 406 937 q 644 824 565 871 q 797 717 723 777 q 936 587 871 657 q 1053 437 1001 517 l 1053 972 l 1192 972 l 1192 0 l 1053 0 q 1015 207 1053 107 q 916 394 978 306 q 772 556 853 482 q 602 687 690 631 q 424 780 513 743 q 256 828 334 816 l 256 0 m 737 -143 q 729 -196 736 -171 q 713 -240 722 -220 q 690 -282 703 -262 l 619 -281 q 627 -265 623 -274 q 634 -247 631 -258 q 642 -222 638 -236 q 591 -195 611 -218 q 570 -139 570 -172 q 577 -107 570 -123 q 595 -81 584 -92 q 622 -62 606 -69 q 654 -56 637 -56 q 686 -62 671 -56 q 713 -81 701 -69 q 731 -109 724 -93 q 737 -143 737 -125 z "},"Ň":{"ha":1308,"x_min":117,"x_max":1192,"o":"m 256 0 l 117 0 l 117 972 l 186 972 q 330 955 254 972 q 486 904 406 937 q 644 824 565 871 q 797 717 723 777 q 936 587 871 657 q 1053 437 1001 517 l 1053 972 l 1192 972 l 1192 0 l 1053 0 q 1015 207 1053 107 q 916 394 978 306 q 772 556 853 482 q 602 687 690 631 q 424 780 513 743 q 256 828 334 816 l 256 0 m 485 1247 l 654 1160 l 823 1247 l 869 1179 l 654 1035 l 439 1179 l 485 1247 z "},"Ŋ":{"ha":1308,"x_min":117,"x_max":1192,"o":"m 1192 211 q 1174 81 1192 144 q 1125 -35 1157 19 q 1049 -133 1094 -89 q 951 -209 1005 -178 q 835 -258 897 -241 q 705 -275 772 -275 l 129 -275 l 129 -136 l 705 -136 q 819 -117 765 -136 q 918 -64 873 -98 q 994 17 962 -30 q 1040 119 1025 64 q 975 298 1021 212 q 866 458 929 383 q 726 596 802 533 q 568 707 649 659 q 407 786 488 755 q 256 828 327 817 l 256 0 l 117 0 l 117 972 l 186 972 q 330 955 254 972 q 486 904 406 937 q 644 824 565 871 q 797 717 723 777 q 936 587 871 657 q 1053 437 1001 517 l 1053 972 l 1192 972 l 1192 211 z "},"Ō":{"ha":1339,"x_min":61,"x_max":1278,"o":"m 1278 486 q 1246 296 1278 385 q 1155 142 1214 208 q 1015 38 1097 76 q 832 0 932 0 l 509 0 q 325 38 408 0 q 183 142 242 76 q 93 296 125 208 q 61 486 61 385 q 93 675 61 587 q 183 830 125 764 q 325 934 242 896 q 509 972 408 972 l 832 972 q 1015 934 932 972 q 1155 830 1097 896 q 1246 675 1214 764 q 1278 486 1278 587 m 1139 486 q 1118 621 1139 558 q 1057 731 1097 684 q 961 806 1017 779 q 832 833 904 833 l 509 833 q 379 806 437 833 q 282 731 322 779 q 221 621 243 684 q 200 486 200 558 q 221 351 200 414 q 282 240 243 288 q 379 166 322 193 q 509 139 437 139 l 832 139 q 961 166 904 139 q 1057 240 1017 193 q 1118 351 1097 288 q 1139 486 1139 414 m 505 1059 l 505 1173 l 833 1173 l 833 1059 l 505 1059 z "},"Ŏ":{"ha":1339,"x_min":61,"x_max":1278,"o":"m 1278 486 q 1246 296 1278 385 q 1155 142 1214 208 q 1015 38 1097 76 q 832 0 932 0 l 509 0 q 325 38 408 0 q 183 142 242 76 q 93 296 125 208 q 61 486 61 385 q 93 675 61 587 q 183 830 125 764 q 325 934 242 896 q 509 972 408 972 l 832 972 q 1015 934 932 972 q 1155 830 1097 896 q 1246 675 1214 764 q 1278 486 1278 587 m 1139 486 q 1118 621 1139 558 q 1057 731 1097 684 q 961 806 1017 779 q 832 833 904 833 l 509 833 q 379 806 437 833 q 282 731 322 779 q 221 621 243 684 q 200 486 200 558 q 221 351 200 414 q 282 240 243 288 q 379 166 322 193 q 509 139 437 139 l 832 139 q 961 166 904 139 q 1057 240 1017 193 q 1118 351 1097 288 q 1139 486 1139 414 m 868 1239 q 864 1208 867 1227 q 852 1169 861 1190 q 831 1128 844 1149 q 795 1090 817 1107 q 742 1064 773 1074 q 669 1053 711 1053 q 596 1064 627 1053 q 544 1090 566 1074 q 508 1128 522 1107 q 486 1169 494 1149 q 475 1208 478 1190 q 471 1239 471 1227 l 562 1239 q 571 1218 565 1230 q 590 1194 578 1205 q 621 1175 602 1183 q 669 1167 640 1167 q 718 1175 699 1167 q 749 1194 737 1183 q 768 1218 762 1205 q 777 1239 774 1230 l 868 1239 z "},"Ő":{"ha":1339,"x_min":61,"x_max":1278,"o":"m 1278 486 q 1246 296 1278 385 q 1155 142 1214 208 q 1015 38 1097 76 q 832 0 932 0 l 509 0 q 325 38 408 0 q 183 142 242 76 q 93 296 125 208 q 61 486 61 385 q 93 675 61 587 q 183 830 125 764 q 325 934 242 896 q 509 972 408 972 l 832 972 q 1015 934 932 972 q 1155 830 1097 896 q 1246 675 1214 764 q 1278 486 1278 587 m 1139 486 q 1118 621 1139 558 q 1057 731 1097 684 q 961 806 1017 779 q 832 833 904 833 l 509 833 q 379 806 437 833 q 282 731 322 779 q 221 621 243 684 q 200 486 200 558 q 221 351 200 414 q 282 240 243 288 q 379 166 322 193 q 509 139 437 139 l 832 139 q 961 166 904 139 q 1057 240 1017 193 q 1118 351 1097 288 q 1139 486 1139 414 m 810 1135 l 625 1043 l 597 1089 l 754 1230 l 810 1135 m 1020 1135 l 835 1043 l 810 1089 l 964 1230 l 1020 1135 z "},"Ŕ":{"ha":1300,"x_min":117,"x_max":1239,"o":"m 1239 0 l 1051 0 l 760 278 l 334 278 l 334 415 l 892 415 q 973 432 935 415 q 1039 477 1011 448 q 1084 544 1067 505 q 1100 625 1100 582 q 1084 707 1100 669 q 1039 773 1067 745 q 973 817 1011 801 q 892 833 935 833 l 256 833 l 256 0 l 117 0 l 117 972 l 892 972 q 1027 945 964 972 q 1137 870 1090 918 q 1212 760 1184 823 q 1239 625 1239 697 q 1217 502 1239 560 q 1155 398 1194 444 q 1062 322 1116 353 q 947 282 1009 292 l 1239 0 m 932 1141 l 677 1049 l 644 1122 l 879 1260 l 932 1141 z "},"Ŗ":{"ha":1300,"x_min":117,"x_max":1239,"o":"m 1239 0 l 1051 0 l 760 278 l 334 278 l 334 415 l 892 415 q 973 432 935 415 q 1039 477 1011 448 q 1084 544 1067 505 q 1100 625 1100 582 q 1084 707 1100 669 q 1039 773 1067 745 q 973 817 1011 801 q 892 833 935 833 l 256 833 l 256 0 l 117 0 l 117 972 l 892 972 q 1027 945 964 972 q 1137 870 1090 918 q 1212 760 1184 823 q 1239 625 1239 697 q 1217 502 1239 560 q 1155 398 1194 444 q 1062 322 1116 353 q 947 282 1009 292 l 1239 0 m 733 -143 q 725 -196 732 -171 q 709 -240 718 -220 q 686 -282 699 -262 l 615 -281 q 623 -265 619 -274 q 630 -247 627 -258 q 637 -222 634 -236 q 587 -195 607 -218 q 566 -139 566 -172 q 573 -107 566 -123 q 591 -81 580 -92 q 617 -62 602 -69 q 650 -56 633 -56 q 682 -62 667 -56 q 709 -81 697 -69 q 727 -109 720 -93 q 733 -143 733 -125 z "},"Ř":{"ha":1300,"x_min":117,"x_max":1239,"o":"m 1239 0 l 1051 0 l 760 278 l 334 278 l 334 415 l 892 415 q 973 432 935 415 q 1039 477 1011 448 q 1084 544 1067 505 q 1100 625 1100 582 q 1084 707 1100 669 q 1039 773 1067 745 q 973 817 1011 801 q 892 833 935 833 l 256 833 l 256 0 l 117 0 l 117 972 l 892 972 q 1027 945 964 972 q 1137 870 1090 918 q 1212 760 1184 823 q 1239 625 1239 697 q 1217 502 1239 560 q 1155 398 1194 444 q 1062 322 1116 353 q 947 282 1009 292 l 1239 0 m 481 1247 l 650 1160 l 819 1247 l 865 1179 l 650 1035 l 435 1179 l 481 1247 z "},"Ś":{"ha":1236,"x_min":68,"x_max":1190,"o":"m 1190 278 q 1168 169 1190 220 q 1109 81 1147 119 q 1021 22 1072 43 q 913 0 970 0 l 68 0 l 68 139 l 913 139 q 967 150 942 139 q 1011 180 992 161 q 1040 224 1029 199 q 1051 278 1051 250 q 1040 332 1051 307 q 1011 376 1029 357 q 967 406 992 395 q 913 416 942 416 l 346 416 q 238 438 289 416 q 150 497 187 460 q 90 586 112 535 q 68 694 68 637 q 90 802 68 751 q 150 891 112 853 q 238 950 187 928 q 346 972 289 972 l 1121 972 l 1121 833 l 346 833 q 292 823 317 833 q 248 793 267 812 q 218 748 229 774 q 207 694 207 723 q 218 641 207 666 q 248 596 229 615 q 292 566 267 577 q 346 555 317 555 l 913 555 q 1021 533 970 555 q 1109 474 1072 511 q 1168 386 1147 436 q 1190 278 1190 335 m 914 1141 l 660 1049 l 627 1122 l 861 1260 l 914 1141 z "},"Ŝ":{"ha":1236,"x_min":68,"x_max":1190,"o":"m 1190 278 q 1168 169 1190 220 q 1109 81 1147 119 q 1021 22 1072 43 q 913 0 970 0 l 68 0 l 68 139 l 913 139 q 967 150 942 139 q 1011 180 992 161 q 1040 224 1029 199 q 1051 278 1051 250 q 1040 332 1051 307 q 1011 376 1029 357 q 967 406 992 395 q 913 416 942 416 l 346 416 q 238 438 289 416 q 150 497 187 460 q 90 586 112 535 q 68 694 68 637 q 90 802 68 751 q 150 891 112 853 q 238 950 187 928 q 346 972 289 972 l 1121 972 l 1121 833 l 346 833 q 292 823 317 833 q 248 793 267 812 q 218 748 229 774 q 207 694 207 723 q 218 641 207 666 q 248 596 229 615 q 292 566 267 577 q 346 555 317 555 l 913 555 q 1021 533 970 555 q 1109 474 1072 511 q 1168 386 1147 436 q 1190 278 1190 335 m 781 1049 l 611 1138 l 442 1049 l 396 1118 l 611 1261 l 840 1118 l 781 1049 z "},"Ş":{"ha":1236,"x_min":68,"x_max":1190,"o":"m 1190 278 q 1168 169 1190 220 q 1109 81 1147 119 q 1021 22 1072 43 q 913 0 970 0 l 660 0 l 647 -33 q 680 -37 662 -33 q 713 -50 698 -41 q 740 -77 729 -60 q 750 -122 750 -95 q 736 -170 750 -151 q 700 -200 722 -189 q 651 -216 678 -212 q 596 -221 623 -221 q 554 -220 571 -221 q 525 -216 537 -218 q 505 -213 513 -214 q 486 -210 496 -211 l 486 -123 q 531 -139 505 -133 q 585 -146 557 -146 q 630 -140 612 -146 q 648 -121 648 -134 q 642 -108 648 -113 q 628 -100 636 -103 q 609 -97 619 -98 q 591 -96 600 -96 q 568 -97 580 -96 q 546 -102 556 -99 l 583 0 l 68 0 l 68 139 l 913 139 q 967 150 942 139 q 1011 180 992 161 q 1040 224 1029 199 q 1051 278 1051 250 q 1040 332 1051 307 q 1011 376 1029 357 q 967 406 992 395 q 913 416 942 416 l 346 416 q 238 438 289 416 q 150 497 187 460 q 90 586 112 535 q 68 694 68 637 q 90 802 68 751 q 150 891 112 853 q 238 950 187 928 q 346 972 289 972 l 1121 972 l 1121 833 l 346 833 q 292 823 317 833 q 248 793 267 812 q 218 748 229 774 q 207 694 207 723 q 218 641 207 666 q 248 596 229 615 q 292 566 267 577 q 346 555 317 555 l 913 555 q 1021 533 970 555 q 1109 474 1072 511 q 1168 386 1147 436 q 1190 278 1190 335 z "},"Ţ":{"ha":1150,"x_min":14,"x_max":1136,"o":"m 644 0 l 505 0 l 505 833 l 14 833 l 14 972 l 1136 972 l 1136 833 l 644 833 l 644 0 m 659 -171 q 650 -223 657 -199 q 634 -268 643 -248 q 612 -310 624 -290 l 541 -309 q 549 -293 545 -302 q 556 -275 552 -286 q 563 -250 559 -264 q 512 -223 532 -246 q 492 -167 492 -199 q 498 -135 492 -151 q 516 -109 505 -120 q 543 -90 528 -97 q 575 -83 558 -83 q 607 -90 592 -83 q 634 -109 623 -97 q 652 -137 646 -121 q 659 -171 659 -153 z "},"Ť":{"ha":1150,"x_min":14,"x_max":1136,"o":"m 644 0 l 505 0 l 505 833 l 14 833 l 14 972 l 1136 972 l 1136 833 l 644 833 l 644 0 m 406 1247 l 574 1160 l 744 1247 l 790 1179 l 574 1035 l 359 1179 l 406 1247 z "},"Ŧ":{"ha":1150,"x_min":14,"x_max":1136,"o":"m 852 416 l 644 416 l 644 0 l 505 0 l 505 416 l 297 416 l 297 555 l 505 555 l 505 833 l 14 833 l 14 972 l 1136 972 l 1136 833 l 644 833 l 644 555 l 852 555 l 852 416 z "},"Ũ":{"ha":1242,"x_min":85,"x_max":1158,"o":"m 1158 972 l 1157 486 q 1140 356 1157 418 q 1091 240 1122 294 q 1015 142 1059 186 q 917 66 970 98 q 801 17 863 35 q 672 0 739 0 l 570 0 q 440 17 503 0 q 325 66 378 35 q 227 143 271 98 q 151 241 182 187 q 102 357 119 295 q 85 486 85 419 l 85 972 l 224 972 l 224 486 q 251 351 224 414 q 325 240 278 288 q 435 166 372 193 q 570 139 498 139 l 672 139 q 807 166 744 139 q 917 240 870 193 q 991 351 964 288 q 1018 486 1018 414 l 1018 972 l 1157 972 l 1158 972 m 814 1214 q 804 1135 814 1167 q 778 1084 794 1103 q 738 1056 761 1065 q 690 1048 715 1048 q 646 1057 664 1048 q 614 1077 628 1066 q 588 1097 600 1088 q 559 1106 575 1106 q 535 1099 544 1106 q 522 1081 527 1091 q 516 1062 517 1072 q 514 1048 515 1053 l 428 1048 q 438 1120 428 1089 q 465 1172 448 1152 q 505 1203 482 1193 q 551 1214 527 1214 q 592 1205 574 1214 q 624 1185 609 1196 q 652 1165 638 1174 q 684 1156 666 1156 q 706 1163 698 1156 q 719 1180 715 1170 q 725 1199 724 1190 q 726 1214 726 1208 l 814 1214 z "},"Ū":{"ha":1242,"x_min":85,"x_max":1158,"o":"m 1158 972 l 1157 486 q 1140 356 1157 418 q 1091 240 1122 294 q 1015 142 1059 186 q 917 66 970 98 q 801 17 863 35 q 672 0 739 0 l 570 0 q 440 17 503 0 q 325 66 378 35 q 227 143 271 98 q 151 241 182 187 q 102 357 119 295 q 85 486 85 419 l 85 972 l 224 972 l 224 486 q 251 351 224 414 q 325 240 278 288 q 435 166 372 193 q 570 139 498 139 l 672 139 q 807 166 744 139 q 917 240 870 193 q 991 351 964 288 q 1018 486 1018 414 l 1018 972 l 1157 972 l 1158 972 m 457 1059 l 457 1173 l 785 1173 l 785 1059 l 457 1059 z "},"Ŭ":{"ha":1242,"x_min":85,"x_max":1158,"o":"m 1158 972 l 1157 486 q 1140 356 1157 418 q 1091 240 1122 294 q 1015 142 1059 186 q 917 66 970 98 q 801 17 863 35 q 672 0 739 0 l 570 0 q 440 17 503 0 q 325 66 378 35 q 227 143 271 98 q 151 241 182 187 q 102 357 119 295 q 85 486 85 419 l 85 972 l 224 972 l 224 486 q 251 351 224 414 q 325 240 278 288 q 435 166 372 193 q 570 139 498 139 l 672 139 q 807 166 744 139 q 917 240 870 193 q 991 351 964 288 q 1018 486 1018 414 l 1018 972 l 1157 972 l 1158 972 m 820 1239 q 816 1208 819 1227 q 804 1169 812 1190 q 783 1128 796 1149 q 747 1090 769 1107 q 694 1064 725 1074 q 621 1053 663 1053 q 548 1064 579 1053 q 495 1090 517 1074 q 460 1128 473 1107 q 438 1169 446 1149 q 427 1208 430 1190 q 422 1239 423 1227 l 514 1239 q 523 1218 517 1230 q 542 1194 530 1205 q 573 1175 553 1183 q 621 1167 592 1167 q 670 1175 650 1167 q 701 1194 689 1183 q 720 1218 713 1205 q 728 1239 726 1230 l 820 1239 z "},"Ů":{"ha":1242,"x_min":85,"x_max":1158,"o":"m 1158 972 l 1157 486 q 1140 356 1157 418 q 1091 240 1122 294 q 1015 142 1059 186 q 917 66 970 98 q 801 17 863 35 q 672 0 739 0 l 570 0 q 440 17 503 0 q 325 66 378 35 q 227 143 271 98 q 151 241 182 187 q 102 357 119 295 q 85 486 85 419 l 85 972 l 224 972 l 224 486 q 251 351 224 414 q 325 240 278 288 q 435 166 372 193 q 570 139 498 139 l 672 139 q 807 166 744 139 q 917 240 870 193 q 991 351 964 288 q 1018 486 1018 414 l 1018 972 l 1157 972 l 1158 972 m 478 1141 q 489 1186 478 1164 q 518 1223 499 1207 q 564 1249 537 1240 q 621 1259 590 1259 q 683 1249 656 1259 q 728 1223 709 1240 q 755 1186 746 1207 q 764 1141 764 1164 q 754 1096 764 1117 q 725 1058 744 1074 q 680 1032 707 1042 q 621 1023 654 1023 q 562 1032 588 1023 q 516 1058 535 1042 q 488 1096 498 1074 q 478 1141 478 1117 m 574 1141 q 586 1107 574 1121 q 621 1093 597 1093 q 656 1107 644 1093 q 669 1141 669 1121 q 656 1174 669 1160 q 621 1187 644 1187 q 586 1174 597 1187 q 574 1141 574 1160 z "},"Ű":{"ha":1242,"x_min":85,"x_max":1158,"o":"m 1158 972 l 1157 486 q 1140 356 1157 418 q 1091 240 1122 294 q 1015 142 1059 186 q 917 66 970 98 q 801 17 863 35 q 672 0 739 0 l 570 0 q 440 17 503 0 q 325 66 378 35 q 227 143 271 98 q 151 241 182 187 q 102 357 119 295 q 85 486 85 419 l 85 972 l 224 972 l 224 486 q 251 351 224 414 q 325 240 278 288 q 435 166 372 193 q 570 139 498 139 l 672 139 q 807 166 744 139 q 917 240 870 193 q 991 351 964 288 q 1018 486 1018 414 l 1018 972 l 1157 972 l 1158 972 m 720 1135 l 535 1043 l 507 1089 l 664 1230 l 720 1135 m 930 1135 l 745 1043 l 720 1089 l 874 1230 l 930 1135 z "},"Ų":{"ha":1242,"x_min":85,"x_max":1158,"o":"m 1157 486 q 1140 359 1157 420 q 1093 244 1124 298 q 1020 146 1063 191 q 924 71 977 102 q 812 20 872 39 q 686 0 751 2 q 649 -43 663 -20 q 635 -89 635 -67 q 647 -114 635 -106 q 688 -122 659 -122 q 714 -120 700 -122 q 744 -114 729 -117 q 771 -105 758 -110 q 794 -97 785 -101 l 794 -187 q 772 -194 785 -190 q 744 -201 760 -197 q 706 -207 728 -205 q 657 -210 684 -210 q 608 -205 631 -210 q 567 -189 585 -200 q 540 -161 550 -178 q 530 -118 530 -144 q 533 -90 530 -106 q 543 -59 536 -75 q 561 -27 550 -43 q 587 0 572 -12 l 570 0 q 440 17 503 0 q 325 66 378 35 q 227 143 271 98 q 151 241 182 187 q 102 357 119 295 q 85 486 85 419 l 85 972 l 224 972 l 224 486 q 251 351 224 414 q 325 240 278 288 q 435 166 372 193 q 570 139 498 139 l 672 139 q 807 166 744 139 q 917 240 870 193 q 991 351 964 288 q 1018 486 1018 414 l 1018 972 l 1158 972 l 1157 486 z "},"Ŵ":{"ha":1476,"x_min":107,"x_max":1369,"o":"m 1369 350 q 1342 214 1369 277 q 1267 102 1314 150 q 1156 27 1219 55 q 1019 0 1092 0 q 936 10 976 0 q 859 38 895 20 q 792 81 823 56 q 737 139 762 107 q 616 38 689 75 q 457 0 544 0 q 321 27 385 0 q 210 102 257 55 q 135 214 162 150 q 107 350 107 277 l 107 972 l 245 972 l 245 350 q 262 268 245 306 q 308 201 279 229 q 375 156 336 172 q 457 139 413 139 q 537 155 500 139 q 603 197 575 170 q 649 261 631 224 q 668 340 666 298 l 668 350 l 668 972 l 808 972 l 808 350 q 825 268 808 306 q 870 201 842 229 q 937 156 899 172 q 1019 139 975 139 q 1101 156 1063 139 q 1169 201 1140 172 q 1214 268 1198 229 q 1231 350 1231 306 l 1231 972 l 1369 972 l 1369 350 m 900 1049 l 730 1138 l 562 1049 l 515 1118 l 730 1261 l 960 1118 l 900 1049 z "},"Ẁ":{"ha":1476,"x_min":107,"x_max":1369,"o":"m 1369 350 q 1342 214 1369 277 q 1267 102 1314 150 q 1156 27 1219 55 q 1019 0 1092 0 q 936 10 976 0 q 859 38 895 20 q 792 81 823 56 q 737 139 762 107 q 616 38 689 75 q 457 0 544 0 q 321 27 385 0 q 210 102 257 55 q 135 214 162 150 q 107 350 107 277 l 107 972 l 245 972 l 245 350 q 262 268 245 306 q 308 201 279 229 q 375 156 336 172 q 457 139 413 139 q 537 155 500 139 q 603 197 575 170 q 649 261 631 224 q 668 340 666 298 l 668 350 l 668 972 l 808 972 l 808 350 q 825 268 808 306 q 870 201 842 229 q 937 156 899 172 q 1019 139 975 139 q 1101 156 1063 139 q 1169 201 1140 172 q 1214 268 1198 229 q 1231 350 1231 306 l 1231 972 l 1369 972 l 1369 350 m 509 1260 l 743 1122 l 710 1049 l 456 1141 l 509 1260 z "},"Ẃ":{"ha":1476,"x_min":107,"x_max":1369,"o":"m 1369 350 q 1342 214 1369 277 q 1267 102 1314 150 q 1156 27 1219 55 q 1019 0 1092 0 q 936 10 976 0 q 859 38 895 20 q 792 81 823 56 q 737 139 762 107 q 616 38 689 75 q 457 0 544 0 q 321 27 385 0 q 210 102 257 55 q 135 214 162 150 q 107 350 107 277 l 107 972 l 245 972 l 245 350 q 262 268 245 306 q 308 201 279 229 q 375 156 336 172 q 457 139 413 139 q 537 155 500 139 q 603 197 575 170 q 649 261 631 224 q 668 340 666 298 l 668 350 l 668 972 l 808 972 l 808 350 q 825 268 808 306 q 870 201 842 229 q 937 156 899 172 q 1019 139 975 139 q 1101 156 1063 139 q 1169 201 1140 172 q 1214 268 1198 229 q 1231 350 1231 306 l 1231 972 l 1369 972 l 1369 350 m 1021 1141 l 766 1049 l 733 1122 l 968 1260 l 1021 1141 z "},"Ẅ":{"ha":1476,"x_min":107,"x_max":1369,"o":"m 1369 350 q 1342 214 1369 277 q 1267 102 1314 150 q 1156 27 1219 55 q 1019 0 1092 0 q 936 10 976 0 q 859 38 895 20 q 792 81 823 56 q 737 139 762 107 q 616 38 689 75 q 457 0 544 0 q 321 27 385 0 q 210 102 257 55 q 135 214 162 150 q 107 350 107 277 l 107 972 l 245 972 l 245 350 q 262 268 245 306 q 308 201 279 229 q 375 156 336 172 q 457 139 413 139 q 537 155 500 139 q 603 197 575 170 q 649 261 631 224 q 668 340 666 298 l 668 350 l 668 972 l 808 972 l 808 350 q 825 268 808 306 q 870 201 842 229 q 937 156 899 172 q 1019 139 975 139 q 1101 156 1063 139 q 1169 201 1140 172 q 1214 268 1198 229 q 1231 350 1231 306 l 1231 972 l 1369 972 l 1369 350 m 687 1114 q 682 1090 687 1101 q 668 1070 677 1078 q 648 1057 660 1061 q 625 1052 637 1052 q 600 1057 612 1052 q 580 1070 589 1061 q 566 1090 571 1078 q 561 1114 561 1101 q 566 1138 561 1126 q 580 1158 571 1149 q 600 1172 589 1166 q 625 1177 612 1177 q 648 1172 637 1177 q 668 1158 660 1166 q 682 1138 677 1149 q 687 1114 687 1126 m 913 1114 q 908 1090 913 1101 q 895 1070 903 1078 q 874 1057 886 1061 q 850 1052 863 1052 q 825 1057 837 1052 q 805 1070 814 1061 q 792 1090 797 1078 q 787 1114 787 1101 q 792 1138 787 1126 q 805 1158 797 1149 q 825 1172 814 1166 q 850 1177 837 1177 q 874 1172 863 1177 q 895 1158 886 1166 q 908 1138 903 1149 q 913 1114 913 1126 z "},"Ŷ":{"ha":1311,"x_min":79,"x_max":1203,"o":"m 1203 278 q 1176 169 1203 220 q 1101 81 1148 119 q 991 22 1054 43 q 856 0 928 0 l 79 0 l 79 139 l 856 139 q 937 150 899 139 q 1003 180 975 161 q 1047 224 1031 199 q 1064 278 1064 250 l 1064 347 l 427 347 q 291 374 355 347 q 181 449 228 401 q 106 559 134 496 q 79 694 79 623 l 79 972 l 218 972 l 218 694 q 235 613 218 651 q 279 547 251 575 q 345 503 307 519 q 427 486 383 486 l 1064 486 l 1064 972 l 1203 972 l 1203 278 m 818 1049 l 648 1138 l 479 1049 l 433 1118 l 648 1261 l 878 1118 l 818 1049 z "},"Ỳ":{"ha":1311,"x_min":79,"x_max":1203,"o":"m 1203 278 q 1176 169 1203 220 q 1101 81 1148 119 q 991 22 1054 43 q 856 0 928 0 l 79 0 l 79 139 l 856 139 q 937 150 899 139 q 1003 180 975 161 q 1047 224 1031 199 q 1064 278 1064 250 l 1064 347 l 427 347 q 291 374 355 347 q 181 449 228 401 q 106 559 134 496 q 79 694 79 623 l 79 972 l 218 972 l 218 694 q 235 613 218 651 q 279 547 251 575 q 345 503 307 519 q 427 486 383 486 l 1064 486 l 1064 972 l 1203 972 l 1203 278 m 425 1260 l 660 1122 l 627 1049 l 372 1141 l 425 1260 z "},"Ź":{"ha":1239,"x_min":58,"x_max":1182,"o":"m 1182 833 l 289 139 l 1182 139 l 1182 0 l 58 0 l 58 139 l 957 833 l 58 833 l 58 972 l 1182 972 l 1182 833 m 901 1141 l 647 1049 l 614 1122 l 848 1260 l 901 1141 z "},"Ż":{"ha":1239,"x_min":58,"x_max":1182,"o":"m 1182 833 l 289 139 l 1182 139 l 1182 0 l 58 0 l 58 139 l 957 833 l 58 833 l 58 972 l 1182 972 l 1182 833 m 682 1128 q 676 1103 682 1115 q 663 1083 671 1092 q 643 1070 654 1075 q 619 1065 631 1065 q 595 1070 606 1065 q 575 1083 583 1075 q 562 1103 566 1092 q 557 1128 557 1115 q 562 1152 557 1140 q 575 1172 566 1163 q 595 1185 583 1180 q 619 1190 606 1190 q 643 1185 631 1190 q 663 1172 654 1180 q 676 1152 671 1163 q 682 1128 682 1140 z "},"Ǽ":{"ha":2146,"x_min":100,"x_max":2090,"o":"m 2090 0 l 1083 0 l 1083 278 l 307 278 l 307 416 l 1083 416 l 1083 833 l 585 833 q 450 806 513 833 q 340 731 387 779 q 266 621 294 684 q 239 486 239 558 l 239 0 l 100 0 l 100 486 q 117 615 100 553 q 166 731 134 677 q 242 830 197 785 q 340 906 286 874 q 456 955 394 938 q 585 972 517 972 l 2090 972 l 2090 833 l 1223 833 l 1223 139 l 2090 139 l 2090 0 m 1972 416 l 1293 416 l 1293 555 l 1972 555 l 1972 416 m 1439 1126 l 1185 1035 l 1152 1108 l 1386 1246 l 1439 1126 z "},"Ǿ":{"ha":1339,"x_min":61,"x_max":1278,"o":"m 1145 972 l 1082 895 q 1164 818 1128 862 q 1226 722 1200 774 q 1264 610 1251 670 q 1278 486 1278 550 q 1246 296 1278 385 q 1155 142 1214 208 q 1015 38 1097 76 q 832 0 932 0 l 509 0 q 440 4 473 0 q 376 18 408 9 l 363 0 l 197 0 l 258 75 q 175 152 212 108 q 113 248 138 195 q 74 361 87 300 q 61 486 61 421 q 93 675 61 587 q 183 830 125 764 q 325 934 242 896 q 509 972 408 972 l 832 972 q 900 967 867 972 q 964 953 932 962 l 979 972 l 1145 972 m 509 833 q 379 806 437 833 q 282 731 322 779 q 221 621 243 684 q 200 486 200 558 q 210 393 200 437 q 238 309 220 348 q 284 239 257 271 q 346 184 311 207 l 865 831 q 849 833 857 832 q 832 833 840 833 l 509 833 m 1139 486 q 1129 578 1139 534 q 1101 661 1120 623 q 1056 732 1082 700 q 994 786 1029 764 l 475 140 q 492 140 484 140 q 509 139 500 139 l 832 139 q 961 166 904 139 q 1057 240 1017 193 q 1118 351 1097 288 q 1139 486 1139 414 m 965 1141 l 711 1049 l 677 1122 l 912 1260 l 965 1141 z "},"ā":{"ha":1064,"x_min":32,"x_max":970,"o":"m 970 0 l 275 0 q 180 19 224 0 q 103 71 136 38 q 51 148 70 104 q 32 243 32 193 q 51 338 32 294 q 103 415 70 382 q 180 467 136 448 q 275 486 224 486 l 761 486 l 761 347 l 275 347 q 235 339 254 347 q 201 316 216 330 q 179 283 187 302 q 171 243 171 264 q 179 202 171 221 q 201 170 187 184 q 235 147 216 155 q 275 139 254 139 l 831 139 l 831 521 q 822 561 831 542 q 800 594 814 580 q 766 617 785 608 q 726 625 747 625 l 171 625 l 171 764 l 726 764 q 821 745 777 764 q 899 693 865 726 q 951 616 932 660 q 970 521 970 572 l 970 0 m 368 864 l 368 978 l 696 978 l 696 864 l 368 864 z "},"ă":{"ha":1064,"x_min":32,"x_max":970,"o":"m 970 0 l 275 0 q 180 19 224 0 q 103 71 136 38 q 51 148 70 104 q 32 243 32 193 q 51 338 32 294 q 103 415 70 382 q 180 467 136 448 q 275 486 224 486 l 761 486 l 761 347 l 275 347 q 235 339 254 347 q 201 316 216 330 q 179 283 187 302 q 171 243 171 264 q 179 202 171 221 q 201 170 187 184 q 235 147 216 155 q 275 139 254 139 l 831 139 l 831 521 q 822 561 831 542 q 800 594 814 580 q 766 617 785 608 q 726 625 747 625 l 171 625 l 171 764 l 726 764 q 821 745 777 764 q 899 693 865 726 q 951 616 932 660 q 970 521 970 572 l 970 0 m 731 1044 q 727 1014 730 1032 q 715 975 724 995 q 694 933 707 954 q 658 896 680 912 q 605 869 636 880 q 532 859 574 859 q 459 869 490 859 q 407 896 429 880 q 371 933 385 912 q 349 975 357 954 q 338 1014 341 995 q 334 1044 334 1032 l 425 1044 q 434 1023 428 1036 q 453 999 441 1010 q 484 980 465 988 q 532 972 503 972 q 581 980 562 972 q 612 999 600 988 q 631 1023 625 1010 q 640 1044 637 1036 l 731 1044 z "},"ą":{"ha":1064,"x_min":32,"x_max":1039,"o":"m 970 0 l 929 0 q 892 -44 905 -20 q 879 -89 879 -68 q 891 -114 879 -106 q 932 -122 903 -122 q 959 -120 944 -122 q 988 -114 973 -117 q 1016 -105 1002 -110 q 1039 -97 1029 -101 l 1039 -187 q 1017 -194 1029 -190 q 988 -201 1005 -197 q 950 -207 972 -205 q 901 -210 929 -210 q 852 -205 876 -210 q 812 -189 829 -200 q 785 -161 795 -178 q 775 -118 775 -144 q 778 -90 775 -106 q 788 -59 781 -75 q 806 -27 795 -43 q 832 0 817 -12 l 275 0 q 180 19 224 0 q 103 71 136 38 q 51 148 70 104 q 32 243 32 193 q 51 338 32 294 q 103 415 70 382 q 180 467 136 448 q 275 486 224 486 l 761 486 l 761 347 l 275 347 q 235 339 254 347 q 201 316 216 330 q 179 283 187 302 q 171 243 171 264 q 179 202 171 221 q 201 170 187 184 q 235 147 216 155 q 275 139 254 139 l 831 139 l 831 521 q 822 561 831 542 q 800 594 814 580 q 766 617 785 608 q 726 625 747 625 l 171 625 l 171 764 l 726 764 q 821 745 777 764 q 899 693 865 726 q 951 616 932 660 q 970 521 970 572 l 970 0 z "},"ć":{"ha":937,"x_min":52,"x_max":885,"o":"m 885 0 l 431 0 q 283 31 352 1 q 162 113 214 61 q 81 234 111 165 q 52 382 52 303 q 81 530 52 460 q 162 651 111 600 q 283 733 214 703 q 431 764 352 764 l 885 764 l 885 625 l 431 625 q 337 605 380 625 q 260 553 293 586 q 209 476 228 520 q 191 382 191 432 q 209 288 191 332 q 260 211 228 243 q 337 158 293 178 q 431 139 380 139 l 885 139 l 885 0 m 821 946 l 566 854 l 533 928 l 768 1065 l 821 946 z "},"ĉ":{"ha":937,"x_min":52,"x_max":885,"o":"m 885 0 l 431 0 q 283 31 352 1 q 162 113 214 61 q 81 234 111 165 q 52 382 52 303 q 81 530 52 460 q 162 651 111 600 q 283 733 214 703 q 431 764 352 764 l 885 764 l 885 625 l 431 625 q 337 605 380 625 q 260 553 293 586 q 209 476 228 520 q 191 382 191 432 q 209 288 191 332 q 260 211 228 243 q 337 158 293 178 q 431 139 380 139 l 885 139 l 885 0 m 672 854 l 503 943 l 334 854 l 288 924 l 503 1067 l 732 924 l 672 854 z "},"ċ":{"ha":937,"x_min":52,"x_max":885,"o":"m 885 0 l 431 0 q 283 31 352 1 q 162 113 214 61 q 81 234 111 165 q 52 382 52 303 q 81 530 52 460 q 162 651 111 600 q 283 733 214 703 q 431 764 352 764 l 885 764 l 885 625 l 431 625 q 337 605 380 625 q 260 553 293 586 q 209 476 228 520 q 191 382 191 432 q 209 288 191 332 q 260 211 228 243 q 337 158 293 178 q 431 139 380 139 l 885 139 l 885 0 m 614 920 q 609 895 614 907 q 595 875 604 884 q 575 862 587 867 q 551 857 564 857 q 527 862 538 857 q 507 875 515 867 q 494 895 498 884 q 489 920 489 907 q 494 943 489 932 q 507 963 498 955 q 527 977 515 972 q 551 982 538 982 q 575 977 564 982 q 595 963 587 972 q 609 943 604 955 q 614 920 614 932 z "},"č":{"ha":937,"x_min":52,"x_max":885,"o":"m 885 0 l 431 0 q 283 31 352 1 q 162 113 214 61 q 81 234 111 165 q 52 382 52 303 q 81 530 52 460 q 162 651 111 600 q 283 733 214 703 q 431 764 352 764 l 885 764 l 885 625 l 431 625 q 337 605 380 625 q 260 553 293 586 q 209 476 228 520 q 191 382 191 432 q 209 288 191 332 q 260 211 228 243 q 337 158 293 178 q 431 139 380 139 l 885 139 l 885 0 m 382 1053 l 551 965 l 721 1053 l 767 985 l 551 840 l 336 985 l 382 1053 z "},"ď":{"ha":1331,"x_min":52,"x_max":1238,"o":"m 951 0 l 812 0 l 812 625 l 431 625 q 337 606 380 625 q 260 554 293 587 q 209 476 228 521 q 191 382 191 432 q 209 288 191 332 q 260 211 228 244 q 337 159 293 178 q 431 139 380 140 l 743 139 l 743 0 l 431 0 q 283 30 352 0 q 162 112 214 60 q 81 234 111 164 q 52 382 52 303 q 81 530 52 460 q 162 651 111 599 q 283 733 214 703 q 431 764 352 763 l 812 764 l 812 1042 l 951 1042 l 951 0 m 1238 1039 q 1229 986 1236 1011 q 1213 942 1221 962 q 1190 900 1202 920 l 1120 901 q 1128 917 1124 908 q 1142 960 1135 932 q 1114 969 1126 962 q 1091 987 1101 976 q 1076 1013 1082 998 q 1071 1043 1071 1027 q 1077 1075 1071 1060 q 1095 1101 1084 1090 q 1122 1120 1107 1113 q 1154 1126 1137 1126 q 1186 1120 1171 1126 q 1213 1101 1202 1113 q 1231 1073 1225 1089 q 1238 1039 1238 1057 z "},"đ":{"ha":1051,"x_min":52,"x_max":1050,"o":"m 951 974 l 1050 974 l 1050 835 l 951 835 l 951 0 l 812 0 l 812 625 l 431 625 q 337 606 380 625 q 260 554 293 587 q 209 476 228 521 q 191 382 191 432 q 209 288 191 332 q 260 211 228 244 q 337 159 293 178 q 431 139 380 140 l 743 139 l 743 0 l 431 0 q 283 30 352 0 q 162 112 214 60 q 81 234 111 164 q 52 382 52 303 q 81 530 52 460 q 162 651 111 599 q 283 733 214 703 q 431 764 352 763 l 812 764 l 812 835 l 509 835 l 509 974 l 812 974 l 812 1042 l 951 1042 l 951 974 z "},"ē":{"ha":1025,"x_min":52,"x_max":989,"o":"m 989 521 q 970 426 989 470 q 918 349 951 382 q 841 297 885 316 q 746 278 796 278 l 214 278 q 251 222 229 248 q 301 178 273 196 q 362 149 329 159 q 431 139 395 139 l 885 139 l 885 0 l 431 0 q 283 31 352 1 q 162 113 214 61 q 81 234 111 165 q 52 382 52 303 q 81 530 52 460 q 162 651 111 599 q 283 733 214 703 q 431 764 352 763 l 746 764 q 841 745 796 764 q 918 693 885 726 q 970 616 951 660 q 989 521 989 572 m 746 416 q 786 425 767 416 q 819 447 805 433 q 842 480 833 461 q 850 521 850 499 q 842 561 850 542 q 819 594 833 580 q 786 617 805 608 q 746 625 767 625 l 431 625 q 344 609 385 625 q 272 565 304 593 q 220 498 241 536 q 193 416 199 460 l 746 416 m 349 864 l 349 978 l 676 978 l 676 864 l 349 864 z "},"ĕ":{"ha":1025,"x_min":52,"x_max":989,"o":"m 989 521 q 970 426 989 470 q 918 349 951 382 q 841 297 885 316 q 746 278 796 278 l 214 278 q 251 222 229 248 q 301 178 273 196 q 362 149 329 159 q 431 139 395 139 l 885 139 l 885 0 l 431 0 q 283 31 352 1 q 162 113 214 61 q 81 234 111 165 q 52 382 52 303 q 81 530 52 460 q 162 651 111 599 q 283 733 214 703 q 431 764 352 763 l 746 764 q 841 745 796 764 q 918 693 885 726 q 970 616 951 660 q 989 521 989 572 m 746 416 q 786 425 767 416 q 819 447 805 433 q 842 480 833 461 q 850 521 850 499 q 842 561 850 542 q 819 594 833 580 q 786 617 805 608 q 746 625 767 625 l 431 625 q 344 609 385 625 q 272 565 304 593 q 220 498 241 536 q 193 416 199 460 l 746 416 m 753 1044 q 749 1014 752 1032 q 737 975 745 995 q 715 933 729 954 q 680 896 702 912 q 627 869 658 880 q 554 859 596 859 q 481 869 512 859 q 428 896 450 880 q 393 933 406 912 q 371 975 379 954 q 359 1014 363 995 q 355 1044 356 1032 l 447 1044 q 456 1023 450 1036 q 474 999 463 1010 q 506 980 486 988 q 554 972 525 972 q 603 980 583 972 q 634 999 622 988 q 652 1023 646 1010 q 661 1044 659 1036 l 753 1044 z "},"ė":{"ha":1025,"x_min":52,"x_max":989,"o":"m 989 521 q 970 426 989 470 q 918 349 951 382 q 841 297 885 316 q 746 278 796 278 l 214 278 q 251 222 229 248 q 301 178 273 196 q 362 149 329 159 q 431 139 395 139 l 885 139 l 885 0 l 431 0 q 283 31 352 1 q 162 113 214 61 q 81 234 111 165 q 52 382 52 303 q 81 530 52 460 q 162 651 111 599 q 283 733 214 703 q 431 764 352 763 l 746 764 q 841 745 796 764 q 918 693 885 726 q 970 616 951 660 q 989 521 989 572 m 746 416 q 786 425 767 416 q 819 447 805 433 q 842 480 833 461 q 850 521 850 499 q 842 561 850 542 q 819 594 833 580 q 786 617 805 608 q 746 625 767 625 l 431 625 q 344 609 385 625 q 272 565 304 593 q 220 498 241 536 q 193 416 199 460 l 746 416 m 616 920 q 611 895 616 907 q 598 875 606 884 q 578 862 589 867 q 554 857 566 857 q 530 862 541 857 q 510 875 518 867 q 496 895 501 884 q 492 920 492 907 q 496 943 492 932 q 510 963 501 955 q 530 977 518 972 q 554 982 541 982 q 578 977 566 982 q 598 963 589 972 q 611 943 606 955 q 616 920 616 932 z "},"ę":{"ha":1025,"x_min":52,"x_max":989,"o":"m 989 521 q 970 426 989 470 q 918 349 951 382 q 841 297 885 316 q 746 278 796 278 l 214 278 q 251 222 229 248 q 301 178 273 196 q 362 149 329 159 q 431 139 395 139 l 885 139 l 885 0 l 851 0 q 814 -44 827 -20 q 802 -89 802 -68 q 814 -114 802 -106 q 854 -122 826 -122 q 881 -120 867 -122 q 910 -114 896 -117 q 938 -105 925 -110 q 961 -97 951 -101 l 961 -187 q 939 -194 951 -190 q 910 -201 927 -197 q 872 -207 894 -205 q 823 -210 851 -210 q 774 -205 798 -210 q 734 -189 751 -200 q 707 -161 717 -178 q 697 -118 697 -144 q 700 -90 697 -106 q 710 -59 703 -75 q 728 -27 717 -43 q 754 0 739 -12 l 431 0 q 283 31 352 1 q 162 113 214 61 q 81 234 111 165 q 52 382 52 303 q 81 530 52 460 q 162 651 111 599 q 283 733 214 703 q 431 764 352 763 l 746 764 q 841 745 796 764 q 918 693 885 726 q 970 616 951 660 q 989 521 989 572 m 746 416 q 786 425 767 416 q 819 447 805 433 q 842 480 833 461 q 850 521 850 499 q 842 561 850 542 q 819 594 833 580 q 786 617 805 608 q 746 625 767 625 l 431 625 q 344 609 385 625 q 272 565 304 593 q 220 498 241 536 q 193 416 199 460 l 746 416 z "},"ě":{"ha":1025,"x_min":52,"x_max":989,"o":"m 989 521 q 970 426 989 470 q 918 349 951 382 q 841 297 885 316 q 746 278 796 278 l 214 278 q 251 222 229 248 q 301 178 273 196 q 362 149 329 159 q 431 139 395 139 l 885 139 l 885 0 l 431 0 q 283 31 352 1 q 162 113 214 61 q 81 234 111 165 q 52 382 52 303 q 81 530 52 460 q 162 651 111 599 q 283 733 214 703 q 431 764 352 763 l 746 764 q 841 745 796 764 q 918 693 885 726 q 970 616 951 660 q 989 521 989 572 m 746 416 q 786 425 767 416 q 819 447 805 433 q 842 480 833 461 q 850 521 850 499 q 842 561 850 542 q 819 594 833 580 q 786 617 805 608 q 746 625 767 625 l 431 625 q 344 609 385 625 q 272 565 304 593 q 220 498 241 536 q 193 416 199 460 l 746 416 m 385 1053 l 554 965 l 724 1053 l 770 985 l 554 840 l 339 985 l 385 1053 z "},"ĝ":{"ha":1051,"x_min":52,"x_max":951,"o":"m 951 -35 q 932 -130 951 -85 q 880 -207 913 -174 q 803 -259 847 -240 q 708 -278 758 -278 l 153 -278 l 153 -139 l 708 -139 q 748 -131 729 -139 q 781 -109 767 -123 q 804 -75 795 -94 q 812 -35 812 -56 l 812 625 l 431 625 q 337 605 380 625 q 260 553 293 586 q 209 476 228 520 q 191 382 191 432 q 209 288 191 332 q 260 211 228 244 q 337 159 293 178 q 431 139 380 140 l 743 139 l 743 0 l 431 0 q 283 31 352 1 q 162 113 214 61 q 81 234 111 165 q 52 382 52 303 q 81 530 52 460 q 162 651 111 599 q 283 733 214 703 q 431 764 352 763 l 951 764 l 951 -35 m 687 854 l 517 943 l 349 854 l 302 924 l 517 1067 l 747 924 l 687 854 z "},"ğ":{"ha":1051,"x_min":52,"x_max":951,"o":"m 951 -35 q 932 -130 951 -85 q 880 -207 913 -174 q 803 -259 847 -240 q 708 -278 758 -278 l 153 -278 l 153 -139 l 708 -139 q 748 -131 729 -139 q 781 -109 767 -123 q 804 -75 795 -94 q 812 -35 812 -56 l 812 625 l 431 625 q 337 605 380 625 q 260 553 293 586 q 209 476 228 520 q 191 382 191 432 q 209 288 191 332 q 260 211 228 244 q 337 159 293 178 q 431 139 380 140 l 743 139 l 743 0 l 431 0 q 283 31 352 1 q 162 113 214 61 q 81 234 111 165 q 52 382 52 303 q 81 530 52 460 q 162 651 111 599 q 283 733 214 703 q 431 764 352 763 l 951 764 l 951 -35 m 724 1044 q 720 1014 723 1032 q 708 975 716 995 q 686 933 700 954 q 651 896 673 912 q 598 869 629 880 q 525 859 567 859 q 452 869 483 859 q 399 896 421 880 q 363 933 377 912 q 342 975 350 954 q 330 1014 334 995 q 326 1044 327 1032 l 418 1044 q 427 1023 420 1036 q 445 999 433 1010 q 476 980 457 988 q 525 972 496 972 q 573 980 554 972 q 605 999 593 988 q 623 1023 617 1010 q 632 1044 629 1036 l 724 1044 z "},"ġ":{"ha":1051,"x_min":52,"x_max":951,"o":"m 951 -35 q 932 -130 951 -85 q 880 -207 913 -174 q 803 -259 847 -240 q 708 -278 758 -278 l 153 -278 l 153 -139 l 708 -139 q 748 -131 729 -139 q 781 -109 767 -123 q 804 -75 795 -94 q 812 -35 812 -56 l 812 625 l 431 625 q 337 605 380 625 q 260 553 293 586 q 209 476 228 520 q 191 382 191 432 q 209 288 191 332 q 260 211 228 244 q 337 159 293 178 q 431 139 380 140 l 743 139 l 743 0 l 431 0 q 283 31 352 1 q 162 113 214 61 q 81 234 111 165 q 52 382 52 303 q 81 530 52 460 q 162 651 111 599 q 283 733 214 703 q 431 764 352 763 l 951 764 l 951 -35 m 587 920 q 582 895 587 907 q 569 875 577 884 q 549 862 560 867 q 525 857 537 857 q 500 862 512 857 q 480 875 489 867 q 467 895 472 884 q 463 920 463 907 q 467 943 463 932 q 480 963 472 955 q 500 977 489 972 q 525 982 512 982 q 549 977 537 982 q 569 963 560 972 q 582 943 577 955 q 587 920 587 932 z "},"ģ":{"ha":1051,"x_min":52,"x_max":951,"o":"m 951 -35 q 932 -130 951 -85 q 880 -207 913 -174 q 803 -259 847 -240 q 708 -278 758 -278 l 153 -278 l 153 -139 l 708 -139 q 748 -131 729 -139 q 781 -109 767 -123 q 804 -75 795 -94 q 812 -35 812 -56 l 812 625 l 431 625 q 337 605 380 625 q 260 553 293 586 q 209 476 228 520 q 191 382 191 432 q 209 288 191 332 q 260 211 228 244 q 337 159 293 178 q 431 139 380 140 l 743 139 l 743 0 l 431 0 q 283 31 352 1 q 162 113 214 61 q 81 234 111 165 q 52 382 52 303 q 81 530 52 460 q 162 651 111 599 q 283 733 214 703 q 431 764 352 763 l 951 764 l 951 -35 m 441 947 q 450 999 442 974 q 466 1044 457 1024 q 489 1086 476 1066 l 559 1084 q 551 1069 555 1078 q 544 1050 548 1061 q 536 1025 540 1038 q 565 1016 551 1023 q 587 997 578 1008 q 603 972 597 986 q 608 943 608 958 q 602 910 608 925 q 584 884 595 895 q 557 866 572 872 q 525 859 542 859 q 493 866 508 859 q 466 884 477 872 q 448 912 455 896 q 441 947 441 928 z "},"ĥ":{"ha":1088,"x_min":100,"x_max":1000,"o":"m 1000 0 l 861 0 l 861 382 q 842 476 861 432 q 791 553 823 520 q 714 605 758 586 q 621 625 671 625 l 239 625 l 239 0 l 100 0 l 100 1042 l 239 1042 l 239 764 l 621 764 q 768 733 699 764 q 889 651 838 703 q 970 530 941 600 q 1000 382 1000 460 l 1000 0 m 705 854 l 536 943 l 367 854 l 321 924 l 536 1067 l 765 924 l 705 854 z "},"ħ":{"ha":1088,"x_min":1,"x_max":1000,"o":"m 1000 0 l 861 0 l 861 382 q 842 476 861 432 q 791 553 823 520 q 714 605 758 586 q 621 625 671 625 l 239 625 l 239 0 l 100 0 l 100 840 l 1 840 l 1 970 l 100 970 l 100 1042 l 239 1042 l 239 970 l 557 970 l 557 840 l 239 840 l 239 764 l 621 764 q 768 733 699 764 q 889 651 838 703 q 970 530 941 600 q 1000 382 1000 460 l 1000 0 z "},"ĩ":{"ha":339,"x_min":-23,"x_max":363,"o":"m 239 0 l 100 0 l 100 764 l 239 764 l 239 0 m 363 1019 q 353 941 363 972 q 327 889 343 909 q 287 862 310 870 q 239 853 264 853 q 195 862 213 853 q 163 882 177 871 q 137 902 149 893 q 108 911 124 911 q 84 904 93 911 q 71 887 76 897 q 65 867 66 877 q 63 853 64 858 l -23 853 q -13 926 -23 895 q 14 978 -3 957 q 54 1009 31 998 q 100 1019 76 1019 q 141 1010 123 1019 q 173 990 158 1001 q 201 970 187 979 q 233 961 215 961 q 255 968 247 961 q 268 985 264 975 q 274 1004 273 995 q 275 1019 275 1014 l 363 1019 z "},"ī":{"ha":339,"x_min":5,"x_max":333,"o":"m 239 0 l 100 0 l 100 764 l 239 764 l 239 0 m 5 864 l 5 978 l 333 978 l 333 864 l 5 864 z "},"ĭ":{"ha":339,"x_min":-28,"x_max":369,"o":"m 239 0 l 100 0 l 100 764 l 239 764 l 239 0 m 369 1044 q 365 1014 368 1032 q 353 975 361 995 q 332 933 345 954 q 296 896 318 912 q 243 869 274 880 q 170 859 212 859 q 97 869 128 859 q 44 896 66 880 q 9 933 22 912 q -13 975 -5 954 q -24 1014 -21 995 q -28 1044 -28 1032 l 63 1044 q 72 1023 66 1036 q 91 999 79 1010 q 122 980 102 988 q 170 972 141 972 q 219 980 199 972 q 250 999 238 988 q 269 1023 262 1010 q 277 1044 275 1036 l 369 1044 z "},"į":{"ha":339,"x_min":56,"x_max":319,"o":"m 239 0 l 210 0 q 173 -44 186 -20 q 160 -89 160 -68 q 172 -114 160 -106 q 212 -122 184 -122 q 239 -120 224 -122 q 268 -114 254 -117 q 296 -105 283 -110 q 319 -97 310 -101 l 319 -187 q 298 -194 310 -190 q 269 -201 286 -197 q 231 -207 252 -205 q 182 -210 210 -210 q 133 -205 156 -210 q 93 -189 110 -200 q 65 -161 75 -178 q 56 -118 56 -144 q 59 -90 56 -106 q 68 -59 62 -75 q 86 -27 75 -43 q 113 0 97 -12 l 100 0 l 100 764 l 239 764 l 239 0 m 273 937 q 265 897 273 916 q 243 864 257 878 q 210 842 229 850 q 170 833 191 833 q 129 842 148 833 q 96 864 110 850 q 73 897 81 878 q 65 937 65 916 q 73 977 65 958 q 96 1010 81 996 q 129 1033 110 1025 q 170 1042 148 1042 q 210 1033 191 1042 q 243 1010 229 1025 q 265 977 257 996 q 273 937 273 958 z "},"ĳ":{"ha":677,"x_min":22,"x_max":612,"o":"m 273 937 q 265 897 273 916 q 243 864 257 878 q 210 842 229 850 q 170 833 191 833 q 129 842 148 833 q 96 864 110 850 q 73 897 81 878 q 65 937 65 916 q 73 977 65 958 q 96 1010 81 996 q 129 1033 110 1025 q 170 1042 148 1042 q 210 1033 191 1042 q 243 1010 229 1025 q 265 977 257 996 q 273 937 273 958 m 239 0 l 100 0 l 100 764 l 239 764 l 239 0 m 578 -35 q 559 -130 578 -85 q 507 -207 540 -174 q 430 -259 474 -240 q 335 -278 386 -278 l 22 -278 l 22 -139 l 335 -139 q 375 -131 356 -139 q 408 -109 394 -123 q 431 -75 422 -94 q 439 -35 439 -56 l 439 764 l 578 764 l 578 -35 m 612 937 q 604 897 612 916 q 582 864 596 878 q 549 842 568 850 q 509 833 530 833 q 468 842 487 833 q 435 864 449 850 q 412 897 420 878 q 404 937 404 916 q 412 977 404 958 q 435 1010 420 996 q 468 1033 449 1025 q 509 1042 487 1042 q 549 1033 530 1042 q 582 1010 568 1025 q 604 977 596 996 q 612 937 612 958 z "},"ĵ":{"ha":339,"x_min":-317,"x_max":392,"o":"m 239 -35 q 220 -130 239 -85 q 168 -207 201 -174 q 91 -259 135 -240 q -4 -278 47 -278 l -317 -278 l -317 -139 l -4 -139 q 36 -131 17 -139 q 69 -109 55 -123 q 92 -75 83 -94 q 100 -35 100 -56 l 100 764 l 239 764 l 239 -35 m 332 827 l 163 916 l -6 827 l -52 896 l 163 1039 l 392 896 l 332 827 z "},"ķ":{"ha":987,"x_min":100,"x_max":1004,"o":"m 1004 0 l 806 0 l 400 326 l 239 195 l 239 0 l 100 0 l 100 1042 l 239 1042 l 239 342 l 745 764 l 933 764 l 501 410 l 1004 0 m 576 -129 q 568 -181 575 -157 q 552 -226 561 -206 q 530 -268 542 -248 l 458 -267 q 467 -251 463 -260 q 474 -233 470 -243 q 481 -208 477 -222 q 430 -181 450 -204 q 410 -125 410 -157 q 416 -93 410 -109 q 434 -66 423 -78 q 461 -48 446 -55 q 493 -41 476 -41 q 525 -48 510 -41 q 552 -67 541 -55 q 570 -95 564 -79 q 576 -129 576 -111 z "},"ĸ":{"ha":987,"x_min":100,"x_max":1004,"o":"m 1004 0 l 806 0 l 400 326 l 239 195 l 239 0 l 100 0 l 100 764 l 239 764 l 239 342 l 745 764 l 933 764 l 501 410 l 1004 0 z "},"ĺ":{"ha":393,"x_min":94,"x_max":454,"o":"m 372 0 l 338 0 q 243 19 287 0 q 165 71 199 38 q 113 148 132 104 q 94 243 94 193 l 94 1042 l 233 1042 l 233 243 q 241 202 233 221 q 264 170 250 184 q 297 147 278 155 q 338 139 316 139 l 372 139 l 372 0 m 454 1204 l 200 1113 l 167 1186 l 401 1324 l 454 1204 z "},"ļ":{"ha":393,"x_min":85,"x_max":372,"o":"m 372 0 l 338 0 q 243 19 287 0 q 165 71 199 38 q 113 148 132 104 q 94 243 94 193 l 94 1042 l 233 1042 l 233 243 q 241 202 233 221 q 264 170 250 184 q 297 147 278 155 q 338 139 316 139 l 372 139 l 372 0 m 252 -157 q 244 -209 251 -184 q 228 -254 237 -234 q 205 -296 218 -276 l 134 -294 q 142 -279 138 -288 q 150 -260 146 -271 q 157 -236 153 -250 q 106 -209 126 -232 q 85 -153 85 -185 q 92 -121 85 -136 q 110 -94 99 -106 q 137 -76 121 -83 q 169 -69 152 -69 q 201 -76 186 -69 q 228 -95 216 -83 q 246 -122 239 -106 q 252 -157 252 -138 z "},"ŀ":{"ha":681,"x_min":94,"x_max":587,"o":"m 372 0 l 338 0 q 243 19 287 0 q 165 71 199 38 q 113 148 132 104 q 94 243 94 193 l 94 1042 l 233 1042 l 233 243 q 241 202 233 221 q 264 170 250 184 q 297 147 278 155 q 338 139 316 139 l 372 139 l 372 0 m 587 494 q 579 454 587 473 q 557 420 571 435 q 524 398 543 406 q 484 390 505 390 q 443 398 462 390 q 410 420 424 406 q 387 454 395 435 q 379 494 379 473 q 387 534 379 515 q 410 568 395 553 q 443 590 424 582 q 484 599 462 599 q 524 590 505 599 q 557 568 543 582 q 579 534 571 553 q 587 494 587 515 z "},"ľ":{"ha":596,"x_min":94,"x_max":503,"o":"m 372 0 l 338 0 q 243 19 287 0 q 165 71 199 38 q 113 148 132 104 q 94 243 94 193 l 94 1042 l 233 1042 l 233 243 q 241 202 233 221 q 264 170 250 184 q 297 147 278 155 q 338 139 316 139 l 372 139 l 372 0 m 503 1039 q 494 986 502 1011 q 478 942 487 962 q 456 900 468 920 l 385 901 q 393 917 389 908 q 408 960 400 932 q 379 969 392 962 q 357 987 366 976 q 342 1013 347 998 q 336 1043 336 1027 q 343 1075 336 1060 q 361 1101 349 1090 q 387 1120 372 1113 q 420 1126 402 1126 q 452 1120 437 1126 q 479 1101 467 1113 q 497 1073 490 1089 q 503 1039 503 1057 z "},"ń":{"ha":1088,"x_min":100,"x_max":1000,"o":"m 239 0 l 100 0 l 100 764 l 621 764 q 768 733 699 764 q 889 651 838 703 q 970 530 941 600 q 1000 382 1000 460 l 1000 0 l 861 0 l 861 382 q 842 476 861 432 q 791 553 823 520 q 714 605 758 586 q 621 625 671 625 l 239 625 l 239 0 m 827 946 l 572 854 l 539 928 l 774 1065 l 827 946 z "},"ņ":{"ha":1088,"x_min":100,"x_max":1000,"o":"m 239 0 l 100 0 l 100 764 l 621 764 q 768 733 699 764 q 889 651 838 703 q 970 530 941 600 q 1000 382 1000 460 l 1000 0 l 861 0 l 861 382 q 842 476 861 432 q 791 553 823 520 q 714 605 758 586 q 621 625 671 625 l 239 625 l 239 0 m 626 -143 q 617 -196 625 -171 q 602 -240 610 -220 q 579 -282 591 -262 l 508 -281 q 516 -265 512 -274 q 523 -247 519 -258 q 530 -222 527 -236 q 479 -195 500 -218 q 459 -139 459 -172 q 466 -107 459 -123 q 484 -81 473 -92 q 510 -62 495 -69 q 543 -56 526 -56 q 575 -62 559 -56 q 602 -81 590 -69 q 620 -109 613 -93 q 626 -143 626 -125 z "},"ň":{"ha":1088,"x_min":100,"x_max":1000,"o":"m 239 0 l 100 0 l 100 764 l 621 764 q 768 733 699 764 q 889 651 838 703 q 970 530 941 600 q 1000 382 1000 460 l 1000 0 l 861 0 l 861 382 q 842 476 861 432 q 791 553 823 520 q 714 605 758 586 q 621 625 671 625 l 239 625 l 239 0 m 374 1053 l 543 965 l 712 1053 l 758 985 l 543 840 l 328 985 l 374 1053 z "},"ŉ":{"ha":1278,"x_min":89,"x_max":1191,"o":"m 256 1039 q 247 986 254 1011 q 231 942 239 962 q 208 900 220 920 l 138 901 q 146 917 142 908 q 160 960 153 932 q 132 969 144 962 q 109 987 119 976 q 94 1013 100 998 q 89 1043 89 1027 q 95 1075 89 1060 q 113 1101 102 1090 q 140 1120 125 1113 q 172 1126 155 1126 q 204 1120 189 1126 q 231 1101 220 1113 q 249 1073 243 1089 q 256 1039 256 1057 m 429 0 l 290 0 l 290 764 l 811 764 q 959 733 890 764 q 1080 651 1028 703 q 1161 530 1131 600 q 1191 382 1191 460 l 1191 0 l 1052 0 l 1052 382 q 1033 476 1052 432 q 981 553 1014 520 q 905 605 949 586 q 811 625 861 625 l 429 625 l 429 0 z "},"ŋ":{"ha":1088,"x_min":100,"x_max":1000,"o":"m 239 0 l 100 0 l 100 764 l 621 764 q 768 733 699 764 q 889 651 838 703 q 970 530 941 600 q 1000 382 1000 460 l 1000 -35 q 981 -130 1000 -85 q 929 -207 962 -174 q 852 -259 896 -240 q 757 -278 808 -278 l 444 -278 l 444 -139 l 757 -139 q 797 -131 778 -139 q 830 -109 816 -123 q 853 -75 844 -94 q 861 -35 861 -56 l 861 382 q 842 476 861 432 q 791 553 823 520 q 714 605 758 586 q 621 625 671 625 l 239 625 l 239 0 z "},"ō":{"ha":1075,"x_min":52,"x_max":1023,"o":"m 1023 382 q 994 234 1023 303 q 912 113 964 165 q 792 31 861 61 q 644 0 723 1 l 431 0 q 283 31 352 1 q 162 113 214 61 q 81 234 111 165 q 52 382 52 303 q 81 530 52 460 q 162 651 111 600 q 283 733 214 703 q 431 764 352 764 l 644 764 q 745 750 696 764 q 836 711 794 736 q 913 651 878 686 q 972 574 947 616 q 1010 483 996 532 q 1023 382 1023 434 m 885 382 q 866 476 885 432 q 814 553 847 520 q 738 605 782 586 q 644 625 694 625 l 431 625 q 337 605 380 625 q 260 553 293 586 q 209 476 228 520 q 191 382 191 432 q 209 288 191 332 q 260 211 228 243 q 337 158 293 178 q 431 139 380 139 l 644 139 q 738 158 694 139 q 814 211 782 178 q 866 288 847 243 q 885 382 885 332 m 374 864 l 374 978 l 701 978 l 701 864 l 374 864 z "},"ŏ":{"ha":1075,"x_min":52,"x_max":1023,"o":"m 1023 382 q 994 234 1023 303 q 912 113 964 165 q 792 31 861 61 q 644 0 723 1 l 431 0 q 283 31 352 1 q 162 113 214 61 q 81 234 111 165 q 52 382 52 303 q 81 530 52 460 q 162 651 111 600 q 283 733 214 703 q 431 764 352 764 l 644 764 q 745 750 696 764 q 836 711 794 736 q 913 651 878 686 q 972 574 947 616 q 1010 483 996 532 q 1023 382 1023 434 m 885 382 q 866 476 885 432 q 814 553 847 520 q 738 605 782 586 q 644 625 694 625 l 431 625 q 337 605 380 625 q 260 553 293 586 q 209 476 228 520 q 191 382 191 432 q 209 288 191 332 q 260 211 228 243 q 337 158 293 178 q 431 139 380 139 l 644 139 q 738 158 694 139 q 814 211 782 178 q 866 288 847 243 q 885 382 885 332 m 736 1044 q 732 1014 736 1032 q 721 975 729 995 q 699 933 713 954 q 664 896 686 912 q 611 869 642 880 q 538 859 580 859 q 465 869 496 859 q 412 896 434 880 q 376 933 390 912 q 355 975 363 954 q 343 1014 347 995 q 339 1044 340 1032 l 431 1044 q 440 1023 433 1036 q 458 999 446 1010 q 489 980 470 988 q 538 972 509 972 q 586 980 567 972 q 618 999 606 988 q 636 1023 630 1010 q 645 1044 642 1036 l 736 1044 z "},"ő":{"ha":1075,"x_min":52,"x_max":1023,"o":"m 1023 382 q 994 234 1023 303 q 912 113 964 165 q 792 31 861 61 q 644 0 723 1 l 431 0 q 283 31 352 1 q 162 113 214 61 q 81 234 111 165 q 52 382 52 303 q 81 530 52 460 q 162 651 111 600 q 283 733 214 703 q 431 764 352 764 l 644 764 q 745 750 696 764 q 836 711 794 736 q 913 651 878 686 q 972 574 947 616 q 1010 483 996 532 q 1023 382 1023 434 m 885 382 q 866 476 885 432 q 814 553 847 520 q 738 605 782 586 q 644 625 694 625 l 431 625 q 337 605 380 625 q 260 553 293 586 q 209 476 228 520 q 191 382 191 432 q 209 288 191 332 q 260 211 228 243 q 337 158 293 178 q 431 139 380 139 l 644 139 q 738 158 694 139 q 814 211 782 178 q 866 288 847 243 q 885 382 885 332 m 650 941 l 465 848 l 437 895 l 594 1035 l 650 941 m 860 941 l 675 848 l 650 895 l 804 1035 l 860 941 z "},"ŕ":{"ha":871,"x_min":94,"x_max":859,"o":"m 859 625 l 338 625 q 297 617 316 625 q 264 594 278 608 q 241 561 250 580 q 233 521 233 542 l 233 0 l 94 0 l 94 521 q 113 616 94 572 q 165 693 132 660 q 243 745 199 726 q 338 764 287 764 l 859 764 l 859 625 m 746 946 l 492 854 l 458 928 l 693 1065 l 746 946 z "},"ŗ":{"ha":871,"x_min":82,"x_max":859,"o":"m 859 625 l 338 625 q 297 617 316 625 q 264 594 278 608 q 241 561 250 580 q 233 521 233 542 l 233 0 l 94 0 l 94 521 q 113 616 94 572 q 165 693 132 660 q 243 745 199 726 q 338 764 287 764 l 859 764 l 859 625 m 249 -143 q 240 -196 248 -171 q 224 -240 233 -220 q 202 -282 214 -262 l 131 -281 q 139 -265 135 -274 q 146 -247 142 -258 q 153 -222 150 -236 q 102 -195 123 -218 q 82 -139 82 -172 q 89 -107 82 -123 q 107 -81 96 -92 q 133 -62 118 -69 q 165 -56 149 -56 q 198 -62 182 -56 q 224 -81 213 -69 q 242 -109 236 -93 q 249 -143 249 -125 z "},"ř":{"ha":871,"x_min":94,"x_max":859,"o":"m 859 625 l 338 625 q 297 617 316 625 q 264 594 278 608 q 241 561 250 580 q 233 521 233 542 l 233 0 l 94 0 l 94 521 q 113 616 94 572 q 165 693 132 660 q 243 745 199 726 q 338 764 287 764 l 859 764 l 859 625 m 266 1053 l 435 965 l 604 1053 l 650 985 l 435 840 l 220 985 l 266 1053 z "},"ś":{"ha":940,"x_min":64,"x_max":897,"o":"m 897 243 q 878 148 897 193 q 826 71 859 104 q 749 19 793 38 q 654 0 705 0 l 64 0 l 64 139 l 654 139 q 694 147 675 139 q 728 170 713 155 q 750 202 742 184 q 758 243 758 221 q 750 283 758 264 q 728 316 742 302 q 694 339 713 330 q 654 347 675 347 l 272 347 q 191 363 229 347 q 124 408 153 380 q 80 474 96 436 q 64 555 64 512 q 80 637 64 599 q 124 703 96 675 q 191 747 153 731 q 272 764 229 764 l 828 764 l 828 625 l 272 625 q 223 605 243 625 q 203 555 203 585 q 223 506 203 526 q 272 486 243 486 l 654 486 q 749 467 705 486 q 826 415 793 448 q 878 338 859 382 q 897 243 897 294 m 753 946 l 498 854 l 465 928 l 700 1065 l 753 946 z "},"ŝ":{"ha":940,"x_min":64,"x_max":897,"o":"m 897 243 q 878 148 897 193 q 826 71 859 104 q 749 19 793 38 q 654 0 705 0 l 64 0 l 64 139 l 654 139 q 694 147 675 139 q 728 170 713 155 q 750 202 742 184 q 758 243 758 221 q 750 283 758 264 q 728 316 742 302 q 694 339 713 330 q 654 347 675 347 l 272 347 q 191 363 229 347 q 124 408 153 380 q 80 474 96 436 q 64 555 64 512 q 80 637 64 599 q 124 703 96 675 q 191 747 153 731 q 272 764 229 764 l 828 764 l 828 625 l 272 625 q 223 605 243 625 q 203 555 203 585 q 223 506 203 526 q 272 486 243 486 l 654 486 q 749 467 705 486 q 826 415 793 448 q 878 338 859 382 q 897 243 897 294 m 632 854 l 463 943 l 294 854 l 248 924 l 463 1067 l 692 924 l 632 854 z "},"ş":{"ha":940,"x_min":64,"x_max":897,"o":"m 897 243 q 878 148 897 193 q 826 71 859 104 q 749 19 793 38 q 654 0 705 0 l 511 0 l 498 -33 q 531 -37 513 -33 q 565 -50 549 -41 q 591 -77 581 -60 q 602 -122 602 -95 q 588 -170 602 -151 q 551 -200 574 -189 q 502 -216 529 -212 q 447 -221 474 -221 q 405 -220 422 -221 q 377 -216 389 -218 q 356 -213 365 -214 q 338 -210 347 -211 l 338 -123 q 383 -139 357 -133 q 436 -146 409 -146 q 481 -140 463 -146 q 500 -121 500 -134 q 494 -108 500 -113 q 479 -100 488 -103 q 461 -97 471 -98 q 443 -96 451 -96 q 419 -97 431 -96 q 397 -102 408 -99 l 435 0 l 64 0 l 64 139 l 654 139 q 694 147 675 139 q 728 170 713 155 q 750 202 742 184 q 758 243 758 221 q 750 283 758 264 q 728 316 742 302 q 694 339 713 330 q 654 347 675 347 l 272 347 q 191 363 229 347 q 124 408 153 380 q 80 474 96 436 q 64 555 64 512 q 80 637 64 599 q 124 703 96 675 q 191 747 153 731 q 272 764 229 764 l 828 764 l 828 625 l 272 625 q 223 605 243 625 q 203 555 203 585 q 223 506 203 526 q 272 486 243 486 l 654 486 q 749 467 705 486 q 826 415 793 448 q 878 338 859 382 q 897 243 897 294 z "},"ţ":{"ha":864,"x_min":21,"x_max":854,"o":"m 368 0 l 229 0 l 229 625 l 21 625 l 21 764 l 229 764 l 229 1042 l 368 1042 l 368 764 l 854 764 l 854 625 l 368 625 l 368 0 m 380 -157 q 372 -209 379 -184 q 356 -254 365 -234 q 334 -296 346 -276 l 262 -294 q 271 -279 267 -288 q 278 -260 274 -271 q 285 -236 281 -250 q 234 -209 254 -232 q 214 -153 214 -185 q 220 -121 214 -136 q 238 -94 227 -106 q 265 -76 250 -83 q 297 -69 280 -69 q 329 -76 314 -69 q 356 -95 345 -83 q 374 -122 368 -106 q 380 -157 380 -138 z "},"ť":{"ha":1213,"x_min":21,"x_max":1120,"o":"m 368 0 l 229 0 l 229 625 l 21 625 l 21 764 l 229 764 l 229 1042 l 368 1042 l 368 764 l 854 764 l 854 625 l 368 625 l 368 0 m 1120 1039 q 1111 986 1118 1011 q 1095 942 1103 962 q 1072 900 1084 920 l 1002 901 q 1010 917 1006 908 q 1024 960 1017 932 q 996 969 1008 962 q 973 987 983 976 q 958 1013 964 998 q 953 1043 953 1027 q 959 1075 953 1060 q 977 1101 966 1090 q 1004 1120 989 1113 q 1036 1126 1019 1126 q 1068 1120 1053 1126 q 1095 1101 1084 1113 q 1113 1073 1107 1089 q 1120 1039 1120 1057 z "},"ŧ":{"ha":864,"x_min":21,"x_max":854,"o":"m 576 361 l 368 361 l 368 0 l 229 0 l 229 361 l 21 361 l 21 500 l 229 500 l 229 625 l 21 625 l 21 764 l 229 764 l 229 1042 l 368 1042 l 368 764 l 854 764 l 854 625 l 368 625 l 368 500 l 576 500 l 576 361 z "},"ũ":{"ha":1088,"x_min":87,"x_max":987,"o":"m 987 0 l 467 0 q 319 30 388 0 q 198 112 250 60 q 117 234 147 164 q 87 382 87 303 l 87 764 l 227 764 l 227 382 q 245 288 227 332 q 296 211 264 244 q 373 159 329 178 q 467 139 416 140 l 848 139 l 848 764 l 987 764 l 987 0 m 736 1019 q 726 941 736 972 q 700 889 716 909 q 660 862 683 870 q 612 853 637 853 q 568 862 586 853 q 536 882 550 871 q 510 902 522 893 q 481 911 497 911 q 457 904 466 911 q 444 887 449 897 q 438 867 439 877 q 436 853 437 858 l 350 853 q 360 926 350 895 q 387 978 370 957 q 427 1009 404 998 q 473 1019 449 1019 q 514 1010 496 1019 q 546 990 531 1001 q 574 970 560 979 q 606 961 588 961 q 628 968 620 961 q 641 985 637 975 q 647 1004 646 995 q 648 1019 648 1014 l 736 1019 z "},"ū":{"ha":1088,"x_min":87,"x_max":987,"o":"m 987 0 l 467 0 q 319 30 388 0 q 198 112 250 60 q 117 234 147 164 q 87 382 87 303 l 87 764 l 227 764 l 227 382 q 245 288 227 332 q 296 211 264 244 q 373 159 329 178 q 467 139 416 140 l 848 139 l 848 764 l 987 764 l 987 0 m 379 864 l 379 978 l 707 978 l 707 864 l 379 864 z "},"ŭ":{"ha":1088,"x_min":87,"x_max":987,"o":"m 987 0 l 467 0 q 319 30 388 0 q 198 112 250 60 q 117 234 147 164 q 87 382 87 303 l 87 764 l 227 764 l 227 382 q 245 288 227 332 q 296 211 264 244 q 373 159 329 178 q 467 139 416 140 l 848 139 l 848 764 l 987 764 l 987 0 m 742 1044 q 738 1014 741 1032 q 726 975 734 995 q 705 933 718 954 q 669 896 691 912 q 616 869 647 880 q 543 859 585 859 q 470 869 501 859 q 417 896 439 880 q 382 933 395 912 q 360 975 368 954 q 349 1014 352 995 q 345 1044 345 1032 l 436 1044 q 445 1023 439 1036 q 464 999 452 1010 q 495 980 475 988 q 543 972 514 972 q 592 980 572 972 q 623 999 611 988 q 642 1023 635 1010 q 650 1044 648 1036 l 742 1044 z "},"ů":{"ha":1088,"x_min":87,"x_max":987,"o":"m 987 0 l 467 0 q 319 30 388 0 q 198 112 250 60 q 117 234 147 164 q 87 382 87 303 l 87 764 l 227 764 l 227 382 q 245 288 227 332 q 296 211 264 244 q 373 159 329 178 q 467 139 416 140 l 848 139 l 848 764 l 987 764 l 987 0 m 400 946 q 411 991 400 970 q 440 1029 421 1013 q 486 1055 459 1045 q 543 1064 512 1064 q 605 1055 578 1064 q 650 1029 631 1045 q 677 991 668 1013 q 686 946 686 970 q 676 901 686 922 q 647 863 666 880 q 602 838 629 847 q 543 828 576 828 q 484 838 510 828 q 438 863 457 847 q 410 901 420 880 q 400 946 400 922 m 496 946 q 508 912 496 926 q 543 899 519 899 q 578 912 566 899 q 591 946 591 926 q 578 979 591 966 q 543 993 566 993 q 508 979 519 993 q 496 946 496 966 z "},"ű":{"ha":1088,"x_min":87,"x_max":987,"o":"m 987 0 l 467 0 q 319 30 388 0 q 198 112 250 60 q 117 234 147 164 q 87 382 87 303 l 87 764 l 227 764 l 227 382 q 245 288 227 332 q 296 211 264 244 q 373 159 329 178 q 467 139 416 140 l 848 139 l 848 764 l 987 764 l 987 0 m 627 941 l 443 848 l 415 895 l 572 1035 l 627 941 m 838 941 l 652 848 l 627 895 l 782 1035 l 838 941 z "},"ų":{"ha":1088,"x_min":87,"x_max":1065,"o":"m 987 0 l 956 0 q 919 -44 932 -20 q 905 -89 905 -68 q 918 -114 905 -106 q 958 -122 930 -122 q 985 -120 970 -122 q 1014 -114 1000 -117 q 1042 -105 1029 -110 q 1065 -97 1056 -101 l 1065 -187 q 1044 -194 1056 -190 q 1015 -201 1031 -197 q 977 -207 998 -205 q 928 -210 956 -210 q 879 -205 902 -210 q 839 -189 856 -200 q 811 -161 821 -178 q 802 -118 802 -144 q 805 -90 802 -106 q 814 -59 808 -75 q 832 -27 821 -43 q 859 0 843 -12 l 467 0 q 319 30 388 0 q 198 112 250 60 q 117 234 147 164 q 87 382 87 303 l 87 764 l 227 764 l 227 382 q 245 288 227 332 q 296 211 264 244 q 373 159 329 178 q 467 139 416 140 l 848 139 l 848 764 l 987 764 l 987 0 z "},"ŵ":{"ha":1318,"x_min":87,"x_max":1231,"o":"m 1231 382 q 1201 234 1231 303 q 1120 112 1171 164 q 999 30 1068 60 q 851 0 930 0 l 467 0 q 319 30 388 0 q 198 112 250 60 q 117 234 147 164 q 87 382 87 303 l 87 764 l 227 764 l 227 382 q 245 288 227 332 q 296 211 264 244 q 373 159 329 178 q 467 139 416 140 l 590 139 l 590 764 l 728 764 l 728 139 l 851 139 q 945 159 901 140 q 1021 211 989 178 q 1073 288 1054 244 q 1092 382 1092 332 l 1092 764 l 1231 764 l 1231 382 m 821 854 l 651 943 l 482 854 l 436 924 l 651 1067 l 880 924 l 821 854 z "},"ẁ":{"ha":1318,"x_min":87,"x_max":1231,"o":"m 1231 382 q 1201 234 1231 303 q 1120 112 1171 164 q 999 30 1068 60 q 851 0 930 0 l 467 0 q 319 30 388 0 q 198 112 250 60 q 117 234 147 164 q 87 382 87 303 l 87 764 l 227 764 l 227 382 q 245 288 227 332 q 296 211 264 244 q 373 159 329 178 q 467 139 416 140 l 590 139 l 590 764 l 728 764 l 728 139 l 851 139 q 945 159 901 140 q 1021 211 989 178 q 1073 288 1054 244 q 1092 382 1092 332 l 1092 764 l 1231 764 l 1231 382 m 429 1065 l 664 928 l 631 854 l 376 946 l 429 1065 z "},"ẃ":{"ha":1318,"x_min":87,"x_max":1231,"o":"m 1231 382 q 1201 234 1231 303 q 1120 112 1171 164 q 999 30 1068 60 q 851 0 930 0 l 467 0 q 319 30 388 0 q 198 112 250 60 q 117 234 147 164 q 87 382 87 303 l 87 764 l 227 764 l 227 382 q 245 288 227 332 q 296 211 264 244 q 373 159 329 178 q 467 139 416 140 l 590 139 l 590 764 l 728 764 l 728 139 l 851 139 q 945 159 901 140 q 1021 211 989 178 q 1073 288 1054 244 q 1092 382 1092 332 l 1092 764 l 1231 764 l 1231 382 m 942 946 l 688 854 l 654 928 l 889 1065 l 942 946 z "},"ẅ":{"ha":1318,"x_min":87,"x_max":1231,"o":"m 1231 382 q 1201 234 1231 303 q 1120 112 1171 164 q 999 30 1068 60 q 851 0 930 0 l 467 0 q 319 30 388 0 q 198 112 250 60 q 117 234 147 164 q 87 382 87 303 l 87 764 l 227 764 l 227 382 q 245 288 227 332 q 296 211 264 244 q 373 159 329 178 q 467 139 416 140 l 590 139 l 590 764 l 728 764 l 728 139 l 851 139 q 945 159 901 140 q 1021 211 989 178 q 1073 288 1054 244 q 1092 382 1092 332 l 1092 764 l 1231 764 l 1231 382 m 608 920 q 603 895 608 907 q 590 875 598 884 q 570 862 581 867 q 546 857 558 857 q 522 862 533 857 q 501 875 510 867 q 487 895 492 884 q 482 920 482 907 q 487 943 482 932 q 501 963 492 955 q 522 977 510 972 q 546 982 533 982 q 570 977 558 982 q 590 963 581 972 q 603 943 598 955 q 608 920 608 932 m 835 920 q 830 895 835 907 q 816 875 825 884 q 795 862 807 867 q 771 857 784 857 q 747 862 758 857 q 727 875 735 867 q 713 895 718 884 q 709 920 709 907 q 713 943 709 932 q 727 963 718 955 q 747 977 735 972 q 771 982 758 982 q 795 977 784 982 q 816 963 807 972 q 830 943 825 955 q 835 920 835 932 z "},"ŷ":{"ha":1088,"x_min":87,"x_max":987,"o":"m 987 -35 q 968 -130 987 -85 q 917 -207 949 -174 q 839 -259 884 -240 q 745 -278 795 -278 l 189 -278 l 189 -139 l 745 -139 q 785 -131 766 -139 q 818 -109 804 -123 q 840 -75 832 -94 q 848 -35 848 -56 l 848 0 l 467 0 q 319 30 388 0 q 198 112 250 60 q 117 234 147 164 q 87 382 87 303 l 87 764 l 227 764 l 227 382 q 245 288 227 332 q 296 211 264 244 q 373 159 329 178 q 467 139 416 140 l 848 139 l 848 764 l 987 764 l 987 -35 m 705 854 l 536 943 l 367 854 l 321 924 l 536 1067 l 765 924 l 705 854 z "},"ỳ":{"ha":1088,"x_min":87,"x_max":987,"o":"m 987 -35 q 968 -130 987 -85 q 917 -207 949 -174 q 839 -259 884 -240 q 745 -278 795 -278 l 189 -278 l 189 -139 l 745 -139 q 785 -131 766 -139 q 818 -109 804 -123 q 840 -75 832 -94 q 848 -35 848 -56 l 848 0 l 467 0 q 319 30 388 0 q 198 112 250 60 q 117 234 147 164 q 87 382 87 303 l 87 764 l 227 764 l 227 382 q 245 288 227 332 q 296 211 264 244 q 373 159 329 178 q 467 139 416 140 l 848 139 l 848 764 l 987 764 l 987 -35 m 314 1065 l 549 928 l 515 854 l 261 946 l 314 1065 z "},"ź":{"ha":1019,"x_min":58,"x_max":961,"o":"m 961 625 l 292 139 l 961 139 l 961 0 l 58 0 l 58 139 l 726 625 l 58 625 l 58 764 l 961 764 l 961 625 m 791 946 l 537 854 l 504 928 l 739 1065 l 791 946 z "},"ż":{"ha":1019,"x_min":58,"x_max":961,"o":"m 961 625 l 292 139 l 961 139 l 961 0 l 58 0 l 58 139 l 726 625 l 58 625 l 58 764 l 961 764 l 961 625 m 572 920 q 567 895 572 907 q 553 875 562 884 q 533 862 545 867 q 509 857 522 857 q 485 862 496 857 q 465 875 473 867 q 452 895 456 884 q 447 920 447 907 q 452 943 447 932 q 465 963 456 955 q 485 977 473 972 q 509 982 496 982 q 533 977 522 982 q 553 963 545 972 q 567 943 562 955 q 572 920 572 932 z "},"ǽ":{"ha":1804,"x_min":32,"x_max":1768,"o":"m 1768 521 q 1749 426 1768 470 q 1697 349 1730 382 q 1620 297 1664 316 q 1525 278 1575 278 l 993 278 q 1030 222 1008 248 q 1080 178 1052 196 q 1141 149 1108 159 q 1210 139 1174 139 l 1664 139 l 1664 0 l 1210 0 q 1080 23 1141 0 q 970 87 1019 47 l 970 0 l 275 0 q 180 19 224 0 q 103 71 136 38 q 51 148 70 104 q 32 243 32 193 q 51 338 32 294 q 103 415 70 382 q 180 467 136 448 q 275 486 224 486 l 761 486 l 761 347 l 275 347 q 235 339 254 347 q 201 316 216 330 q 179 283 187 302 q 171 243 171 264 q 179 202 171 221 q 201 170 187 184 q 235 147 216 155 q 275 139 254 139 l 831 139 l 831 521 q 822 561 831 542 q 800 594 814 580 q 766 617 785 608 q 726 625 747 625 l 171 625 l 171 764 l 726 764 q 848 731 793 764 q 936 644 903 699 q 1058 731 987 699 q 1210 764 1128 762 l 1525 764 q 1620 745 1575 764 q 1697 693 1664 726 q 1749 616 1730 660 q 1768 521 1768 572 m 1525 416 q 1565 425 1546 416 q 1598 447 1584 433 q 1621 480 1613 461 q 1629 521 1629 499 q 1621 561 1629 542 q 1598 594 1613 580 q 1565 617 1584 608 q 1525 625 1546 625 l 1210 625 q 1123 609 1164 625 q 1052 565 1083 593 q 999 498 1020 536 q 972 416 979 460 l 1525 416 m 1185 946 l 930 854 l 897 928 l 1132 1065 l 1185 946 z "},"ǿ":{"ha":1089,"x_min":52,"x_max":1038,"o":"m 1023 765 l 918 660 q 1005 535 973 606 q 1038 382 1038 464 q 1008 234 1038 303 q 927 113 978 165 q 806 31 876 61 q 659 0 737 1 l 431 0 q 355 8 392 0 q 285 29 318 16 l 256 0 l 77 0 l 176 98 q 84 224 117 152 q 52 382 52 297 q 81 530 52 460 q 162 651 111 600 q 283 733 214 703 q 431 764 352 764 l 659 764 q 811 732 739 764 l 844 765 l 1023 765 m 431 625 q 337 605 380 625 q 260 553 293 586 q 209 476 228 520 q 191 382 191 432 q 213 279 191 327 q 273 197 235 231 l 699 621 q 679 624 689 622 q 659 625 669 625 l 431 625 m 899 382 q 877 481 899 435 q 819 561 856 528 l 397 142 q 414 140 406 140 q 431 139 422 139 l 659 139 q 752 158 708 139 q 828 211 795 178 q 880 288 861 243 q 899 382 899 332 m 840 946 l 586 854 l 553 928 l 787 1065 l 840 946 z "},"³":{"ha":579,"x_min":97,"x_max":494,"o":"m 494 589 q 481 529 494 553 q 449 489 468 504 q 407 467 429 473 q 367 460 385 460 l 97 460 l 97 576 l 366 576 q 376 579 374 576 q 379 589 379 581 l 379 636 l 97 636 l 97 751 l 379 751 l 379 799 q 376 809 379 806 q 367 811 373 811 l 97 811 l 97 928 l 367 928 q 426 915 401 928 q 466 882 450 901 q 488 841 481 863 q 494 800 494 819 l 494 589 z "},"¹":{"ha":351,"x_min":66,"x_max":253,"o":"m 253 460 l 138 460 l 138 811 l 66 811 l 66 928 l 253 928 l 253 460 z "},"¾":{"ha":1227,"x_min":71,"x_max":1165,"o":"m 468 589 q 455 529 468 553 q 422 489 441 504 q 381 467 403 473 q 340 460 359 460 l 71 460 l 71 576 l 339 576 q 350 579 347 576 q 353 589 353 581 l 353 636 l 71 636 l 71 751 l 353 751 l 353 799 q 350 809 353 806 q 340 811 347 811 l 71 811 l 71 928 l 340 928 q 399 915 375 928 q 439 882 424 901 q 461 841 454 863 q 468 800 468 819 l 468 589 m 914 914 l 382 41 l 249 41 l 781 914 l 914 914 m 1165 26 l 1050 26 l 1050 203 l 791 203 q 769 208 779 203 q 750 220 758 212 q 738 238 743 228 q 733 261 733 249 l 733 494 l 848 494 l 848 318 l 1050 318 l 1050 494 l 1165 494 l 1165 26 z "}}}
